<?xml version="1.0" encoding="utf-8"?>
<svg xmlns="http://www.w3.org/2000/svg" xmlns:xlink="http://www.w3.org/1999/xlink" width="600" height="400" viewBox="0 0 2400 1600">
<defs>
  <clipPath id="clip400">
    <rect x="0" y="0" width="2400" height="1600"/>
  </clipPath>
</defs>
<path clip-path="url(#clip400)" d="M0 1600 L2400 1600 L2400 0 L0 0  Z" fill="#ffffff" fill-rule="evenodd" fill-opacity="1"/>
<defs>
  <clipPath id="clip401">
    <rect x="480" y="0" width="1681" height="1600"/>
  </clipPath>
</defs>
<path clip-path="url(#clip400)" d="M247.459 1423.18 L2352.76 1423.18 L2352.76 47.2441 L247.459 47.2441  Z" fill="#ffffff" fill-rule="evenodd" fill-opacity="1"/>
<defs>
  <clipPath id="clip402">
    <rect x="247" y="47" width="2106" height="1377"/>
  </clipPath>
</defs>
<polyline clip-path="url(#clip402)" style="stroke:#000000; stroke-linecap:round; stroke-linejoin:round; stroke-width:2; stroke-opacity:0.1; fill:none" points="249.866,1423.18 249.866,47.2441 "/>
<polyline clip-path="url(#clip402)" style="stroke:#000000; stroke-linecap:round; stroke-linejoin:round; stroke-width:2; stroke-opacity:0.1; fill:none" points="550.795,1423.18 550.795,47.2441 "/>
<polyline clip-path="url(#clip402)" style="stroke:#000000; stroke-linecap:round; stroke-linejoin:round; stroke-width:2; stroke-opacity:0.1; fill:none" points="851.724,1423.18 851.724,47.2441 "/>
<polyline clip-path="url(#clip402)" style="stroke:#000000; stroke-linecap:round; stroke-linejoin:round; stroke-width:2; stroke-opacity:0.1; fill:none" points="1152.65,1423.18 1152.65,47.2441 "/>
<polyline clip-path="url(#clip402)" style="stroke:#000000; stroke-linecap:round; stroke-linejoin:round; stroke-width:2; stroke-opacity:0.1; fill:none" points="1453.58,1423.18 1453.58,47.2441 "/>
<polyline clip-path="url(#clip402)" style="stroke:#000000; stroke-linecap:round; stroke-linejoin:round; stroke-width:2; stroke-opacity:0.1; fill:none" points="1754.51,1423.18 1754.51,47.2441 "/>
<polyline clip-path="url(#clip402)" style="stroke:#000000; stroke-linecap:round; stroke-linejoin:round; stroke-width:2; stroke-opacity:0.1; fill:none" points="2055.44,1423.18 2055.44,47.2441 "/>
<polyline clip-path="url(#clip400)" style="stroke:#000000; stroke-linecap:round; stroke-linejoin:round; stroke-width:4; stroke-opacity:1; fill:none" points="247.459,1423.18 2352.76,1423.18 "/>
<polyline clip-path="url(#clip400)" style="stroke:#000000; stroke-linecap:round; stroke-linejoin:round; stroke-width:4; stroke-opacity:1; fill:none" points="249.866,1423.18 249.866,1404.28 "/>
<polyline clip-path="url(#clip400)" style="stroke:#000000; stroke-linecap:round; stroke-linejoin:round; stroke-width:4; stroke-opacity:1; fill:none" points="550.795,1423.18 550.795,1404.28 "/>
<polyline clip-path="url(#clip400)" style="stroke:#000000; stroke-linecap:round; stroke-linejoin:round; stroke-width:4; stroke-opacity:1; fill:none" points="851.724,1423.18 851.724,1404.28 "/>
<polyline clip-path="url(#clip400)" style="stroke:#000000; stroke-linecap:round; stroke-linejoin:round; stroke-width:4; stroke-opacity:1; fill:none" points="1152.65,1423.18 1152.65,1404.28 "/>
<polyline clip-path="url(#clip400)" style="stroke:#000000; stroke-linecap:round; stroke-linejoin:round; stroke-width:4; stroke-opacity:1; fill:none" points="1453.58,1423.18 1453.58,1404.28 "/>
<polyline clip-path="url(#clip400)" style="stroke:#000000; stroke-linecap:round; stroke-linejoin:round; stroke-width:4; stroke-opacity:1; fill:none" points="1754.51,1423.18 1754.51,1404.28 "/>
<polyline clip-path="url(#clip400)" style="stroke:#000000; stroke-linecap:round; stroke-linejoin:round; stroke-width:4; stroke-opacity:1; fill:none" points="2055.44,1423.18 2055.44,1404.28 "/>
<path clip-path="url(#clip400)" d="M223.628 1466.95 Q226.984 1467.66 228.859 1469.93 Q230.757 1472.2 230.757 1475.53 Q230.757 1480.65 227.239 1483.45 Q223.72 1486.25 217.239 1486.25 Q215.063 1486.25 212.748 1485.81 Q210.457 1485.39 208.003 1484.54 L208.003 1480.02 Q209.947 1481.16 212.262 1481.74 Q214.577 1482.32 217.1 1482.32 Q221.498 1482.32 223.79 1480.58 Q226.105 1478.84 226.105 1475.53 Q226.105 1472.48 223.952 1470.77 Q221.822 1469.03 218.003 1469.03 L213.975 1469.03 L213.975 1465.19 L218.188 1465.19 Q221.637 1465.19 223.466 1463.82 Q225.295 1462.43 225.295 1459.84 Q225.295 1457.18 223.396 1455.77 Q221.521 1454.33 218.003 1454.33 Q216.082 1454.33 213.883 1454.75 Q211.683 1455.16 209.045 1456.04 L209.045 1451.88 Q211.707 1451.14 214.021 1450.77 Q216.359 1450.39 218.42 1450.39 Q223.744 1450.39 226.845 1452.83 Q229.947 1455.23 229.947 1459.35 Q229.947 1462.22 228.304 1464.21 Q226.66 1466.18 223.628 1466.95 Z" fill="#000000" fill-rule="evenodd" fill-opacity="1" /><path clip-path="url(#clip400)" d="M249.623 1454.1 Q246.012 1454.1 244.183 1457.66 Q242.378 1461.2 242.378 1468.33 Q242.378 1475.44 244.183 1479.01 Q246.012 1482.55 249.623 1482.55 Q253.257 1482.55 255.063 1479.01 Q256.892 1475.44 256.892 1468.33 Q256.892 1461.2 255.063 1457.66 Q253.257 1454.1 249.623 1454.1 M249.623 1450.39 Q255.433 1450.39 258.489 1455 Q261.567 1459.58 261.567 1468.33 Q261.567 1477.06 258.489 1481.67 Q255.433 1486.25 249.623 1486.25 Q243.813 1486.25 240.734 1481.67 Q237.679 1477.06 237.679 1468.33 Q237.679 1459.58 240.734 1455 Q243.813 1450.39 249.623 1450.39 Z" fill="#000000" fill-rule="evenodd" fill-opacity="1" /><path clip-path="url(#clip400)" d="M279.785 1454.1 Q276.174 1454.1 274.345 1457.66 Q272.54 1461.2 272.54 1468.33 Q272.54 1475.44 274.345 1479.01 Q276.174 1482.55 279.785 1482.55 Q283.419 1482.55 285.225 1479.01 Q287.053 1475.44 287.053 1468.33 Q287.053 1461.2 285.225 1457.66 Q283.419 1454.1 279.785 1454.1 M279.785 1450.39 Q285.595 1450.39 288.651 1455 Q291.729 1459.58 291.729 1468.33 Q291.729 1477.06 288.651 1481.67 Q285.595 1486.25 279.785 1486.25 Q273.975 1486.25 270.896 1481.67 Q267.841 1477.06 267.841 1468.33 Q267.841 1459.58 270.896 1455 Q273.975 1450.39 279.785 1450.39 Z" fill="#000000" fill-rule="evenodd" fill-opacity="1" /><path clip-path="url(#clip400)" d="M523.885 1455.09 L512.08 1473.54 L523.885 1473.54 L523.885 1455.09 M522.658 1451.02 L528.538 1451.02 L528.538 1473.54 L533.469 1473.54 L533.469 1477.43 L528.538 1477.43 L528.538 1485.58 L523.885 1485.58 L523.885 1477.43 L508.283 1477.43 L508.283 1472.92 L522.658 1451.02 Z" fill="#000000" fill-rule="evenodd" fill-opacity="1" /><path clip-path="url(#clip400)" d="M551.2 1454.1 Q547.589 1454.1 545.76 1457.66 Q543.955 1461.2 543.955 1468.33 Q543.955 1475.44 545.76 1479.01 Q547.589 1482.55 551.2 1482.55 Q554.834 1482.55 556.64 1479.01 Q558.468 1475.44 558.468 1468.33 Q558.468 1461.2 556.64 1457.66 Q554.834 1454.1 551.2 1454.1 M551.2 1450.39 Q557.01 1450.39 560.066 1455 Q563.144 1459.58 563.144 1468.33 Q563.144 1477.06 560.066 1481.67 Q557.01 1486.25 551.2 1486.25 Q545.39 1486.25 542.311 1481.67 Q539.256 1477.06 539.256 1468.33 Q539.256 1459.58 542.311 1455 Q545.39 1450.39 551.2 1450.39 Z" fill="#000000" fill-rule="evenodd" fill-opacity="1" /><path clip-path="url(#clip400)" d="M581.362 1454.1 Q577.751 1454.1 575.922 1457.66 Q574.116 1461.2 574.116 1468.33 Q574.116 1475.44 575.922 1479.01 Q577.751 1482.55 581.362 1482.55 Q584.996 1482.55 586.802 1479.01 Q588.63 1475.44 588.63 1468.33 Q588.63 1461.2 586.802 1457.66 Q584.996 1454.1 581.362 1454.1 M581.362 1450.39 Q587.172 1450.39 590.228 1455 Q593.306 1459.58 593.306 1468.33 Q593.306 1477.06 590.228 1481.67 Q587.172 1486.25 581.362 1486.25 Q575.552 1486.25 572.473 1481.67 Q569.417 1477.06 569.417 1468.33 Q569.417 1459.58 572.473 1455 Q575.552 1450.39 581.362 1450.39 Z" fill="#000000" fill-rule="evenodd" fill-opacity="1" /><path clip-path="url(#clip400)" d="M811.342 1451.02 L829.698 1451.02 L829.698 1454.96 L815.624 1454.96 L815.624 1463.43 Q816.643 1463.08 817.661 1462.92 Q818.68 1462.73 819.698 1462.73 Q825.485 1462.73 828.865 1465.9 Q832.244 1469.08 832.244 1474.49 Q832.244 1480.07 828.772 1483.17 Q825.3 1486.25 818.981 1486.25 Q816.805 1486.25 814.536 1485.88 Q812.291 1485.51 809.883 1484.77 L809.883 1480.07 Q811.967 1481.2 814.189 1481.76 Q816.411 1482.32 818.888 1482.32 Q822.893 1482.32 825.231 1480.21 Q827.569 1478.1 827.569 1474.49 Q827.569 1470.88 825.231 1468.77 Q822.893 1466.67 818.888 1466.67 Q817.013 1466.67 815.138 1467.08 Q813.286 1467.5 811.342 1468.38 L811.342 1451.02 Z" fill="#000000" fill-rule="evenodd" fill-opacity="1" /><path clip-path="url(#clip400)" d="M851.457 1454.1 Q847.846 1454.1 846.018 1457.66 Q844.212 1461.2 844.212 1468.33 Q844.212 1475.44 846.018 1479.01 Q847.846 1482.55 851.457 1482.55 Q855.092 1482.55 856.897 1479.01 Q858.726 1475.44 858.726 1468.33 Q858.726 1461.2 856.897 1457.66 Q855.092 1454.1 851.457 1454.1 M851.457 1450.39 Q857.267 1450.39 860.323 1455 Q863.402 1459.58 863.402 1468.33 Q863.402 1477.06 860.323 1481.67 Q857.267 1486.25 851.457 1486.25 Q845.647 1486.25 842.568 1481.67 Q839.513 1477.06 839.513 1468.33 Q839.513 1459.58 842.568 1455 Q845.647 1450.39 851.457 1450.39 Z" fill="#000000" fill-rule="evenodd" fill-opacity="1" /><path clip-path="url(#clip400)" d="M881.619 1454.1 Q878.008 1454.1 876.179 1457.66 Q874.374 1461.2 874.374 1468.33 Q874.374 1475.44 876.179 1479.01 Q878.008 1482.55 881.619 1482.55 Q885.253 1482.55 887.059 1479.01 Q888.888 1475.44 888.888 1468.33 Q888.888 1461.2 887.059 1457.66 Q885.253 1454.1 881.619 1454.1 M881.619 1450.39 Q887.429 1450.39 890.485 1455 Q893.564 1459.58 893.564 1468.33 Q893.564 1477.06 890.485 1481.67 Q887.429 1486.25 881.619 1486.25 Q875.809 1486.25 872.73 1481.67 Q869.675 1477.06 869.675 1468.33 Q869.675 1459.58 872.73 1455 Q875.809 1450.39 881.619 1450.39 Z" fill="#000000" fill-rule="evenodd" fill-opacity="1" /><path clip-path="url(#clip400)" d="M1122.98 1466.44 Q1119.83 1466.44 1117.98 1468.59 Q1116.15 1470.74 1116.15 1474.49 Q1116.15 1478.22 1117.98 1480.39 Q1119.83 1482.55 1122.98 1482.55 Q1126.12 1482.55 1127.95 1480.39 Q1129.81 1478.22 1129.81 1474.49 Q1129.81 1470.74 1127.95 1468.59 Q1126.12 1466.44 1122.98 1466.44 M1132.26 1451.78 L1132.26 1456.04 Q1130.5 1455.21 1128.69 1454.77 Q1126.91 1454.33 1125.15 1454.33 Q1120.52 1454.33 1118.07 1457.45 Q1115.64 1460.58 1115.29 1466.9 Q1116.66 1464.89 1118.72 1463.82 Q1120.78 1462.73 1123.25 1462.73 Q1128.46 1462.73 1131.47 1465.9 Q1134.5 1469.05 1134.5 1474.49 Q1134.5 1479.82 1131.36 1483.03 Q1128.21 1486.25 1122.98 1486.25 Q1116.98 1486.25 1113.81 1481.67 Q1110.64 1477.06 1110.64 1468.33 Q1110.64 1460.14 1114.53 1455.28 Q1118.42 1450.39 1124.97 1450.39 Q1126.73 1450.39 1128.51 1450.74 Q1130.31 1451.09 1132.26 1451.78 Z" fill="#000000" fill-rule="evenodd" fill-opacity="1" /><path clip-path="url(#clip400)" d="M1152.56 1454.1 Q1148.95 1454.1 1147.12 1457.66 Q1145.31 1461.2 1145.31 1468.33 Q1145.31 1475.44 1147.12 1479.01 Q1148.95 1482.55 1152.56 1482.55 Q1156.19 1482.55 1158 1479.01 Q1159.83 1475.44 1159.83 1468.33 Q1159.83 1461.2 1158 1457.66 Q1156.19 1454.1 1152.56 1454.1 M1152.56 1450.39 Q1158.37 1450.39 1161.43 1455 Q1164.5 1459.58 1164.5 1468.33 Q1164.5 1477.06 1161.43 1481.67 Q1158.37 1486.25 1152.56 1486.25 Q1146.75 1486.25 1143.67 1481.67 Q1140.62 1477.06 1140.62 1468.33 Q1140.62 1459.58 1143.67 1455 Q1146.75 1450.39 1152.56 1450.39 Z" fill="#000000" fill-rule="evenodd" fill-opacity="1" /><path clip-path="url(#clip400)" d="M1182.72 1454.1 Q1179.11 1454.1 1177.28 1457.66 Q1175.48 1461.2 1175.48 1468.33 Q1175.48 1475.44 1177.28 1479.01 Q1179.11 1482.55 1182.72 1482.55 Q1186.36 1482.55 1188.16 1479.01 Q1189.99 1475.44 1189.99 1468.33 Q1189.99 1461.2 1188.16 1457.66 Q1186.36 1454.1 1182.72 1454.1 M1182.72 1450.39 Q1188.53 1450.39 1191.59 1455 Q1194.67 1459.58 1194.67 1468.33 Q1194.67 1477.06 1191.59 1481.67 Q1188.53 1486.25 1182.72 1486.25 Q1176.91 1486.25 1173.83 1481.67 Q1170.78 1477.06 1170.78 1468.33 Q1170.78 1459.58 1173.83 1455 Q1176.91 1450.39 1182.72 1450.39 Z" fill="#000000" fill-rule="evenodd" fill-opacity="1" /><path clip-path="url(#clip400)" d="M1411.86 1451.02 L1434.08 1451.02 L1434.08 1453.01 L1421.53 1485.58 L1416.65 1485.58 L1428.45 1454.96 L1411.86 1454.96 L1411.86 1451.02 Z" fill="#000000" fill-rule="evenodd" fill-opacity="1" /><path clip-path="url(#clip400)" d="M1453.2 1454.1 Q1449.59 1454.1 1447.76 1457.66 Q1445.95 1461.2 1445.95 1468.33 Q1445.95 1475.44 1447.76 1479.01 Q1449.59 1482.55 1453.2 1482.55 Q1456.83 1482.55 1458.64 1479.01 Q1460.47 1475.44 1460.47 1468.33 Q1460.47 1461.2 1458.64 1457.66 Q1456.83 1454.1 1453.2 1454.1 M1453.2 1450.39 Q1459.01 1450.39 1462.06 1455 Q1465.14 1459.58 1465.14 1468.33 Q1465.14 1477.06 1462.06 1481.67 Q1459.01 1486.25 1453.2 1486.25 Q1447.39 1486.25 1444.31 1481.67 Q1441.25 1477.06 1441.25 1468.33 Q1441.25 1459.58 1444.31 1455 Q1447.39 1450.39 1453.2 1450.39 Z" fill="#000000" fill-rule="evenodd" fill-opacity="1" /><path clip-path="url(#clip400)" d="M1483.36 1454.1 Q1479.75 1454.1 1477.92 1457.66 Q1476.12 1461.2 1476.12 1468.33 Q1476.12 1475.44 1477.92 1479.01 Q1479.75 1482.55 1483.36 1482.55 Q1487 1482.55 1488.8 1479.01 Q1490.63 1475.44 1490.63 1468.33 Q1490.63 1461.2 1488.8 1457.66 Q1487 1454.1 1483.36 1454.1 M1483.36 1450.39 Q1489.17 1450.39 1492.23 1455 Q1495.31 1459.58 1495.31 1468.33 Q1495.31 1477.06 1492.23 1481.67 Q1489.17 1486.25 1483.36 1486.25 Q1477.55 1486.25 1474.47 1481.67 Q1471.42 1477.06 1471.42 1468.33 Q1471.42 1459.58 1474.47 1455 Q1477.55 1450.39 1483.36 1450.39 Z" fill="#000000" fill-rule="evenodd" fill-opacity="1" /><path clip-path="url(#clip400)" d="M1724.3 1469.17 Q1720.97 1469.17 1719.05 1470.95 Q1717.15 1472.73 1717.15 1475.86 Q1717.15 1478.98 1719.05 1480.77 Q1720.97 1482.55 1724.3 1482.55 Q1727.63 1482.55 1729.56 1480.77 Q1731.48 1478.96 1731.48 1475.86 Q1731.48 1472.73 1729.56 1470.95 Q1727.66 1469.17 1724.3 1469.17 M1719.63 1467.18 Q1716.62 1466.44 1714.93 1464.38 Q1713.26 1462.32 1713.26 1459.35 Q1713.26 1455.21 1716.2 1452.8 Q1719.16 1450.39 1724.3 1450.39 Q1729.46 1450.39 1732.4 1452.8 Q1735.34 1455.21 1735.34 1459.35 Q1735.34 1462.32 1733.65 1464.38 Q1731.99 1466.44 1729 1467.18 Q1732.38 1467.96 1734.26 1470.26 Q1736.15 1472.55 1736.15 1475.86 Q1736.15 1480.88 1733.07 1483.57 Q1730.02 1486.25 1724.3 1486.25 Q1718.58 1486.25 1715.51 1483.57 Q1712.45 1480.88 1712.45 1475.86 Q1712.45 1472.55 1714.35 1470.26 Q1716.25 1467.96 1719.63 1467.18 M1717.91 1459.79 Q1717.91 1462.48 1719.58 1463.98 Q1721.27 1465.49 1724.3 1465.49 Q1727.31 1465.49 1729 1463.98 Q1730.71 1462.48 1730.71 1459.79 Q1730.71 1457.11 1729 1455.6 Q1727.31 1454.1 1724.3 1454.1 Q1721.27 1454.1 1719.58 1455.6 Q1717.91 1457.11 1717.91 1459.79 Z" fill="#000000" fill-rule="evenodd" fill-opacity="1" /><path clip-path="url(#clip400)" d="M1754.46 1454.1 Q1750.85 1454.1 1749.02 1457.66 Q1747.22 1461.2 1747.22 1468.33 Q1747.22 1475.44 1749.02 1479.01 Q1750.85 1482.55 1754.46 1482.55 Q1758.1 1482.55 1759.9 1479.01 Q1761.73 1475.44 1761.73 1468.33 Q1761.73 1461.2 1759.9 1457.66 Q1758.1 1454.1 1754.46 1454.1 M1754.46 1450.39 Q1760.27 1450.39 1763.33 1455 Q1766.41 1459.58 1766.41 1468.33 Q1766.41 1477.06 1763.33 1481.67 Q1760.27 1486.25 1754.46 1486.25 Q1748.65 1486.25 1745.57 1481.67 Q1742.52 1477.06 1742.52 1468.33 Q1742.52 1459.58 1745.57 1455 Q1748.65 1450.39 1754.46 1450.39 Z" fill="#000000" fill-rule="evenodd" fill-opacity="1" /><path clip-path="url(#clip400)" d="M1784.63 1454.1 Q1781.01 1454.1 1779.19 1457.66 Q1777.38 1461.2 1777.38 1468.33 Q1777.38 1475.44 1779.19 1479.01 Q1781.01 1482.55 1784.63 1482.55 Q1788.26 1482.55 1790.07 1479.01 Q1791.89 1475.44 1791.89 1468.33 Q1791.89 1461.2 1790.07 1457.66 Q1788.26 1454.1 1784.63 1454.1 M1784.63 1450.39 Q1790.44 1450.39 1793.49 1455 Q1796.57 1459.58 1796.57 1468.33 Q1796.57 1477.06 1793.49 1481.67 Q1790.44 1486.25 1784.63 1486.25 Q1778.82 1486.25 1775.74 1481.67 Q1772.68 1477.06 1772.68 1468.33 Q1772.68 1459.58 1775.74 1455 Q1778.82 1450.39 1784.63 1450.39 Z" fill="#000000" fill-rule="evenodd" fill-opacity="1" /><path clip-path="url(#clip400)" d="M2015.48 1484.86 L2015.48 1480.6 Q2017.24 1481.44 2019.05 1481.88 Q2020.86 1482.32 2022.59 1482.32 Q2027.22 1482.32 2029.65 1479.21 Q2032.11 1476.09 2032.45 1469.75 Q2031.11 1471.74 2029.05 1472.8 Q2026.99 1473.87 2024.49 1473.87 Q2019.3 1473.87 2016.27 1470.74 Q2013.26 1467.59 2013.26 1462.15 Q2013.26 1456.83 2016.41 1453.61 Q2019.56 1450.39 2024.79 1450.39 Q2030.79 1450.39 2033.93 1455 Q2037.11 1459.58 2037.11 1468.33 Q2037.11 1476.51 2033.22 1481.39 Q2029.35 1486.25 2022.8 1486.25 Q2021.04 1486.25 2019.23 1485.9 Q2017.43 1485.56 2015.48 1484.86 M2024.79 1470.21 Q2027.94 1470.21 2029.77 1468.06 Q2031.62 1465.9 2031.62 1462.15 Q2031.62 1458.43 2029.77 1456.27 Q2027.94 1454.1 2024.79 1454.1 Q2021.64 1454.1 2019.79 1456.27 Q2017.96 1458.43 2017.96 1462.15 Q2017.96 1465.9 2019.79 1468.06 Q2021.64 1470.21 2024.79 1470.21 Z" fill="#000000" fill-rule="evenodd" fill-opacity="1" /><path clip-path="url(#clip400)" d="M2055.51 1454.1 Q2051.9 1454.1 2050.07 1457.66 Q2048.26 1461.2 2048.26 1468.33 Q2048.26 1475.44 2050.07 1479.01 Q2051.9 1482.55 2055.51 1482.55 Q2059.14 1482.55 2060.95 1479.01 Q2062.78 1475.44 2062.78 1468.33 Q2062.78 1461.2 2060.95 1457.66 Q2059.14 1454.1 2055.51 1454.1 M2055.51 1450.39 Q2061.32 1450.39 2064.37 1455 Q2067.45 1459.58 2067.45 1468.33 Q2067.45 1477.06 2064.37 1481.67 Q2061.32 1486.25 2055.51 1486.25 Q2049.7 1486.25 2046.62 1481.67 Q2043.56 1477.06 2043.56 1468.33 Q2043.56 1459.58 2046.62 1455 Q2049.7 1450.39 2055.51 1450.39 Z" fill="#000000" fill-rule="evenodd" fill-opacity="1" /><path clip-path="url(#clip400)" d="M2085.67 1454.1 Q2082.06 1454.1 2080.23 1457.66 Q2078.42 1461.2 2078.42 1468.33 Q2078.42 1475.44 2080.23 1479.01 Q2082.06 1482.55 2085.67 1482.55 Q2089.3 1482.55 2091.11 1479.01 Q2092.94 1475.44 2092.94 1468.33 Q2092.94 1461.2 2091.11 1457.66 Q2089.3 1454.1 2085.67 1454.1 M2085.67 1450.39 Q2091.48 1450.39 2094.54 1455 Q2097.61 1459.58 2097.61 1468.33 Q2097.61 1477.06 2094.54 1481.67 Q2091.48 1486.25 2085.67 1486.25 Q2079.86 1486.25 2076.78 1481.67 Q2073.73 1477.06 2073.73 1468.33 Q2073.73 1459.58 2076.78 1455 Q2079.86 1450.39 2085.67 1450.39 Z" fill="#000000" fill-rule="evenodd" fill-opacity="1" /><path clip-path="url(#clip400)" d="M1097.15 1520.52 L1103.65 1520.52 L1113.64 1560.69 L1123.6 1520.52 L1130.83 1520.52 L1140.82 1560.69 L1150.78 1520.52 L1157.31 1520.52 L1145.37 1568.04 L1137.29 1568.04 L1127.26 1526.79 L1117.14 1568.04 L1109.06 1568.04 L1097.15 1520.52 Z" fill="#000000" fill-rule="evenodd" fill-opacity="1" /><path clip-path="url(#clip400)" d="M1164.15 1532.4 L1170.01 1532.4 L1170.01 1568.04 L1164.15 1568.04 L1164.15 1532.4 M1164.15 1518.52 L1170.01 1518.52 L1170.01 1525.93 L1164.15 1525.93 L1164.15 1518.52 Z" fill="#000000" fill-rule="evenodd" fill-opacity="1" /><path clip-path="url(#clip400)" d="M1211.89 1546.53 L1211.89 1568.04 L1206.04 1568.04 L1206.04 1546.72 Q1206.04 1541.66 1204.06 1539.14 Q1202.09 1536.63 1198.14 1536.63 Q1193.4 1536.63 1190.66 1539.65 Q1187.93 1542.68 1187.93 1547.9 L1187.93 1568.04 L1182.04 1568.04 L1182.04 1532.4 L1187.93 1532.4 L1187.93 1537.93 Q1190.03 1534.72 1192.86 1533.13 Q1195.73 1531.54 1199.45 1531.54 Q1205.59 1531.54 1208.74 1535.36 Q1211.89 1539.14 1211.89 1546.53 Z" fill="#000000" fill-rule="evenodd" fill-opacity="1" /><path clip-path="url(#clip400)" d="M1247.03 1537.81 L1247.03 1518.52 L1252.89 1518.52 L1252.89 1568.04 L1247.03 1568.04 L1247.03 1562.7 Q1245.19 1565.88 1242.35 1567.44 Q1239.55 1568.97 1235.61 1568.97 Q1229.15 1568.97 1225.07 1563.81 Q1221.03 1558.65 1221.03 1550.25 Q1221.03 1541.85 1225.07 1536.69 Q1229.15 1531.54 1235.61 1531.54 Q1239.55 1531.54 1242.35 1533.1 Q1245.19 1534.62 1247.03 1537.81 M1227.08 1550.25 Q1227.08 1556.71 1229.72 1560.4 Q1232.39 1564.07 1237.04 1564.07 Q1241.69 1564.07 1244.36 1560.4 Q1247.03 1556.71 1247.03 1550.25 Q1247.03 1543.79 1244.36 1540.13 Q1241.69 1536.44 1237.04 1536.44 Q1232.39 1536.44 1229.72 1540.13 Q1227.08 1543.79 1227.08 1550.25 Z" fill="#000000" fill-rule="evenodd" fill-opacity="1" /><path clip-path="url(#clip400)" d="M1278.77 1536.5 Q1274.06 1536.5 1271.32 1540.19 Q1268.58 1543.85 1268.58 1550.25 Q1268.58 1556.65 1271.29 1560.34 Q1274.02 1564 1278.77 1564 Q1283.45 1564 1286.18 1560.31 Q1288.92 1556.62 1288.92 1550.25 Q1288.92 1543.92 1286.18 1540.23 Q1283.45 1536.5 1278.77 1536.5 M1278.77 1531.54 Q1286.41 1531.54 1290.77 1536.5 Q1295.13 1541.47 1295.13 1550.25 Q1295.13 1559 1290.77 1564 Q1286.41 1568.97 1278.77 1568.97 Q1271.1 1568.97 1266.74 1564 Q1262.41 1559 1262.41 1550.25 Q1262.41 1541.47 1266.74 1536.5 Q1271.1 1531.54 1278.77 1531.54 Z" fill="#000000" fill-rule="evenodd" fill-opacity="1" /><path clip-path="url(#clip400)" d="M1301.43 1532.4 L1307.28 1532.4 L1314.61 1560.21 L1321.89 1532.4 L1328.8 1532.4 L1336.12 1560.21 L1343.41 1532.4 L1349.27 1532.4 L1339.94 1568.04 L1333.03 1568.04 L1325.36 1538.83 L1317.66 1568.04 L1310.75 1568.04 L1301.43 1532.4 Z" fill="#000000" fill-rule="evenodd" fill-opacity="1" /><path clip-path="url(#clip400)" d="M1407.61 1522.08 L1407.61 1528.35 Q1403.95 1526.6 1400.7 1525.74 Q1397.45 1524.88 1394.43 1524.88 Q1389.18 1524.88 1386.31 1526.92 Q1383.48 1528.96 1383.48 1532.71 Q1383.48 1535.87 1385.36 1537.49 Q1387.27 1539.08 1392.55 1540.07 L1396.44 1540.86 Q1403.63 1542.23 1407.04 1545.7 Q1410.47 1549.14 1410.47 1554.93 Q1410.47 1561.84 1405.83 1565.4 Q1401.21 1568.97 1392.27 1568.97 Q1388.89 1568.97 1385.07 1568.2 Q1381.29 1567.44 1377.21 1565.94 L1377.21 1559.32 Q1381.13 1561.52 1384.88 1562.63 Q1388.64 1563.75 1392.27 1563.75 Q1397.77 1563.75 1400.77 1561.58 Q1403.76 1559.42 1403.76 1555.41 Q1403.76 1551.91 1401.59 1549.93 Q1399.46 1547.96 1394.56 1546.97 L1390.64 1546.21 Q1383.45 1544.78 1380.24 1541.72 Q1377.02 1538.67 1377.02 1533.22 Q1377.02 1526.92 1381.45 1523.29 Q1385.9 1519.66 1393.7 1519.66 Q1397.04 1519.66 1400.51 1520.27 Q1403.98 1520.87 1407.61 1522.08 Z" fill="#000000" fill-rule="evenodd" fill-opacity="1" /><path clip-path="url(#clip400)" d="M1420.24 1532.4 L1426.1 1532.4 L1426.1 1568.04 L1420.24 1568.04 L1420.24 1532.4 M1420.24 1518.52 L1426.1 1518.52 L1426.1 1525.93 L1420.24 1525.93 L1420.24 1518.52 Z" fill="#000000" fill-rule="evenodd" fill-opacity="1" /><path clip-path="url(#clip400)" d="M1435.81 1532.4 L1463.63 1532.4 L1463.63 1537.74 L1441.6 1563.37 L1463.63 1563.37 L1463.63 1568.04 L1435.01 1568.04 L1435.01 1562.7 L1457.04 1537.07 L1435.81 1537.07 L1435.81 1532.4 Z" fill="#000000" fill-rule="evenodd" fill-opacity="1" /><path clip-path="url(#clip400)" d="M1503.06 1548.76 L1503.06 1551.62 L1476.14 1551.62 Q1476.52 1557.67 1479.76 1560.85 Q1483.04 1564 1488.87 1564 Q1492.24 1564 1495.39 1563.17 Q1498.57 1562.35 1501.69 1560.69 L1501.69 1566.23 Q1498.54 1567.57 1495.23 1568.27 Q1491.92 1568.97 1488.52 1568.97 Q1479.99 1568.97 1474.99 1564 Q1470.02 1559.04 1470.02 1550.57 Q1470.02 1541.82 1474.73 1536.69 Q1479.48 1531.54 1487.5 1531.54 Q1494.69 1531.54 1498.86 1536.18 Q1503.06 1540.8 1503.06 1548.76 M1497.21 1547.04 Q1497.14 1542.23 1494.5 1539.37 Q1491.89 1536.5 1487.56 1536.5 Q1482.66 1536.5 1479.7 1539.27 Q1476.77 1542.04 1476.33 1547.07 L1497.21 1547.04 Z" fill="#000000" fill-rule="evenodd" fill-opacity="1" /><polyline clip-path="url(#clip402)" style="stroke:#000000; stroke-linecap:round; stroke-linejoin:round; stroke-width:2; stroke-opacity:0.1; fill:none" points="247.459,1421.06 2352.76,1421.06 "/>
<polyline clip-path="url(#clip402)" style="stroke:#000000; stroke-linecap:round; stroke-linejoin:round; stroke-width:2; stroke-opacity:0.1; fill:none" points="247.459,1109.13 2352.76,1109.13 "/>
<polyline clip-path="url(#clip402)" style="stroke:#000000; stroke-linecap:round; stroke-linejoin:round; stroke-width:2; stroke-opacity:0.1; fill:none" points="247.459,797.19 2352.76,797.19 "/>
<polyline clip-path="url(#clip402)" style="stroke:#000000; stroke-linecap:round; stroke-linejoin:round; stroke-width:2; stroke-opacity:0.1; fill:none" points="247.459,485.253 2352.76,485.253 "/>
<polyline clip-path="url(#clip402)" style="stroke:#000000; stroke-linecap:round; stroke-linejoin:round; stroke-width:2; stroke-opacity:0.1; fill:none" points="247.459,173.317 2352.76,173.317 "/>
<polyline clip-path="url(#clip400)" style="stroke:#000000; stroke-linecap:round; stroke-linejoin:round; stroke-width:4; stroke-opacity:1; fill:none" points="247.459,1423.18 247.459,47.2441 "/>
<polyline clip-path="url(#clip400)" style="stroke:#000000; stroke-linecap:round; stroke-linejoin:round; stroke-width:4; stroke-opacity:1; fill:none" points="247.459,1421.06 266.356,1421.06 "/>
<polyline clip-path="url(#clip400)" style="stroke:#000000; stroke-linecap:round; stroke-linejoin:round; stroke-width:4; stroke-opacity:1; fill:none" points="247.459,1109.13 266.356,1109.13 "/>
<polyline clip-path="url(#clip400)" style="stroke:#000000; stroke-linecap:round; stroke-linejoin:round; stroke-width:4; stroke-opacity:1; fill:none" points="247.459,797.19 266.356,797.19 "/>
<polyline clip-path="url(#clip400)" style="stroke:#000000; stroke-linecap:round; stroke-linejoin:round; stroke-width:4; stroke-opacity:1; fill:none" points="247.459,485.253 266.356,485.253 "/>
<polyline clip-path="url(#clip400)" style="stroke:#000000; stroke-linecap:round; stroke-linejoin:round; stroke-width:4; stroke-opacity:1; fill:none" points="247.459,173.317 266.356,173.317 "/>
<path clip-path="url(#clip400)" d="M154.283 1406.86 Q150.672 1406.86 148.843 1410.43 Q147.038 1413.97 147.038 1421.1 Q147.038 1428.21 148.843 1431.77 Q150.672 1435.31 154.283 1435.31 Q157.917 1435.31 159.723 1431.77 Q161.552 1428.21 161.552 1421.1 Q161.552 1413.97 159.723 1410.43 Q157.917 1406.86 154.283 1406.86 M154.283 1403.16 Q160.093 1403.16 163.149 1407.77 Q166.227 1412.35 166.227 1421.1 Q166.227 1429.83 163.149 1434.43 Q160.093 1439.02 154.283 1439.02 Q148.473 1439.02 145.394 1434.43 Q142.339 1429.83 142.339 1421.1 Q142.339 1412.35 145.394 1407.77 Q148.473 1403.16 154.283 1403.16 Z" fill="#000000" fill-rule="evenodd" fill-opacity="1" /><path clip-path="url(#clip400)" d="M174.445 1432.46 L179.329 1432.46 L179.329 1438.34 L174.445 1438.34 L174.445 1432.46 Z" fill="#000000" fill-rule="evenodd" fill-opacity="1" /><path clip-path="url(#clip400)" d="M199.514 1406.86 Q195.903 1406.86 194.075 1410.43 Q192.269 1413.97 192.269 1421.1 Q192.269 1428.21 194.075 1431.77 Q195.903 1435.31 199.514 1435.31 Q203.149 1435.31 204.954 1431.77 Q206.783 1428.21 206.783 1421.1 Q206.783 1413.97 204.954 1410.43 Q203.149 1406.86 199.514 1406.86 M199.514 1403.16 Q205.324 1403.16 208.38 1407.77 Q211.459 1412.35 211.459 1421.1 Q211.459 1429.83 208.38 1434.43 Q205.324 1439.02 199.514 1439.02 Q193.704 1439.02 190.625 1434.43 Q187.57 1429.83 187.57 1421.1 Q187.57 1412.35 190.625 1407.77 Q193.704 1403.16 199.514 1403.16 Z" fill="#000000" fill-rule="evenodd" fill-opacity="1" /><path clip-path="url(#clip400)" d="M149.306 1122.47 L165.626 1122.47 L165.626 1126.41 L143.681 1126.41 L143.681 1122.47 Q146.343 1119.72 150.927 1115.09 Q155.533 1110.44 156.714 1109.09 Q158.959 1106.57 159.839 1104.83 Q160.741 1103.07 160.741 1101.38 Q160.741 1098.63 158.797 1096.89 Q156.876 1095.16 153.774 1095.16 Q151.575 1095.16 149.121 1095.92 Q146.691 1096.69 143.913 1098.24 L143.913 1093.51 Q146.737 1092.38 149.191 1091.8 Q151.644 1091.22 153.681 1091.22 Q159.052 1091.22 162.246 1093.91 Q165.44 1096.59 165.44 1101.08 Q165.44 1103.21 164.63 1105.13 Q163.843 1107.03 161.737 1109.62 Q161.158 1110.3 158.056 1113.51 Q154.954 1116.71 149.306 1122.47 Z" fill="#000000" fill-rule="evenodd" fill-opacity="1" /><path clip-path="url(#clip400)" d="M175.44 1120.53 L180.325 1120.53 L180.325 1126.41 L175.44 1126.41 L175.44 1120.53 Z" fill="#000000" fill-rule="evenodd" fill-opacity="1" /><path clip-path="url(#clip400)" d="M190.556 1091.85 L208.912 1091.85 L208.912 1095.78 L194.838 1095.78 L194.838 1104.25 Q195.857 1103.91 196.875 1103.75 Q197.894 1103.56 198.912 1103.56 Q204.699 1103.56 208.079 1106.73 Q211.459 1109.9 211.459 1115.32 Q211.459 1120.9 207.987 1124 Q204.514 1127.08 198.195 1127.08 Q196.019 1127.08 193.75 1126.71 Q191.505 1126.34 189.098 1125.6 L189.098 1120.9 Q191.181 1122.03 193.403 1122.59 Q195.625 1123.14 198.102 1123.14 Q202.107 1123.14 204.445 1121.04 Q206.783 1118.93 206.783 1115.32 Q206.783 1111.71 204.445 1109.6 Q202.107 1107.5 198.102 1107.5 Q196.227 1107.5 194.352 1107.91 Q192.5 1108.33 190.556 1109.21 L190.556 1091.85 Z" fill="#000000" fill-rule="evenodd" fill-opacity="1" /><path clip-path="url(#clip400)" d="M144.329 779.91 L162.686 779.91 L162.686 783.846 L148.612 783.846 L148.612 792.318 Q149.63 791.97 150.649 791.808 Q151.667 791.623 152.686 791.623 Q158.473 791.623 161.852 794.795 Q165.232 797.966 165.232 803.382 Q165.232 808.961 161.76 812.063 Q158.288 815.142 151.968 815.142 Q149.792 815.142 147.524 814.771 Q145.279 814.401 142.871 813.66 L142.871 808.961 Q144.954 810.095 147.177 810.651 Q149.399 811.207 151.876 811.207 Q155.88 811.207 158.218 809.1 Q160.556 806.994 160.556 803.382 Q160.556 799.771 158.218 797.665 Q155.88 795.558 151.876 795.558 Q150.001 795.558 148.126 795.975 Q146.274 796.392 144.329 797.271 L144.329 779.91 Z" fill="#000000" fill-rule="evenodd" fill-opacity="1" /><path clip-path="url(#clip400)" d="M174.445 808.591 L179.329 808.591 L179.329 814.47 L174.445 814.47 L174.445 808.591 Z" fill="#000000" fill-rule="evenodd" fill-opacity="1" /><path clip-path="url(#clip400)" d="M199.514 782.989 Q195.903 782.989 194.075 786.554 Q192.269 790.096 192.269 797.225 Q192.269 804.332 194.075 807.896 Q195.903 811.438 199.514 811.438 Q203.149 811.438 204.954 807.896 Q206.783 804.332 206.783 797.225 Q206.783 790.096 204.954 786.554 Q203.149 782.989 199.514 782.989 M199.514 779.285 Q205.324 779.285 208.38 783.892 Q211.459 788.475 211.459 797.225 Q211.459 805.952 208.38 810.558 Q205.324 815.142 199.514 815.142 Q193.704 815.142 190.625 810.558 Q187.57 805.952 187.57 797.225 Q187.57 788.475 190.625 783.892 Q193.704 779.285 199.514 779.285 Z" fill="#000000" fill-rule="evenodd" fill-opacity="1" /><path clip-path="url(#clip400)" d="M144.098 467.973 L166.32 467.973 L166.32 469.964 L153.774 502.533 L148.89 502.533 L160.695 471.909 L144.098 471.909 L144.098 467.973 Z" fill="#000000" fill-rule="evenodd" fill-opacity="1" /><path clip-path="url(#clip400)" d="M175.44 496.654 L180.325 496.654 L180.325 502.533 L175.44 502.533 L175.44 496.654 Z" fill="#000000" fill-rule="evenodd" fill-opacity="1" /><path clip-path="url(#clip400)" d="M190.556 467.973 L208.912 467.973 L208.912 471.909 L194.838 471.909 L194.838 480.381 Q195.857 480.034 196.875 479.872 Q197.894 479.686 198.912 479.686 Q204.699 479.686 208.079 482.858 Q211.459 486.029 211.459 491.446 Q211.459 497.024 207.987 500.126 Q204.514 503.205 198.195 503.205 Q196.019 503.205 193.75 502.834 Q191.505 502.464 189.098 501.723 L189.098 497.024 Q191.181 498.158 193.403 498.714 Q195.625 499.27 198.102 499.27 Q202.107 499.27 204.445 497.163 Q206.783 495.057 206.783 491.446 Q206.783 487.834 204.445 485.728 Q202.107 483.622 198.102 483.622 Q196.227 483.622 194.352 484.038 Q192.5 484.455 190.556 485.334 L190.556 467.973 Z" fill="#000000" fill-rule="evenodd" fill-opacity="1" /><path clip-path="url(#clip400)" d="M114.931 186.661 L122.57 186.661 L122.57 160.296 L114.26 161.962 L114.26 157.703 L122.524 156.037 L127.2 156.037 L127.2 186.661 L134.839 186.661 L134.839 190.597 L114.931 190.597 L114.931 186.661 Z" fill="#000000" fill-rule="evenodd" fill-opacity="1" /><path clip-path="url(#clip400)" d="M154.283 159.115 Q150.672 159.115 148.843 162.68 Q147.038 166.222 147.038 173.351 Q147.038 180.458 148.843 184.022 Q150.672 187.564 154.283 187.564 Q157.917 187.564 159.723 184.022 Q161.552 180.458 161.552 173.351 Q161.552 166.222 159.723 162.68 Q157.917 159.115 154.283 159.115 M154.283 155.412 Q160.093 155.412 163.149 160.018 Q166.227 164.601 166.227 173.351 Q166.227 182.078 163.149 186.685 Q160.093 191.268 154.283 191.268 Q148.473 191.268 145.394 186.685 Q142.339 182.078 142.339 173.351 Q142.339 164.601 145.394 160.018 Q148.473 155.412 154.283 155.412 Z" fill="#000000" fill-rule="evenodd" fill-opacity="1" /><path clip-path="url(#clip400)" d="M174.445 184.717 L179.329 184.717 L179.329 190.597 L174.445 190.597 L174.445 184.717 Z" fill="#000000" fill-rule="evenodd" fill-opacity="1" /><path clip-path="url(#clip400)" d="M199.514 159.115 Q195.903 159.115 194.075 162.68 Q192.269 166.222 192.269 173.351 Q192.269 180.458 194.075 184.022 Q195.903 187.564 199.514 187.564 Q203.149 187.564 204.954 184.022 Q206.783 180.458 206.783 173.351 Q206.783 166.222 204.954 162.68 Q203.149 159.115 199.514 159.115 M199.514 155.412 Q205.324 155.412 208.38 160.018 Q211.459 164.601 211.459 173.351 Q211.459 182.078 208.38 186.685 Q205.324 191.268 199.514 191.268 Q193.704 191.268 190.625 186.685 Q187.57 182.078 187.57 173.351 Q187.57 164.601 190.625 160.018 Q193.704 155.412 199.514 155.412 Z" fill="#000000" fill-rule="evenodd" fill-opacity="1" /><path clip-path="url(#clip400)" d="M18.0438 1014.24 L24.314 1014.24 Q22.5634 1017.9 21.704 1021.14 Q20.8447 1024.39 20.8447 1027.41 Q20.8447 1032.67 22.8817 1035.53 Q24.9187 1038.36 28.6745 1038.36 Q31.8255 1038.36 33.4488 1036.48 Q35.0402 1034.58 36.0269 1029.29 L36.8226 1025.41 Q38.1912 1018.22 41.6605 1014.81 Q45.098 1011.37 50.8908 1011.37 Q57.7976 1011.37 61.3624 1016.02 Q64.9272 1020.63 64.9272 1029.58 Q64.9272 1032.95 64.1633 1036.77 Q63.3994 1040.56 61.9035 1044.63 L55.2831 1044.63 Q57.4793 1040.72 58.5933 1036.96 Q59.7073 1033.21 59.7073 1029.58 Q59.7073 1024.07 57.543 1021.08 Q55.3786 1018.09 51.3682 1018.09 Q47.8671 1018.09 45.8937 1020.25 Q43.9204 1022.38 42.9337 1027.29 L42.1698 1031.2 Q40.7375 1038.39 37.682 1041.61 Q34.6264 1044.82 29.1837 1044.82 Q22.8817 1044.82 19.2532 1040.4 Q15.6248 1035.94 15.6248 1028.15 Q15.6248 1024.8 16.2295 1021.33 Q16.8343 1017.87 18.0438 1014.24 Z" fill="#000000" fill-rule="evenodd" fill-opacity="1" /><path clip-path="url(#clip400)" d="M18.2347 995.808 L28.3562 995.808 L28.3562 983.745 L32.9077 983.745 L32.9077 995.808 L52.2594 995.808 Q56.6199 995.808 57.8613 994.63 Q59.1026 993.421 59.1026 989.761 L59.1026 983.745 L64.0042 983.745 L64.0042 989.761 Q64.0042 996.54 61.4897 999.118 Q58.9434 1001.7 52.2594 1001.7 L32.9077 1001.7 L32.9077 1005.99 L28.3562 1005.99 L28.3562 1001.7 L18.2347 1001.7 L18.2347 995.808 Z" fill="#000000" fill-rule="evenodd" fill-opacity="1" /><path clip-path="url(#clip400)" d="M46.0847 959.842 Q46.0847 966.94 47.7079 969.677 Q49.3312 972.414 53.2461 972.414 Q56.3653 972.414 58.2114 970.377 Q60.0256 968.308 60.0256 964.775 Q60.0256 959.905 56.5881 956.977 Q53.1188 954.017 47.3897 954.017 L46.0847 954.017 L46.0847 959.842 M43.6657 948.161 L64.0042 948.161 L64.0042 954.017 L58.5933 954.017 Q61.8398 956.022 63.3994 959.014 Q64.9272 962.006 64.9272 966.335 Q64.9272 971.809 61.8716 975.056 Q58.7843 978.271 53.6281 978.271 Q47.6125 978.271 44.5569 974.26 Q41.5014 970.218 41.5014 962.229 L41.5014 954.017 L40.9285 954.017 Q36.8862 954.017 34.6901 956.691 Q32.4621 959.333 32.4621 964.139 Q32.4621 967.194 33.1941 970.091 Q33.9262 972.987 35.3903 975.661 L29.9795 975.661 Q28.7381 972.446 28.1334 969.422 Q27.4968 966.399 27.4968 963.534 Q27.4968 955.8 31.5072 951.98 Q35.5176 948.161 43.6657 948.161 Z" fill="#000000" fill-rule="evenodd" fill-opacity="1" /><path clip-path="url(#clip400)" d="M42.4881 906.465 L64.0042 906.465 L64.0042 912.322 L42.679 912.322 Q37.6183 912.322 35.1038 914.295 Q32.5894 916.269 32.5894 920.215 Q32.5894 924.958 35.6131 927.695 Q38.6368 930.432 43.8567 930.432 L64.0042 930.432 L64.0042 936.321 L28.3562 936.321 L28.3562 930.432 L33.8944 930.432 Q30.6797 928.332 29.0883 925.499 Q27.4968 922.634 27.4968 918.91 Q27.4968 912.767 31.3163 909.616 Q35.1038 906.465 42.4881 906.465 Z" fill="#000000" fill-rule="evenodd" fill-opacity="1" /><path clip-path="url(#clip400)" d="M33.7671 871.327 L14.479 871.327 L14.479 865.47 L64.0042 865.47 L64.0042 871.327 L58.657 871.327 Q61.8398 873.173 63.3994 876.005 Q64.9272 878.806 64.9272 882.753 Q64.9272 889.214 59.771 893.288 Q54.6147 897.331 46.212 897.331 Q37.8093 897.331 32.6531 893.288 Q27.4968 889.214 27.4968 882.753 Q27.4968 878.806 29.0564 876.005 Q30.5842 873.173 33.7671 871.327 M46.212 891.283 Q52.6732 891.283 56.3653 888.641 Q60.0256 885.968 60.0256 881.321 Q60.0256 876.674 56.3653 874 Q52.6732 871.327 46.212 871.327 Q39.7508 871.327 36.0905 874 Q32.3984 876.674 32.3984 881.321 Q32.3984 885.968 36.0905 888.641 Q39.7508 891.283 46.212 891.283 Z" fill="#000000" fill-rule="evenodd" fill-opacity="1" /><path clip-path="url(#clip400)" d="M46.0847 837.207 Q46.0847 844.304 47.7079 847.042 Q49.3312 849.779 53.2461 849.779 Q56.3653 849.779 58.2114 847.742 Q60.0256 845.673 60.0256 842.14 Q60.0256 837.27 56.5881 834.342 Q53.1188 831.382 47.3897 831.382 L46.0847 831.382 L46.0847 837.207 M43.6657 825.525 L64.0042 825.525 L64.0042 831.382 L58.5933 831.382 Q61.8398 833.387 63.3994 836.379 Q64.9272 839.371 64.9272 843.7 Q64.9272 849.174 61.8716 852.421 Q58.7843 855.635 53.6281 855.635 Q47.6125 855.635 44.5569 851.625 Q41.5014 847.583 41.5014 839.594 L41.5014 831.382 L40.9285 831.382 Q36.8862 831.382 34.6901 834.055 Q32.4621 836.697 32.4621 841.503 Q32.4621 844.559 33.1941 847.455 Q33.9262 850.352 35.3903 853.025 L29.9795 853.025 Q28.7381 849.811 28.1334 846.787 Q27.4968 843.763 27.4968 840.899 Q27.4968 833.164 31.5072 829.345 Q35.5176 825.525 43.6657 825.525 Z" fill="#000000" fill-rule="evenodd" fill-opacity="1" /><path clip-path="url(#clip400)" d="M33.8307 792.806 Q33.2578 793.792 33.0032 794.97 Q32.7167 796.116 32.7167 797.516 Q32.7167 802.482 35.9632 805.155 Q39.1779 807.797 45.2253 807.797 L64.0042 807.797 L64.0042 813.685 L28.3562 813.685 L28.3562 807.797 L33.8944 807.797 Q30.6479 805.951 29.0883 802.991 Q27.4968 800.031 27.4968 795.798 Q27.4968 795.193 27.5923 794.461 Q27.656 793.729 27.8151 792.838 L33.8307 792.806 Z" fill="#000000" fill-rule="evenodd" fill-opacity="1" /><path clip-path="url(#clip400)" d="M33.7671 764.351 L14.479 764.351 L14.479 758.495 L64.0042 758.495 L64.0042 764.351 L58.657 764.351 Q61.8398 766.197 63.3994 769.03 Q64.9272 771.831 64.9272 775.777 Q64.9272 782.239 59.771 786.313 Q54.6147 790.355 46.212 790.355 Q37.8093 790.355 32.6531 786.313 Q27.4968 782.239 27.4968 775.777 Q27.4968 771.831 29.0564 769.03 Q30.5842 766.197 33.7671 764.351 M46.212 784.307 Q52.6732 784.307 56.3653 781.666 Q60.0256 778.992 60.0256 774.345 Q60.0256 769.698 56.3653 767.025 Q52.6732 764.351 46.212 764.351 Q39.7508 764.351 36.0905 767.025 Q32.3984 769.698 32.3984 774.345 Q32.3984 778.992 36.0905 781.666 Q39.7508 784.307 46.212 784.307 Z" fill="#000000" fill-rule="evenodd" fill-opacity="1" /><path clip-path="url(#clip400)" d="M21.7677 719.027 L58.7206 719.027 L58.7206 711.261 Q58.7206 701.426 54.2646 696.875 Q49.8086 692.291 40.1964 692.291 Q30.6479 692.291 26.2237 696.875 Q21.7677 701.426 21.7677 711.261 L21.7677 719.027 M16.4842 725.457 L16.4842 712.248 Q16.4842 698.434 22.2451 691.973 Q27.9743 685.512 40.1964 685.512 Q52.4822 685.512 58.2432 692.005 Q64.0042 698.498 64.0042 712.248 L64.0042 725.457 L16.4842 725.457 Z" fill="#000000" fill-rule="evenodd" fill-opacity="1" /><path clip-path="url(#clip400)" d="M44.7161 645.026 L47.5806 645.026 L47.5806 671.953 Q53.6281 671.571 56.8109 668.324 Q59.9619 665.046 59.9619 659.221 Q59.9619 655.848 59.1344 652.696 Q58.3069 649.514 56.6518 646.394 L62.1899 646.394 Q63.5267 649.545 64.227 652.856 Q64.9272 656.166 64.9272 659.571 Q64.9272 668.102 59.9619 673.099 Q54.9967 678.064 46.5303 678.064 Q37.7774 678.064 32.6531 673.353 Q27.4968 668.611 27.4968 660.59 Q27.4968 653.397 32.1438 649.227 Q36.7589 645.026 44.7161 645.026 M42.9973 650.882 Q38.1912 650.946 35.3266 653.588 Q32.4621 656.198 32.4621 660.526 Q32.4621 665.428 35.2312 668.388 Q38.0002 671.316 43.0292 671.762 L42.9973 650.882 Z" fill="#000000" fill-rule="evenodd" fill-opacity="1" /><path clip-path="url(#clip400)" d="M28.3562 639.615 L28.3562 633.408 L58.275 622.268 L28.3562 611.128 L28.3562 604.922 L64.0042 618.29 L64.0042 626.247 L28.3562 639.615 Z" fill="#000000" fill-rule="evenodd" fill-opacity="1" /><path clip-path="url(#clip400)" d="M28.3562 596.837 L28.3562 590.981 L64.0042 590.981 L64.0042 596.837 L28.3562 596.837 M14.479 596.837 L14.479 590.981 L21.895 590.981 L21.895 596.837 L14.479 596.837 Z" fill="#000000" fill-rule="evenodd" fill-opacity="1" /><path clip-path="url(#clip400)" d="M46.0847 562.526 Q46.0847 569.624 47.7079 572.361 Q49.3312 575.099 53.2461 575.099 Q56.3653 575.099 58.2114 573.062 Q60.0256 570.993 60.0256 567.46 Q60.0256 562.59 56.5881 559.662 Q53.1188 556.702 47.3897 556.702 L46.0847 556.702 L46.0847 562.526 M43.6657 550.845 L64.0042 550.845 L64.0042 556.702 L58.5933 556.702 Q61.8398 558.707 63.3994 561.699 Q64.9272 564.691 64.9272 569.019 Q64.9272 574.494 61.8716 577.74 Q58.7843 580.955 53.6281 580.955 Q47.6125 580.955 44.5569 576.945 Q41.5014 572.902 41.5014 564.913 L41.5014 556.702 L40.9285 556.702 Q36.8862 556.702 34.6901 559.375 Q32.4621 562.017 32.4621 566.823 Q32.4621 569.879 33.1941 572.775 Q33.9262 575.671 35.3903 578.345 L29.9795 578.345 Q28.7381 575.13 28.1334 572.107 Q27.4968 569.083 27.4968 566.218 Q27.4968 558.484 31.5072 554.665 Q35.5176 550.845 43.6657 550.845 Z" fill="#000000" fill-rule="evenodd" fill-opacity="1" /><path clip-path="url(#clip400)" d="M18.2347 532.989 L28.3562 532.989 L28.3562 520.926 L32.9077 520.926 L32.9077 532.989 L52.2594 532.989 Q56.6199 532.989 57.8613 531.812 Q59.1026 530.602 59.1026 526.942 L59.1026 520.926 L64.0042 520.926 L64.0042 526.942 Q64.0042 533.721 61.4897 536.3 Q58.9434 538.878 52.2594 538.878 L32.9077 538.878 L32.9077 543.175 L28.3562 543.175 L28.3562 538.878 L18.2347 538.878 L18.2347 532.989 Z" fill="#000000" fill-rule="evenodd" fill-opacity="1" /><path clip-path="url(#clip400)" d="M28.3562 513.224 L28.3562 507.367 L64.0042 507.367 L64.0042 513.224 L28.3562 513.224 M14.479 513.224 L14.479 507.367 L21.895 507.367 L21.895 513.224 L14.479 513.224 Z" fill="#000000" fill-rule="evenodd" fill-opacity="1" /><path clip-path="url(#clip400)" d="M32.4621 481.3 Q32.4621 486.01 36.1542 488.748 Q39.8145 491.485 46.212 491.485 Q52.6095 491.485 56.3017 488.78 Q59.9619 486.042 59.9619 481.3 Q59.9619 476.621 56.2698 473.884 Q52.5777 471.147 46.212 471.147 Q39.8781 471.147 36.186 473.884 Q32.4621 476.621 32.4621 481.3 M27.4968 481.3 Q27.4968 473.661 32.4621 469.3 Q37.4273 464.94 46.212 464.94 Q54.9649 464.94 59.9619 469.3 Q64.9272 473.661 64.9272 481.3 Q64.9272 488.971 59.9619 493.331 Q54.9649 497.66 46.212 497.66 Q37.4273 497.66 32.4621 493.331 Q27.4968 488.971 27.4968 481.3 Z" fill="#000000" fill-rule="evenodd" fill-opacity="1" /><path clip-path="url(#clip400)" d="M42.4881 425.6 L64.0042 425.6 L64.0042 431.456 L42.679 431.456 Q37.6183 431.456 35.1038 433.43 Q32.5894 435.403 32.5894 439.35 Q32.5894 444.092 35.6131 446.83 Q38.6368 449.567 43.8567 449.567 L64.0042 449.567 L64.0042 455.455 L28.3562 455.455 L28.3562 449.567 L33.8944 449.567 Q30.6797 447.466 29.0883 444.633 Q27.4968 441.769 27.4968 438.045 Q27.4968 431.902 31.3163 428.751 Q35.1038 425.6 42.4881 425.6 Z" fill="#000000" fill-rule="evenodd" fill-opacity="1" /><polyline clip-path="url(#clip402)" style="stroke:#009af9; stroke-linecap:round; stroke-linejoin:round; stroke-width:4; stroke-opacity:1; fill:none" points="307.043,1368 373.247,1368.43 439.451,1368.78 505.656,1369.03 571.86,1369.25 638.064,1369.43 704.268,1369.62 770.473,1369.8 836.677,1369.98 902.881,1370.19 969.086,1370.39 1035.29,1370.65 1101.49,1370.93 1167.7,1371.23 1233.9,1371.57 1300.11,1371.94 1366.31,1372.35 1432.52,1372.81 1498.72,1373.32 1564.92,1373.88 1631.13,1374.5 1697.33,1375.17 1763.54,1375.91 1829.74,1376.71 1895.95,1377.57 1962.15,1378.5 2028.35,1379.5 2094.56,1380.56 2160.76,1381.68 2226.97,1382.86 2293.17,1384.1 "/>
<polyline clip-path="url(#clip402)" style="stroke:#e26f46; stroke-linecap:round; stroke-linejoin:round; stroke-width:4; stroke-opacity:1; fill:none" points="307.043,1333.59 373.247,1339 439.451,1344.04 505.656,1348.2 571.86,1351.11 638.064,1353.44 704.268,1354.6 770.473,1355.87 836.677,1356.67 902.881,1357.61 969.086,1358.37 1035.29,1028 1101.49,1057.44 1167.7,1083.66 1233.9,1107.13 1300.11,1128.21 1366.31,1147.21 1432.52,1164.38 1498.72,1179.95 1564.92,1194.11 1631.13,1207.02 1697.33,1218.82 1763.54,1229.62 1829.74,1239.53 1895.95,1248.66 1962.15,1257.07 2028.35,1264.86 2094.56,1272.08 2160.76,1278.79 2226.97,1285.03 2293.17,1290.86 "/>
<polyline clip-path="url(#clip402)" style="stroke:#3da44d; stroke-linecap:round; stroke-linejoin:round; stroke-width:4; stroke-opacity:1; fill:none" points="307.043,1265.63 373.247,1291.41 439.451,1310 505.656,1321.91 571.86,1330.09 638.064,1335.53 704.268,1339.72 770.473,1342.83 836.677,1345.35 902.881,1347.48 969.086,1349.24 1035.29,1351.02 1101.49,1352.68 1167.7,1354.28 1233.9,1355.86 1300.11,1357.39 1366.31,1358.93 1432.52,1360.5 1498.72,1362.1 1564.92,1363.72 1631.13,1365.4 1697.33,1367.13 1763.54,1368.9 1829.74,1370.72 1895.95,1372.58 1962.15,1374.47 2028.35,1376.39 2094.56,1378.34 2160.76,1380.3 2226.97,1382.26 2293.17,1384.24 "/>
<polyline clip-path="url(#clip402)" style="stroke:#c271d2; stroke-linecap:round; stroke-linejoin:round; stroke-width:4; stroke-opacity:1; fill:none" points="307.043,636.166 373.247,804.397 439.451,945.627 505.656,1057.46 571.86,1136.58 638.064,1194.12 704.268,1231.3 770.473,1259.76 836.677,1279.01 902.881,1294.53 969.086,1306.24 1035.29,86.1857 1101.49,278.304 1167.7,437.166 1233.9,569.502 1300.11,680.419 1366.31,773.915 1432.52,853.138 1498.72,920.601 1564.92,978.316 1631.13,1027.91 1697.33,1070.66 1763.54,1107.65 1829.74,1139.77 1895.95,1167.79 1962.15,1192.29 2028.35,1213.8 2094.56,1232.75 2160.76,1249.49 2226.97,1264.34 2293.17,1277.54 "/>
<path clip-path="url(#clip400)" d="M1654.99 352.309 L2282.58 352.309 L2282.58 93.1086 L1654.99 93.1086  Z" fill="#ffffff" fill-rule="evenodd" fill-opacity="1"/>
<polyline clip-path="url(#clip400)" style="stroke:#000000; stroke-linecap:round; stroke-linejoin:round; stroke-width:4; stroke-opacity:1; fill:none" points="1654.99,352.309 2282.58,352.309 2282.58,93.1086 1654.99,93.1086 1654.99,352.309 "/>
<polyline clip-path="url(#clip400)" style="stroke:#009af9; stroke-linecap:round; stroke-linejoin:round; stroke-width:4; stroke-opacity:1; fill:none" points="1678.38,144.949 1818.74,144.949 "/>
<path clip-path="url(#clip400)" d="M1858.63 126.21 L1858.63 129.752 L1854.56 129.752 Q1852.27 129.752 1851.37 130.678 Q1850.49 131.604 1850.49 134.011 L1850.49 136.303 L1857.5 136.303 L1857.5 139.613 L1850.49 139.613 L1850.49 162.229 L1846.2 162.229 L1846.2 139.613 L1842.13 139.613 L1842.13 136.303 L1846.2 136.303 L1846.2 134.497 Q1846.2 130.169 1848.22 128.201 Q1850.23 126.21 1854.61 126.21 L1858.63 126.21 Z" fill="#000000" fill-rule="evenodd" fill-opacity="1" /><path clip-path="url(#clip400)" d="M1862.2 136.303 L1866.46 136.303 L1866.46 162.229 L1862.2 162.229 L1862.2 136.303 M1862.2 126.21 L1866.46 126.21 L1866.46 131.604 L1862.2 131.604 L1862.2 126.21 Z" fill="#000000" fill-rule="evenodd" fill-opacity="1" /><path clip-path="url(#clip400)" d="M1890.39 140.284 Q1889.68 139.868 1888.82 139.682 Q1887.99 139.474 1886.97 139.474 Q1883.36 139.474 1881.41 141.835 Q1879.49 144.173 1879.49 148.571 L1879.49 162.229 L1875.21 162.229 L1875.21 136.303 L1879.49 136.303 L1879.49 140.331 Q1880.83 137.969 1882.99 136.835 Q1885.14 135.678 1888.22 135.678 Q1888.66 135.678 1889.19 135.747 Q1889.72 135.794 1890.37 135.909 L1890.39 140.284 Z" fill="#000000" fill-rule="evenodd" fill-opacity="1" /><path clip-path="url(#clip400)" d="M1911.39 137.067 L1911.39 141.094 Q1909.58 140.169 1907.64 139.706 Q1905.69 139.243 1903.61 139.243 Q1900.44 139.243 1898.84 140.215 Q1897.27 141.187 1897.27 143.131 Q1897.27 144.613 1898.4 145.469 Q1899.54 146.303 1902.96 147.067 L1904.42 147.391 Q1908.96 148.363 1910.86 150.145 Q1912.78 151.905 1912.78 155.076 Q1912.78 158.687 1909.91 160.793 Q1907.06 162.9 1902.06 162.9 Q1899.98 162.9 1897.71 162.483 Q1895.46 162.09 1892.96 161.28 L1892.96 156.881 Q1895.32 158.108 1897.62 158.733 Q1899.91 159.335 1902.15 159.335 Q1905.16 159.335 1906.78 158.317 Q1908.4 157.275 1908.4 155.4 Q1908.4 153.664 1907.22 152.738 Q1906.06 151.812 1902.11 150.956 L1900.62 150.608 Q1896.67 149.775 1894.91 148.062 Q1893.15 146.326 1893.15 143.317 Q1893.15 139.659 1895.74 137.669 Q1898.33 135.678 1903.1 135.678 Q1905.46 135.678 1907.55 136.025 Q1909.63 136.372 1911.39 137.067 Z" fill="#000000" fill-rule="evenodd" fill-opacity="1" /><path clip-path="url(#clip400)" d="M1923.77 128.942 L1923.77 136.303 L1932.55 136.303 L1932.55 139.613 L1923.77 139.613 L1923.77 153.687 Q1923.77 156.858 1924.63 157.761 Q1925.51 158.664 1928.17 158.664 L1932.55 158.664 L1932.55 162.229 L1928.17 162.229 Q1923.24 162.229 1921.36 160.4 Q1919.49 158.548 1919.49 153.687 L1919.49 139.613 L1916.36 139.613 L1916.36 136.303 L1919.49 136.303 L1919.49 128.942 L1923.77 128.942 Z" fill="#000000" fill-rule="evenodd" fill-opacity="1" /><path clip-path="url(#clip400)" d="M1970.28 140.238 L1970.28 126.21 L1974.54 126.21 L1974.54 162.229 L1970.28 162.229 L1970.28 158.34 Q1968.93 160.655 1966.87 161.789 Q1964.84 162.9 1961.97 162.9 Q1957.27 162.9 1954.3 159.15 Q1951.36 155.4 1951.36 149.289 Q1951.36 143.178 1954.3 139.428 Q1957.27 135.678 1961.97 135.678 Q1964.84 135.678 1966.87 136.812 Q1968.93 137.923 1970.28 140.238 M1955.76 149.289 Q1955.76 153.988 1957.68 156.673 Q1959.63 159.335 1963.01 159.335 Q1966.39 159.335 1968.33 156.673 Q1970.28 153.988 1970.28 149.289 Q1970.28 144.59 1968.33 141.928 Q1966.39 139.243 1963.01 139.243 Q1959.63 139.243 1957.68 141.928 Q1955.76 144.59 1955.76 149.289 Z" fill="#000000" fill-rule="evenodd" fill-opacity="1" /><path clip-path="url(#clip400)" d="M2005.48 148.201 L2005.48 150.284 L1985.9 150.284 Q1986.18 154.682 1988.54 156.997 Q1990.92 159.289 1995.16 159.289 Q1997.61 159.289 1999.91 158.687 Q2002.22 158.085 2004.49 156.881 L2004.49 160.909 Q2002.2 161.881 1999.79 162.391 Q1997.38 162.9 1994.91 162.9 Q1988.7 162.9 1985.07 159.289 Q1981.46 155.678 1981.46 149.52 Q1981.46 143.155 1984.88 139.428 Q1988.33 135.678 1994.17 135.678 Q1999.4 135.678 2002.43 139.057 Q2005.48 142.414 2005.48 148.201 M2001.23 146.951 Q2001.18 143.456 1999.26 141.372 Q1997.36 139.289 1994.21 139.289 Q1990.65 139.289 1988.49 141.303 Q1986.36 143.317 1986.04 146.974 L2001.23 146.951 Z" fill="#000000" fill-rule="evenodd" fill-opacity="1" /><path clip-path="url(#clip400)" d="M2027.5 140.284 Q2026.78 139.868 2025.92 139.682 Q2025.09 139.474 2024.07 139.474 Q2020.46 139.474 2018.52 141.835 Q2016.6 144.173 2016.6 148.571 L2016.6 162.229 L2012.31 162.229 L2012.31 136.303 L2016.6 136.303 L2016.6 140.331 Q2017.94 137.969 2020.09 136.835 Q2022.24 135.678 2025.32 135.678 Q2025.76 135.678 2026.29 135.747 Q2026.83 135.794 2027.48 135.909 L2027.5 140.284 Z" fill="#000000" fill-rule="evenodd" fill-opacity="1" /><path clip-path="url(#clip400)" d="M2031.97 136.303 L2036.23 136.303 L2036.23 162.229 L2031.97 162.229 L2031.97 136.303 M2031.97 126.21 L2036.23 126.21 L2036.23 131.604 L2031.97 131.604 L2031.97 126.21 Z" fill="#000000" fill-rule="evenodd" fill-opacity="1" /><path clip-path="url(#clip400)" d="M2042.08 136.303 L2046.6 136.303 L2054.7 158.062 L2062.8 136.303 L2067.31 136.303 L2057.59 162.229 L2051.8 162.229 L2042.08 136.303 Z" fill="#000000" fill-rule="evenodd" fill-opacity="1" /><path clip-path="url(#clip400)" d="M2084.98 149.196 Q2079.81 149.196 2077.82 150.377 Q2075.83 151.557 2075.83 154.405 Q2075.83 156.673 2077.31 158.016 Q2078.82 159.335 2081.39 159.335 Q2084.93 159.335 2087.06 156.835 Q2089.21 154.312 2089.21 150.145 L2089.21 149.196 L2084.98 149.196 M2093.47 147.437 L2093.47 162.229 L2089.21 162.229 L2089.21 158.293 Q2087.75 160.655 2085.58 161.789 Q2083.4 162.9 2080.25 162.9 Q2076.27 162.9 2073.91 160.678 Q2071.57 158.432 2071.57 154.682 Q2071.57 150.307 2074.49 148.085 Q2077.43 145.863 2083.24 145.863 L2089.21 145.863 L2089.21 145.446 Q2089.21 142.507 2087.27 140.909 Q2085.35 139.289 2081.85 139.289 Q2079.63 139.289 2077.52 139.821 Q2075.41 140.354 2073.47 141.419 L2073.47 137.483 Q2075.81 136.581 2078.01 136.141 Q2080.21 135.678 2082.29 135.678 Q2087.91 135.678 2090.69 138.594 Q2093.47 141.511 2093.47 147.437 Z" fill="#000000" fill-rule="evenodd" fill-opacity="1" /><path clip-path="url(#clip400)" d="M2106.46 128.942 L2106.46 136.303 L2115.23 136.303 L2115.23 139.613 L2106.46 139.613 L2106.46 153.687 Q2106.46 156.858 2107.31 157.761 Q2108.19 158.664 2110.85 158.664 L2115.23 158.664 L2115.23 162.229 L2110.85 162.229 Q2105.92 162.229 2104.05 160.4 Q2102.17 158.548 2102.17 153.687 L2102.17 139.613 L2099.05 139.613 L2099.05 136.303 L2102.17 136.303 L2102.17 128.942 L2106.46 128.942 Z" fill="#000000" fill-rule="evenodd" fill-opacity="1" /><path clip-path="url(#clip400)" d="M2120.83 136.303 L2125.09 136.303 L2125.09 162.229 L2120.83 162.229 L2120.83 136.303 M2120.83 126.21 L2125.09 126.21 L2125.09 131.604 L2120.83 131.604 L2120.83 126.21 Z" fill="#000000" fill-rule="evenodd" fill-opacity="1" /><path clip-path="url(#clip400)" d="M2130.95 136.303 L2135.46 136.303 L2143.56 158.062 L2151.66 136.303 L2156.18 136.303 L2146.46 162.229 L2140.67 162.229 L2130.95 136.303 Z" fill="#000000" fill-rule="evenodd" fill-opacity="1" /><path clip-path="url(#clip400)" d="M2184.23 148.201 L2184.23 150.284 L2164.65 150.284 Q2164.93 154.682 2167.29 156.997 Q2169.67 159.289 2173.91 159.289 Q2176.36 159.289 2178.66 158.687 Q2180.97 158.085 2183.24 156.881 L2183.24 160.909 Q2180.95 161.881 2178.54 162.391 Q2176.13 162.9 2173.66 162.9 Q2167.45 162.9 2163.82 159.289 Q2160.21 155.678 2160.21 149.52 Q2160.21 143.155 2163.63 139.428 Q2167.08 135.678 2172.91 135.678 Q2178.15 135.678 2181.18 139.057 Q2184.23 142.414 2184.23 148.201 M2179.97 146.951 Q2179.93 143.456 2178.01 141.372 Q2176.11 139.289 2172.96 139.289 Q2169.4 139.289 2167.24 141.303 Q2165.11 143.317 2164.79 146.974 L2179.97 146.951 Z" fill="#000000" fill-rule="evenodd" fill-opacity="1" /><polyline clip-path="url(#clip400)" style="stroke:#e26f46; stroke-linecap:round; stroke-linejoin:round; stroke-width:4; stroke-opacity:1; fill:none" points="1678.38,196.789 1818.74,196.789 "/>
<path clip-path="url(#clip400)" d="M1860.56 188.907 L1860.56 192.934 Q1858.75 192.009 1856.81 191.546 Q1854.86 191.083 1852.78 191.083 Q1849.61 191.083 1848.01 192.055 Q1846.43 193.027 1846.43 194.971 Q1846.43 196.453 1847.57 197.309 Q1848.7 198.143 1852.13 198.907 L1853.59 199.231 Q1858.12 200.203 1860.02 201.985 Q1861.94 203.745 1861.94 206.916 Q1861.94 210.527 1859.07 212.633 Q1856.23 214.74 1851.23 214.74 Q1849.14 214.74 1846.87 214.323 Q1844.63 213.93 1842.13 213.12 L1842.13 208.721 Q1844.49 209.948 1846.78 210.573 Q1849.07 211.175 1851.32 211.175 Q1854.33 211.175 1855.95 210.157 Q1857.57 209.115 1857.57 207.24 Q1857.57 205.504 1856.39 204.578 Q1855.23 203.652 1851.27 202.796 L1849.79 202.448 Q1845.83 201.615 1844.07 199.902 Q1842.31 198.166 1842.31 195.157 Q1842.31 191.499 1844.91 189.509 Q1847.5 187.518 1852.27 187.518 Q1854.63 187.518 1856.71 187.865 Q1858.8 188.212 1860.56 188.907 Z" fill="#000000" fill-rule="evenodd" fill-opacity="1" /><path clip-path="url(#clip400)" d="M1890.9 200.041 L1890.9 202.124 L1871.32 202.124 Q1871.6 206.522 1873.96 208.837 Q1876.34 211.129 1880.58 211.129 Q1883.03 211.129 1885.32 210.527 Q1887.64 209.925 1889.91 208.721 L1889.91 212.749 Q1887.62 213.721 1885.21 214.231 Q1882.8 214.74 1880.32 214.74 Q1874.12 214.74 1870.49 211.129 Q1866.87 207.518 1866.87 201.36 Q1866.87 194.995 1870.3 191.268 Q1873.75 187.518 1879.58 187.518 Q1884.81 187.518 1887.85 190.897 Q1890.9 194.254 1890.9 200.041 M1886.64 198.791 Q1886.6 195.296 1884.68 193.212 Q1882.78 191.129 1879.63 191.129 Q1876.06 191.129 1873.91 193.143 Q1871.78 195.157 1871.46 198.814 L1886.64 198.791 Z" fill="#000000" fill-rule="evenodd" fill-opacity="1" /><path clip-path="url(#clip400)" d="M1916.55 189.138 L1916.55 193.12 Q1914.74 192.124 1912.92 191.638 Q1911.11 191.129 1909.26 191.129 Q1905.11 191.129 1902.82 193.768 Q1900.53 196.384 1900.53 201.129 Q1900.53 205.874 1902.82 208.513 Q1905.11 211.129 1909.26 211.129 Q1911.11 211.129 1912.92 210.643 Q1914.74 210.133 1916.55 209.138 L1916.55 213.073 Q1914.77 213.907 1912.85 214.323 Q1910.95 214.74 1908.8 214.74 Q1902.94 214.74 1899.49 211.059 Q1896.04 207.379 1896.04 201.129 Q1896.04 194.786 1899.51 191.152 Q1903.01 187.518 1909.07 187.518 Q1911.04 187.518 1912.92 187.935 Q1914.79 188.328 1916.55 189.138 Z" fill="#000000" fill-rule="evenodd" fill-opacity="1" /><path clip-path="url(#clip400)" d="M1934 191.129 Q1930.58 191.129 1928.59 193.814 Q1926.6 196.476 1926.6 201.129 Q1926.6 205.782 1928.56 208.467 Q1930.55 211.129 1934 211.129 Q1937.41 211.129 1939.4 208.444 Q1941.39 205.758 1941.39 201.129 Q1941.39 196.522 1939.4 193.837 Q1937.41 191.129 1934 191.129 M1934 187.518 Q1939.56 187.518 1942.73 191.129 Q1945.9 194.74 1945.9 201.129 Q1945.9 207.495 1942.73 211.129 Q1939.56 214.74 1934 214.74 Q1928.43 214.74 1925.25 211.129 Q1922.11 207.495 1922.11 201.129 Q1922.11 194.74 1925.25 191.129 Q1928.43 187.518 1934 187.518 Z" fill="#000000" fill-rule="evenodd" fill-opacity="1" /><path clip-path="url(#clip400)" d="M1974.51 198.421 L1974.51 214.069 L1970.25 214.069 L1970.25 198.559 Q1970.25 194.879 1968.82 193.05 Q1967.38 191.222 1964.51 191.222 Q1961.06 191.222 1959.07 193.421 Q1957.08 195.62 1957.08 199.416 L1957.08 214.069 L1952.8 214.069 L1952.8 188.143 L1957.08 188.143 L1957.08 192.171 Q1958.61 189.833 1960.67 188.675 Q1962.75 187.518 1965.46 187.518 Q1969.93 187.518 1972.22 190.296 Q1974.51 193.05 1974.51 198.421 Z" fill="#000000" fill-rule="evenodd" fill-opacity="1" /><path clip-path="url(#clip400)" d="M2000.07 192.078 L2000.07 178.05 L2004.33 178.05 L2004.33 214.069 L2000.07 214.069 L2000.07 210.18 Q1998.73 212.495 1996.67 213.629 Q1994.63 214.74 1991.76 214.74 Q1987.06 214.74 1984.1 210.99 Q1981.16 207.24 1981.16 201.129 Q1981.16 195.018 1984.1 191.268 Q1987.06 187.518 1991.76 187.518 Q1994.63 187.518 1996.67 188.652 Q1998.73 189.763 2000.07 192.078 M1985.55 201.129 Q1985.55 205.828 1987.48 208.513 Q1989.42 211.175 1992.8 211.175 Q1996.18 211.175 1998.12 208.513 Q2000.07 205.828 2000.07 201.129 Q2000.07 196.43 1998.12 193.768 Q1996.18 191.083 1992.8 191.083 Q1989.42 191.083 1987.48 193.768 Q1985.55 196.43 1985.55 201.129 Z" fill="#000000" fill-rule="evenodd" fill-opacity="1" /><path clip-path="url(#clip400)" d="M2045.23 192.078 L2045.23 178.05 L2049.49 178.05 L2049.49 214.069 L2045.23 214.069 L2045.23 210.18 Q2043.89 212.495 2041.83 213.629 Q2039.79 214.74 2036.92 214.74 Q2032.22 214.74 2029.26 210.99 Q2026.32 207.24 2026.32 201.129 Q2026.32 195.018 2029.26 191.268 Q2032.22 187.518 2036.92 187.518 Q2039.79 187.518 2041.83 188.652 Q2043.89 189.763 2045.23 192.078 M2030.72 201.129 Q2030.72 205.828 2032.64 208.513 Q2034.58 211.175 2037.96 211.175 Q2041.34 211.175 2043.29 208.513 Q2045.23 205.828 2045.23 201.129 Q2045.23 196.43 2043.29 193.768 Q2041.34 191.083 2037.96 191.083 Q2034.58 191.083 2032.64 193.768 Q2030.72 196.43 2030.72 201.129 Z" fill="#000000" fill-rule="evenodd" fill-opacity="1" /><path clip-path="url(#clip400)" d="M2080.44 200.041 L2080.44 202.124 L2060.85 202.124 Q2061.13 206.522 2063.49 208.837 Q2065.88 211.129 2070.11 211.129 Q2072.57 211.129 2074.86 210.527 Q2077.17 209.925 2079.44 208.721 L2079.44 212.749 Q2077.15 213.721 2074.74 214.231 Q2072.34 214.74 2069.86 214.74 Q2063.66 214.74 2060.02 211.129 Q2056.41 207.518 2056.41 201.36 Q2056.41 194.995 2059.84 191.268 Q2063.29 187.518 2069.12 187.518 Q2074.35 187.518 2077.38 190.897 Q2080.44 194.254 2080.44 200.041 M2076.18 198.791 Q2076.13 195.296 2074.21 193.212 Q2072.31 191.129 2069.17 191.129 Q2065.6 191.129 2063.45 193.143 Q2061.32 195.157 2060.99 198.814 L2076.18 198.791 Z" fill="#000000" fill-rule="evenodd" fill-opacity="1" /><path clip-path="url(#clip400)" d="M2102.45 192.124 Q2101.73 191.708 2100.88 191.522 Q2100.04 191.314 2099.03 191.314 Q2095.41 191.314 2093.47 193.675 Q2091.55 196.013 2091.55 200.411 L2091.55 214.069 L2087.27 214.069 L2087.27 188.143 L2091.55 188.143 L2091.55 192.171 Q2092.89 189.809 2095.04 188.675 Q2097.2 187.518 2100.28 187.518 Q2100.72 187.518 2101.25 187.587 Q2101.78 187.634 2102.43 187.749 L2102.45 192.124 Z" fill="#000000" fill-rule="evenodd" fill-opacity="1" /><path clip-path="url(#clip400)" d="M2106.92 188.143 L2111.18 188.143 L2111.18 214.069 L2106.92 214.069 L2106.92 188.143 M2106.92 178.05 L2111.18 178.05 L2111.18 183.444 L2106.92 183.444 L2106.92 178.05 Z" fill="#000000" fill-rule="evenodd" fill-opacity="1" /><path clip-path="url(#clip400)" d="M2117.04 188.143 L2121.55 188.143 L2129.65 209.902 L2137.75 188.143 L2142.27 188.143 L2132.54 214.069 L2126.76 214.069 L2117.04 188.143 Z" fill="#000000" fill-rule="evenodd" fill-opacity="1" /><path clip-path="url(#clip400)" d="M2159.93 201.036 Q2154.77 201.036 2152.78 202.217 Q2150.78 203.397 2150.78 206.245 Q2150.78 208.513 2152.27 209.856 Q2153.77 211.175 2156.34 211.175 Q2159.88 211.175 2162.01 208.675 Q2164.16 206.152 2164.16 201.985 L2164.16 201.036 L2159.93 201.036 M2168.42 199.277 L2168.42 214.069 L2164.16 214.069 L2164.16 210.133 Q2162.71 212.495 2160.53 213.629 Q2158.35 214.74 2155.21 214.74 Q2151.22 214.74 2148.86 212.518 Q2146.53 210.272 2146.53 206.522 Q2146.53 202.147 2149.44 199.925 Q2152.38 197.703 2158.19 197.703 L2164.16 197.703 L2164.16 197.286 Q2164.16 194.347 2162.22 192.749 Q2160.3 191.129 2156.8 191.129 Q2154.58 191.129 2152.47 191.661 Q2150.37 192.194 2148.42 193.259 L2148.42 189.323 Q2150.76 188.421 2152.96 187.981 Q2155.16 187.518 2157.24 187.518 Q2162.87 187.518 2165.65 190.434 Q2168.42 193.351 2168.42 199.277 Z" fill="#000000" fill-rule="evenodd" fill-opacity="1" /><path clip-path="url(#clip400)" d="M2181.41 180.782 L2181.41 188.143 L2190.18 188.143 L2190.18 191.453 L2181.41 191.453 L2181.41 205.527 Q2181.41 208.698 2182.27 209.601 Q2183.15 210.504 2185.81 210.504 L2190.18 210.504 L2190.18 214.069 L2185.81 214.069 Q2180.88 214.069 2179 212.24 Q2177.13 210.388 2177.13 205.527 L2177.13 191.453 L2174 191.453 L2174 188.143 L2177.13 188.143 L2177.13 180.782 L2181.41 180.782 Z" fill="#000000" fill-rule="evenodd" fill-opacity="1" /><path clip-path="url(#clip400)" d="M2195.78 188.143 L2200.04 188.143 L2200.04 214.069 L2195.78 214.069 L2195.78 188.143 M2195.78 178.05 L2200.04 178.05 L2200.04 183.444 L2195.78 183.444 L2195.78 178.05 Z" fill="#000000" fill-rule="evenodd" fill-opacity="1" /><path clip-path="url(#clip400)" d="M2205.9 188.143 L2210.41 188.143 L2218.52 209.902 L2226.62 188.143 L2231.13 188.143 L2221.41 214.069 L2215.62 214.069 L2205.9 188.143 Z" fill="#000000" fill-rule="evenodd" fill-opacity="1" /><path clip-path="url(#clip400)" d="M2259.19 200.041 L2259.19 202.124 L2239.6 202.124 Q2239.88 206.522 2242.24 208.837 Q2244.63 211.129 2248.86 211.129 Q2251.32 211.129 2253.61 210.527 Q2255.92 209.925 2258.19 208.721 L2258.19 212.749 Q2255.9 213.721 2253.49 214.231 Q2251.09 214.74 2248.61 214.74 Q2242.4 214.74 2238.77 211.129 Q2235.16 207.518 2235.16 201.36 Q2235.16 194.995 2238.59 191.268 Q2242.03 187.518 2247.87 187.518 Q2253.1 187.518 2256.13 190.897 Q2259.19 194.254 2259.19 200.041 M2254.93 198.791 Q2254.88 195.296 2252.96 193.212 Q2251.06 191.129 2247.91 191.129 Q2244.35 191.129 2242.2 193.143 Q2240.07 195.157 2239.74 198.814 L2254.93 198.791 Z" fill="#000000" fill-rule="evenodd" fill-opacity="1" /><polyline clip-path="url(#clip400)" style="stroke:#3da44d; stroke-linecap:round; stroke-linejoin:round; stroke-width:4; stroke-opacity:1; fill:none" points="1678.38,248.629 1818.74,248.629 "/>
<path clip-path="url(#clip400)" d="M1849.54 232.622 L1849.54 239.983 L1858.31 239.983 L1858.31 243.293 L1849.54 243.293 L1849.54 257.367 Q1849.54 260.538 1850.39 261.441 Q1851.27 262.344 1853.93 262.344 L1858.31 262.344 L1858.31 265.909 L1853.93 265.909 Q1849 265.909 1847.13 264.08 Q1845.25 262.228 1845.25 257.367 L1845.25 243.293 L1842.13 243.293 L1842.13 239.983 L1845.25 239.983 L1845.25 232.622 L1849.54 232.622 Z" fill="#000000" fill-rule="evenodd" fill-opacity="1" /><path clip-path="url(#clip400)" d="M1885.46 250.261 L1885.46 265.909 L1881.2 265.909 L1881.2 250.399 Q1881.2 246.719 1879.77 244.89 Q1878.33 243.062 1875.46 243.062 Q1872.01 243.062 1870.02 245.261 Q1868.03 247.46 1868.03 251.256 L1868.03 265.909 L1863.75 265.909 L1863.75 229.89 L1868.03 229.89 L1868.03 244.011 Q1869.56 241.673 1871.62 240.515 Q1873.7 239.358 1876.41 239.358 Q1880.88 239.358 1883.17 242.136 Q1885.46 244.89 1885.46 250.261 Z" fill="#000000" fill-rule="evenodd" fill-opacity="1" /><path clip-path="url(#clip400)" d="M1893.96 239.983 L1898.22 239.983 L1898.22 265.909 L1893.96 265.909 L1893.96 239.983 M1893.96 229.89 L1898.22 229.89 L1898.22 235.284 L1893.96 235.284 L1893.96 229.89 Z" fill="#000000" fill-rule="evenodd" fill-opacity="1" /><path clip-path="url(#clip400)" d="M1922.15 243.964 Q1921.43 243.548 1920.58 243.362 Q1919.74 243.154 1918.73 243.154 Q1915.11 243.154 1913.17 245.515 Q1911.25 247.853 1911.25 252.251 L1911.25 265.909 L1906.97 265.909 L1906.97 239.983 L1911.25 239.983 L1911.25 244.011 Q1912.59 241.649 1914.74 240.515 Q1916.9 239.358 1919.98 239.358 Q1920.42 239.358 1920.95 239.427 Q1921.48 239.474 1922.13 239.589 L1922.15 243.964 Z" fill="#000000" fill-rule="evenodd" fill-opacity="1" /><path clip-path="url(#clip400)" d="M1942.85 243.918 L1942.85 229.89 L1947.11 229.89 L1947.11 265.909 L1942.85 265.909 L1942.85 262.02 Q1941.5 264.335 1939.44 265.469 Q1937.41 266.58 1934.54 266.58 Q1929.84 266.58 1926.87 262.83 Q1923.93 259.08 1923.93 252.969 Q1923.93 246.858 1926.87 243.108 Q1929.84 239.358 1934.54 239.358 Q1937.41 239.358 1939.44 240.492 Q1941.5 241.603 1942.85 243.918 M1928.33 252.969 Q1928.33 257.668 1930.25 260.353 Q1932.2 263.015 1935.58 263.015 Q1938.96 263.015 1940.9 260.353 Q1942.85 257.668 1942.85 252.969 Q1942.85 248.27 1940.9 245.608 Q1938.96 242.923 1935.58 242.923 Q1932.2 242.923 1930.25 245.608 Q1928.33 248.27 1928.33 252.969 Z" fill="#000000" fill-rule="evenodd" fill-opacity="1" /><path clip-path="url(#clip400)" d="M1988.01 243.918 L1988.01 229.89 L1992.27 229.89 L1992.27 265.909 L1988.01 265.909 L1988.01 262.02 Q1986.67 264.335 1984.61 265.469 Q1982.57 266.58 1979.7 266.58 Q1975 266.58 1972.04 262.83 Q1969.1 259.08 1969.1 252.969 Q1969.1 246.858 1972.04 243.108 Q1975 239.358 1979.7 239.358 Q1982.57 239.358 1984.61 240.492 Q1986.67 241.603 1988.01 243.918 M1973.49 252.969 Q1973.49 257.668 1975.42 260.353 Q1977.36 263.015 1980.74 263.015 Q1984.12 263.015 1986.06 260.353 Q1988.01 257.668 1988.01 252.969 Q1988.01 248.27 1986.06 245.608 Q1984.12 242.923 1980.74 242.923 Q1977.36 242.923 1975.42 245.608 Q1973.49 248.27 1973.49 252.969 Z" fill="#000000" fill-rule="evenodd" fill-opacity="1" /><path clip-path="url(#clip400)" d="M2023.22 251.881 L2023.22 253.964 L2003.63 253.964 Q2003.91 258.362 2006.27 260.677 Q2008.66 262.969 2012.89 262.969 Q2015.35 262.969 2017.64 262.367 Q2019.95 261.765 2022.22 260.561 L2022.22 264.589 Q2019.93 265.561 2017.52 266.071 Q2015.11 266.58 2012.64 266.58 Q2006.43 266.58 2002.8 262.969 Q1999.19 259.358 1999.19 253.2 Q1999.19 246.835 2002.61 243.108 Q2006.06 239.358 2011.9 239.358 Q2017.13 239.358 2020.16 242.737 Q2023.22 246.094 2023.22 251.881 M2018.96 250.631 Q2018.91 247.136 2016.99 245.052 Q2015.09 242.969 2011.94 242.969 Q2008.38 242.969 2006.23 244.983 Q2004.1 246.997 2003.77 250.654 L2018.96 250.631 Z" fill="#000000" fill-rule="evenodd" fill-opacity="1" /><path clip-path="url(#clip400)" d="M2045.23 243.964 Q2044.51 243.548 2043.66 243.362 Q2042.82 243.154 2041.8 243.154 Q2038.19 243.154 2036.25 245.515 Q2034.33 247.853 2034.33 252.251 L2034.33 265.909 L2030.04 265.909 L2030.04 239.983 L2034.33 239.983 L2034.33 244.011 Q2035.67 241.649 2037.82 240.515 Q2039.98 239.358 2043.05 239.358 Q2043.49 239.358 2044.03 239.427 Q2044.56 239.474 2045.21 239.589 L2045.23 243.964 Z" fill="#000000" fill-rule="evenodd" fill-opacity="1" /><path clip-path="url(#clip400)" d="M2049.7 239.983 L2053.96 239.983 L2053.96 265.909 L2049.7 265.909 L2049.7 239.983 M2049.7 229.89 L2053.96 229.89 L2053.96 235.284 L2049.7 235.284 L2049.7 229.89 Z" fill="#000000" fill-rule="evenodd" fill-opacity="1" /><path clip-path="url(#clip400)" d="M2059.81 239.983 L2064.33 239.983 L2072.43 261.742 L2080.53 239.983 L2085.04 239.983 L2075.32 265.909 L2069.54 265.909 L2059.81 239.983 Z" fill="#000000" fill-rule="evenodd" fill-opacity="1" /><path clip-path="url(#clip400)" d="M2102.71 252.876 Q2097.54 252.876 2095.55 254.057 Q2093.56 255.237 2093.56 258.085 Q2093.56 260.353 2095.04 261.696 Q2096.55 263.015 2099.12 263.015 Q2102.66 263.015 2104.79 260.515 Q2106.94 257.992 2106.94 253.825 L2106.94 252.876 L2102.71 252.876 M2111.2 251.117 L2111.2 265.909 L2106.94 265.909 L2106.94 261.973 Q2105.48 264.335 2103.31 265.469 Q2101.13 266.58 2097.98 266.58 Q2094 266.58 2091.64 264.358 Q2089.3 262.112 2089.3 258.362 Q2089.3 253.987 2092.22 251.765 Q2095.16 249.543 2100.97 249.543 L2106.94 249.543 L2106.94 249.126 Q2106.94 246.187 2105 244.589 Q2103.08 242.969 2099.58 242.969 Q2097.36 242.969 2095.25 243.501 Q2093.15 244.034 2091.2 245.099 L2091.2 241.163 Q2093.54 240.261 2095.74 239.821 Q2097.94 239.358 2100.02 239.358 Q2105.65 239.358 2108.42 242.274 Q2111.2 245.191 2111.2 251.117 Z" fill="#000000" fill-rule="evenodd" fill-opacity="1" /><path clip-path="url(#clip400)" d="M2124.19 232.622 L2124.19 239.983 L2132.96 239.983 L2132.96 243.293 L2124.19 243.293 L2124.19 257.367 Q2124.19 260.538 2125.04 261.441 Q2125.92 262.344 2128.59 262.344 L2132.96 262.344 L2132.96 265.909 L2128.59 265.909 Q2123.66 265.909 2121.78 264.08 Q2119.91 262.228 2119.91 257.367 L2119.91 243.293 L2116.78 243.293 L2116.78 239.983 L2119.91 239.983 L2119.91 232.622 L2124.19 232.622 Z" fill="#000000" fill-rule="evenodd" fill-opacity="1" /><path clip-path="url(#clip400)" d="M2138.56 239.983 L2142.82 239.983 L2142.82 265.909 L2138.56 265.909 L2138.56 239.983 M2138.56 229.89 L2142.82 229.89 L2142.82 235.284 L2138.56 235.284 L2138.56 229.89 Z" fill="#000000" fill-rule="evenodd" fill-opacity="1" /><path clip-path="url(#clip400)" d="M2148.68 239.983 L2153.19 239.983 L2161.29 261.742 L2169.4 239.983 L2173.91 239.983 L2164.19 265.909 L2158.4 265.909 L2148.68 239.983 Z" fill="#000000" fill-rule="evenodd" fill-opacity="1" /><path clip-path="url(#clip400)" d="M2201.97 251.881 L2201.97 253.964 L2182.38 253.964 Q2182.66 258.362 2185.02 260.677 Q2187.41 262.969 2191.64 262.969 Q2194.09 262.969 2196.39 262.367 Q2198.7 261.765 2200.97 260.561 L2200.97 264.589 Q2198.68 265.561 2196.27 266.071 Q2193.86 266.58 2191.39 266.58 Q2185.18 266.58 2181.55 262.969 Q2177.94 259.358 2177.94 253.2 Q2177.94 246.835 2181.36 243.108 Q2184.81 239.358 2190.65 239.358 Q2195.88 239.358 2198.91 242.737 Q2201.97 246.094 2201.97 251.881 M2197.71 250.631 Q2197.66 247.136 2195.74 245.052 Q2193.84 242.969 2190.69 242.969 Q2187.13 242.969 2184.97 244.983 Q2182.84 246.997 2182.52 250.654 L2197.71 250.631 Z" fill="#000000" fill-rule="evenodd" fill-opacity="1" /><polyline clip-path="url(#clip400)" style="stroke:#c271d2; stroke-linecap:round; stroke-linejoin:round; stroke-width:4; stroke-opacity:1; fill:none" points="1678.38,300.469 1818.74,300.469 "/>
<path clip-path="url(#clip400)" d="M1858.63 281.73 L1858.63 285.272 L1854.56 285.272 Q1852.27 285.272 1851.37 286.198 Q1850.49 287.124 1850.49 289.531 L1850.49 291.823 L1857.5 291.823 L1857.5 295.133 L1850.49 295.133 L1850.49 317.749 L1846.2 317.749 L1846.2 295.133 L1842.13 295.133 L1842.13 291.823 L1846.2 291.823 L1846.2 290.017 Q1846.2 285.689 1848.22 283.721 Q1850.23 281.73 1854.61 281.73 L1858.63 281.73 Z" fill="#000000" fill-rule="evenodd" fill-opacity="1" /><path clip-path="url(#clip400)" d="M1872.24 294.809 Q1868.82 294.809 1866.83 297.494 Q1864.84 300.156 1864.84 304.809 Q1864.84 309.462 1866.8 312.147 Q1868.8 314.809 1872.24 314.809 Q1875.65 314.809 1877.64 312.124 Q1879.63 309.438 1879.63 304.809 Q1879.63 300.202 1877.64 297.517 Q1875.65 294.809 1872.24 294.809 M1872.24 291.198 Q1877.8 291.198 1880.97 294.809 Q1884.14 298.42 1884.14 304.809 Q1884.14 311.175 1880.97 314.809 Q1877.8 318.42 1872.24 318.42 Q1866.67 318.42 1863.49 314.809 Q1860.35 311.175 1860.35 304.809 Q1860.35 298.42 1863.49 294.809 Q1866.67 291.198 1872.24 291.198 Z" fill="#000000" fill-rule="evenodd" fill-opacity="1" /><path clip-path="url(#clip400)" d="M1890.76 307.517 L1890.76 291.823 L1895.02 291.823 L1895.02 307.355 Q1895.02 311.036 1896.46 312.888 Q1897.89 314.716 1900.76 314.716 Q1904.21 314.716 1906.2 312.517 Q1908.22 310.318 1908.22 306.522 L1908.22 291.823 L1912.48 291.823 L1912.48 317.749 L1908.22 317.749 L1908.22 313.767 Q1906.67 316.128 1904.61 317.286 Q1902.57 318.42 1899.86 318.42 Q1895.39 318.42 1893.08 315.642 Q1890.76 312.864 1890.76 307.517 M1901.48 291.198 L1901.48 291.198 Z" fill="#000000" fill-rule="evenodd" fill-opacity="1" /><path clip-path="url(#clip400)" d="M1936.27 295.804 Q1935.55 295.388 1934.7 295.202 Q1933.86 294.994 1932.85 294.994 Q1929.24 294.994 1927.29 297.355 Q1925.37 299.693 1925.37 304.091 L1925.37 317.749 L1921.09 317.749 L1921.09 291.823 L1925.37 291.823 L1925.37 295.851 Q1926.71 293.489 1928.86 292.355 Q1931.02 291.198 1934.1 291.198 Q1934.54 291.198 1935.07 291.267 Q1935.6 291.314 1936.25 291.429 L1936.27 295.804 Z" fill="#000000" fill-rule="evenodd" fill-opacity="1" /><path clip-path="url(#clip400)" d="M1944.95 284.462 L1944.95 291.823 L1953.73 291.823 L1953.73 295.133 L1944.95 295.133 L1944.95 309.207 Q1944.95 312.378 1945.81 313.281 Q1946.69 314.184 1949.35 314.184 L1953.73 314.184 L1953.73 317.749 L1949.35 317.749 Q1944.42 317.749 1942.55 315.92 Q1940.67 314.068 1940.67 309.207 L1940.67 295.133 L1937.55 295.133 L1937.55 291.823 L1940.67 291.823 L1940.67 284.462 L1944.95 284.462 Z" fill="#000000" fill-rule="evenodd" fill-opacity="1" /><path clip-path="url(#clip400)" d="M1980.88 302.101 L1980.88 317.749 L1976.62 317.749 L1976.62 302.239 Q1976.62 298.559 1975.18 296.73 Q1973.75 294.902 1970.88 294.902 Q1967.43 294.902 1965.44 297.101 Q1963.45 299.3 1963.45 303.096 L1963.45 317.749 L1959.17 317.749 L1959.17 281.73 L1963.45 281.73 L1963.45 295.851 Q1964.98 293.513 1967.04 292.355 Q1969.12 291.198 1971.83 291.198 Q1976.3 291.198 1978.59 293.976 Q1980.88 296.73 1980.88 302.101 Z" fill="#000000" fill-rule="evenodd" fill-opacity="1" /><path clip-path="url(#clip400)" d="M2021.5 295.758 L2021.5 281.73 L2025.76 281.73 L2025.76 317.749 L2021.5 317.749 L2021.5 313.86 Q2020.16 316.175 2018.1 317.309 Q2016.06 318.42 2013.19 318.42 Q2008.49 318.42 2005.53 314.67 Q2002.59 310.92 2002.59 304.809 Q2002.59 298.698 2005.53 294.948 Q2008.49 291.198 2013.19 291.198 Q2016.06 291.198 2018.1 292.332 Q2020.16 293.443 2021.5 295.758 M2006.99 304.809 Q2006.99 309.508 2008.91 312.193 Q2010.86 314.855 2014.23 314.855 Q2017.61 314.855 2019.56 312.193 Q2021.5 309.508 2021.5 304.809 Q2021.5 300.11 2019.56 297.448 Q2017.61 294.763 2014.23 294.763 Q2010.86 294.763 2008.91 297.448 Q2006.99 300.11 2006.99 304.809 Z" fill="#000000" fill-rule="evenodd" fill-opacity="1" /><path clip-path="url(#clip400)" d="M2056.71 303.721 L2056.71 305.804 L2037.13 305.804 Q2037.41 310.202 2039.77 312.517 Q2042.15 314.809 2046.39 314.809 Q2048.84 314.809 2051.13 314.207 Q2053.45 313.605 2055.72 312.401 L2055.72 316.429 Q2053.42 317.401 2051.02 317.911 Q2048.61 318.42 2046.13 318.42 Q2039.93 318.42 2036.29 314.809 Q2032.68 311.198 2032.68 305.04 Q2032.68 298.675 2036.11 294.948 Q2039.56 291.198 2045.39 291.198 Q2050.62 291.198 2053.66 294.577 Q2056.71 297.934 2056.71 303.721 M2052.45 302.471 Q2052.41 298.976 2050.48 296.892 Q2048.59 294.809 2045.44 294.809 Q2041.87 294.809 2039.72 296.823 Q2037.59 298.837 2037.27 302.494 L2052.45 302.471 Z" fill="#000000" fill-rule="evenodd" fill-opacity="1" /><path clip-path="url(#clip400)" d="M2078.73 295.804 Q2078.01 295.388 2077.15 295.202 Q2076.32 294.994 2075.3 294.994 Q2071.69 294.994 2069.74 297.355 Q2067.82 299.693 2067.82 304.091 L2067.82 317.749 L2063.54 317.749 L2063.54 291.823 L2067.82 291.823 L2067.82 295.851 Q2069.17 293.489 2071.32 292.355 Q2073.47 291.198 2076.55 291.198 Q2076.99 291.198 2077.52 291.267 Q2078.05 291.314 2078.7 291.429 L2078.73 295.804 Z" fill="#000000" fill-rule="evenodd" fill-opacity="1" /><path clip-path="url(#clip400)" d="M2083.19 291.823 L2087.45 291.823 L2087.45 317.749 L2083.19 317.749 L2083.19 291.823 M2083.19 281.73 L2087.45 281.73 L2087.45 287.124 L2083.19 287.124 L2083.19 281.73 Z" fill="#000000" fill-rule="evenodd" fill-opacity="1" /><path clip-path="url(#clip400)" d="M2093.31 291.823 L2097.82 291.823 L2105.92 313.582 L2114.03 291.823 L2118.54 291.823 L2108.82 317.749 L2103.03 317.749 L2093.31 291.823 Z" fill="#000000" fill-rule="evenodd" fill-opacity="1" /><path clip-path="url(#clip400)" d="M2136.2 304.716 Q2131.04 304.716 2129.05 305.897 Q2127.06 307.077 2127.06 309.925 Q2127.06 312.193 2128.54 313.536 Q2130.04 314.855 2132.61 314.855 Q2136.16 314.855 2138.29 312.355 Q2140.44 309.832 2140.44 305.665 L2140.44 304.716 L2136.2 304.716 M2144.7 302.957 L2144.7 317.749 L2140.44 317.749 L2140.44 313.813 Q2138.98 316.175 2136.8 317.309 Q2134.63 318.42 2131.48 318.42 Q2127.5 318.42 2125.14 316.198 Q2122.8 313.952 2122.8 310.202 Q2122.8 305.827 2125.72 303.605 Q2128.66 301.383 2134.47 301.383 L2140.44 301.383 L2140.44 300.966 Q2140.44 298.027 2138.49 296.429 Q2136.57 294.809 2133.08 294.809 Q2130.85 294.809 2128.75 295.341 Q2126.64 295.874 2124.7 296.939 L2124.7 293.003 Q2127.04 292.101 2129.23 291.661 Q2131.43 291.198 2133.52 291.198 Q2139.14 291.198 2141.92 294.114 Q2144.7 297.031 2144.7 302.957 Z" fill="#000000" fill-rule="evenodd" fill-opacity="1" /><path clip-path="url(#clip400)" d="M2157.68 284.462 L2157.68 291.823 L2166.46 291.823 L2166.46 295.133 L2157.68 295.133 L2157.68 309.207 Q2157.68 312.378 2158.54 313.281 Q2159.42 314.184 2162.08 314.184 L2166.46 314.184 L2166.46 317.749 L2162.08 317.749 Q2157.15 317.749 2155.28 315.92 Q2153.4 314.068 2153.4 309.207 L2153.4 295.133 L2150.28 295.133 L2150.28 291.823 L2153.4 291.823 L2153.4 284.462 L2157.68 284.462 Z" fill="#000000" fill-rule="evenodd" fill-opacity="1" /><path clip-path="url(#clip400)" d="M2172.06 291.823 L2176.32 291.823 L2176.32 317.749 L2172.06 317.749 L2172.06 291.823 M2172.06 281.73 L2176.32 281.73 L2176.32 287.124 L2172.06 287.124 L2172.06 281.73 Z" fill="#000000" fill-rule="evenodd" fill-opacity="1" /><path clip-path="url(#clip400)" d="M2182.17 291.823 L2186.69 291.823 L2194.79 313.582 L2202.89 291.823 L2207.41 291.823 L2197.68 317.749 L2191.9 317.749 L2182.17 291.823 Z" fill="#000000" fill-rule="evenodd" fill-opacity="1" /><path clip-path="url(#clip400)" d="M2235.46 303.721 L2235.46 305.804 L2215.88 305.804 Q2216.15 310.202 2218.52 312.517 Q2220.9 314.809 2225.14 314.809 Q2227.59 314.809 2229.88 314.207 Q2232.2 313.605 2234.47 312.401 L2234.47 316.429 Q2232.17 317.401 2229.77 317.911 Q2227.36 318.42 2224.88 318.42 Q2218.68 318.42 2215.04 314.809 Q2211.43 311.198 2211.43 305.04 Q2211.43 298.675 2214.86 294.948 Q2218.31 291.198 2224.14 291.198 Q2229.37 291.198 2232.4 294.577 Q2235.46 297.934 2235.46 303.721 M2231.2 302.471 Q2231.15 298.976 2229.23 296.892 Q2227.34 294.809 2224.19 294.809 Q2220.62 294.809 2218.47 296.823 Q2216.34 298.837 2216.02 302.494 L2231.2 302.471 Z" fill="#000000" fill-rule="evenodd" fill-opacity="1" /></svg>
