<?xml version="1.0" encoding="utf-8"?>
<svg xmlns="http://www.w3.org/2000/svg" xmlns:xlink="http://www.w3.org/1999/xlink" width="600" height="400" viewBox="0 0 2400 1600">
<defs>
  <clipPath id="clip280">
    <rect x="0" y="0" width="2400" height="1600"/>
  </clipPath>
</defs>
<path clip-path="url(#clip280)" d="M0 1600 L2400 1600 L2400 0 L0 0  Z" fill="#ffffff" fill-rule="evenodd" fill-opacity="1"/>
<defs>
  <clipPath id="clip281">
    <rect x="480" y="0" width="1681" height="1600"/>
  </clipPath>
</defs>
<path clip-path="url(#clip280)" d="M337.134 1423.18 L2352.76 1423.18 L2352.76 47.2441 L337.134 47.2441  Z" fill="#ffffff" fill-rule="evenodd" fill-opacity="1"/>
<defs>
  <clipPath id="clip282">
    <rect x="337" y="47" width="2017" height="1377"/>
  </clipPath>
</defs>
<polyline clip-path="url(#clip282)" style="stroke:#000000; stroke-linecap:round; stroke-linejoin:round; stroke-width:2; stroke-opacity:0.1; fill:none" points="372.572,1423.18 372.572,47.2441 "/>
<polyline clip-path="url(#clip282)" style="stroke:#000000; stroke-linecap:round; stroke-linejoin:round; stroke-width:2; stroke-opacity:0.1; fill:none" points="863.669,1423.18 863.669,47.2441 "/>
<polyline clip-path="url(#clip282)" style="stroke:#000000; stroke-linecap:round; stroke-linejoin:round; stroke-width:2; stroke-opacity:0.1; fill:none" points="1354.77,1423.18 1354.77,47.2441 "/>
<polyline clip-path="url(#clip282)" style="stroke:#000000; stroke-linecap:round; stroke-linejoin:round; stroke-width:2; stroke-opacity:0.1; fill:none" points="1845.86,1423.18 1845.86,47.2441 "/>
<polyline clip-path="url(#clip282)" style="stroke:#000000; stroke-linecap:round; stroke-linejoin:round; stroke-width:2; stroke-opacity:0.1; fill:none" points="2336.96,1423.18 2336.96,47.2441 "/>
<polyline clip-path="url(#clip280)" style="stroke:#000000; stroke-linecap:round; stroke-linejoin:round; stroke-width:4; stroke-opacity:1; fill:none" points="337.134,1423.18 2352.76,1423.18 "/>
<polyline clip-path="url(#clip280)" style="stroke:#000000; stroke-linecap:round; stroke-linejoin:round; stroke-width:4; stroke-opacity:1; fill:none" points="372.572,1423.18 372.572,1404.28 "/>
<polyline clip-path="url(#clip280)" style="stroke:#000000; stroke-linecap:round; stroke-linejoin:round; stroke-width:4; stroke-opacity:1; fill:none" points="863.669,1423.18 863.669,1404.28 "/>
<polyline clip-path="url(#clip280)" style="stroke:#000000; stroke-linecap:round; stroke-linejoin:round; stroke-width:4; stroke-opacity:1; fill:none" points="1354.77,1423.18 1354.77,1404.28 "/>
<polyline clip-path="url(#clip280)" style="stroke:#000000; stroke-linecap:round; stroke-linejoin:round; stroke-width:4; stroke-opacity:1; fill:none" points="1845.86,1423.18 1845.86,1404.28 "/>
<polyline clip-path="url(#clip280)" style="stroke:#000000; stroke-linecap:round; stroke-linejoin:round; stroke-width:4; stroke-opacity:1; fill:none" points="2336.96,1423.18 2336.96,1404.28 "/>
<path clip-path="url(#clip280)" d="M372.572 1454.1 Q368.961 1454.1 367.132 1457.66 Q365.326 1461.2 365.326 1468.33 Q365.326 1475.44 367.132 1479.01 Q368.961 1482.55 372.572 1482.55 Q376.206 1482.55 378.012 1479.01 Q379.84 1475.44 379.84 1468.33 Q379.84 1461.2 378.012 1457.66 Q376.206 1454.1 372.572 1454.1 M372.572 1450.39 Q378.382 1450.39 381.437 1455 Q384.516 1459.58 384.516 1468.33 Q384.516 1477.06 381.437 1481.67 Q378.382 1486.25 372.572 1486.25 Q366.762 1486.25 363.683 1481.67 Q360.627 1477.06 360.627 1468.33 Q360.627 1459.58 363.683 1455 Q366.762 1450.39 372.572 1450.39 Z" fill="#000000" fill-rule="evenodd" fill-opacity="1" /><path clip-path="url(#clip280)" d="M827.362 1481.64 L843.681 1481.64 L843.681 1485.58 L821.737 1485.58 L821.737 1481.64 Q824.399 1478.89 828.982 1474.26 Q833.589 1469.61 834.769 1468.27 Q837.014 1465.74 837.894 1464.01 Q838.797 1462.25 838.797 1460.56 Q838.797 1457.8 836.852 1456.07 Q834.931 1454.33 831.829 1454.33 Q829.63 1454.33 827.177 1455.09 Q824.746 1455.86 821.968 1457.41 L821.968 1452.69 Q824.792 1451.55 827.246 1450.97 Q829.7 1450.39 831.737 1450.39 Q837.107 1450.39 840.301 1453.08 Q843.496 1455.77 843.496 1460.26 Q843.496 1462.39 842.686 1464.31 Q841.899 1466.2 839.792 1468.8 Q839.213 1469.47 836.112 1472.69 Q833.01 1475.88 827.362 1481.64 Z" fill="#000000" fill-rule="evenodd" fill-opacity="1" /><path clip-path="url(#clip280)" d="M853.542 1451.02 L871.898 1451.02 L871.898 1454.96 L857.824 1454.96 L857.824 1463.43 Q858.843 1463.08 859.862 1462.92 Q860.88 1462.73 861.899 1462.73 Q867.686 1462.73 871.065 1465.9 Q874.445 1469.08 874.445 1474.49 Q874.445 1480.07 870.973 1483.17 Q867.5 1486.25 861.181 1486.25 Q859.005 1486.25 856.737 1485.88 Q854.491 1485.51 852.084 1484.77 L852.084 1480.07 Q854.167 1481.2 856.389 1481.76 Q858.612 1482.32 861.088 1482.32 Q865.093 1482.32 867.431 1480.21 Q869.769 1478.1 869.769 1474.49 Q869.769 1470.88 867.431 1468.77 Q865.093 1466.67 861.088 1466.67 Q859.213 1466.67 857.338 1467.08 Q855.487 1467.5 853.542 1468.38 L853.542 1451.02 Z" fill="#000000" fill-rule="evenodd" fill-opacity="1" /><path clip-path="url(#clip280)" d="M893.658 1454.1 Q890.047 1454.1 888.218 1457.66 Q886.412 1461.2 886.412 1468.33 Q886.412 1475.44 888.218 1479.01 Q890.047 1482.55 893.658 1482.55 Q897.292 1482.55 899.097 1479.01 Q900.926 1475.44 900.926 1468.33 Q900.926 1461.2 899.097 1457.66 Q897.292 1454.1 893.658 1454.1 M893.658 1450.39 Q899.468 1450.39 902.523 1455 Q905.602 1459.58 905.602 1468.33 Q905.602 1477.06 902.523 1481.67 Q899.468 1486.25 893.658 1486.25 Q887.847 1486.25 884.769 1481.67 Q881.713 1477.06 881.713 1468.33 Q881.713 1459.58 884.769 1455 Q887.847 1450.39 893.658 1450.39 Z" fill="#000000" fill-rule="evenodd" fill-opacity="1" /><path clip-path="url(#clip280)" d="M1314.39 1451.02 L1332.74 1451.02 L1332.74 1454.96 L1318.67 1454.96 L1318.67 1463.43 Q1319.69 1463.08 1320.7 1462.92 Q1321.72 1462.73 1322.74 1462.73 Q1328.53 1462.73 1331.91 1465.9 Q1335.29 1469.08 1335.29 1474.49 Q1335.29 1480.07 1331.82 1483.17 Q1328.34 1486.25 1322.02 1486.25 Q1319.85 1486.25 1317.58 1485.88 Q1315.33 1485.51 1312.93 1484.77 L1312.93 1480.07 Q1315.01 1481.2 1317.23 1481.76 Q1319.45 1482.32 1321.93 1482.32 Q1325.94 1482.32 1328.27 1480.21 Q1330.61 1478.1 1330.61 1474.49 Q1330.61 1470.88 1328.27 1468.77 Q1325.94 1466.67 1321.93 1466.67 Q1320.06 1466.67 1318.18 1467.08 Q1316.33 1467.5 1314.39 1468.38 L1314.39 1451.02 Z" fill="#000000" fill-rule="evenodd" fill-opacity="1" /><path clip-path="url(#clip280)" d="M1354.5 1454.1 Q1350.89 1454.1 1349.06 1457.66 Q1347.26 1461.2 1347.26 1468.33 Q1347.26 1475.44 1349.06 1479.01 Q1350.89 1482.55 1354.5 1482.55 Q1358.14 1482.55 1359.94 1479.01 Q1361.77 1475.44 1361.77 1468.33 Q1361.77 1461.2 1359.94 1457.66 Q1358.14 1454.1 1354.5 1454.1 M1354.5 1450.39 Q1360.31 1450.39 1363.37 1455 Q1366.45 1459.58 1366.45 1468.33 Q1366.45 1477.06 1363.37 1481.67 Q1360.31 1486.25 1354.5 1486.25 Q1348.69 1486.25 1345.61 1481.67 Q1342.56 1477.06 1342.56 1468.33 Q1342.56 1459.58 1345.61 1455 Q1348.69 1450.39 1354.5 1450.39 Z" fill="#000000" fill-rule="evenodd" fill-opacity="1" /><path clip-path="url(#clip280)" d="M1384.66 1454.1 Q1381.05 1454.1 1379.22 1457.66 Q1377.42 1461.2 1377.42 1468.33 Q1377.42 1475.44 1379.22 1479.01 Q1381.05 1482.55 1384.66 1482.55 Q1388.3 1482.55 1390.1 1479.01 Q1391.93 1475.44 1391.93 1468.33 Q1391.93 1461.2 1390.1 1457.66 Q1388.3 1454.1 1384.66 1454.1 M1384.66 1450.39 Q1390.47 1450.39 1393.53 1455 Q1396.61 1459.58 1396.61 1468.33 Q1396.61 1477.06 1393.53 1481.67 Q1390.47 1486.25 1384.66 1486.25 Q1378.85 1486.25 1375.77 1481.67 Q1372.72 1477.06 1372.72 1468.33 Q1372.72 1459.58 1375.77 1455 Q1378.85 1450.39 1384.66 1450.39 Z" fill="#000000" fill-rule="evenodd" fill-opacity="1" /><path clip-path="url(#clip280)" d="M1804.14 1451.02 L1826.36 1451.02 L1826.36 1453.01 L1813.82 1485.58 L1808.93 1485.58 L1820.74 1454.96 L1804.14 1454.96 L1804.14 1451.02 Z" fill="#000000" fill-rule="evenodd" fill-opacity="1" /><path clip-path="url(#clip280)" d="M1835.53 1451.02 L1853.89 1451.02 L1853.89 1454.96 L1839.81 1454.96 L1839.81 1463.43 Q1840.83 1463.08 1841.85 1462.92 Q1842.87 1462.73 1843.89 1462.73 Q1849.67 1462.73 1853.05 1465.9 Q1856.43 1469.08 1856.43 1474.49 Q1856.43 1480.07 1852.96 1483.17 Q1849.49 1486.25 1843.17 1486.25 Q1840.99 1486.25 1838.72 1485.88 Q1836.48 1485.51 1834.07 1484.77 L1834.07 1480.07 Q1836.15 1481.2 1838.38 1481.76 Q1840.6 1482.32 1843.08 1482.32 Q1847.08 1482.32 1849.42 1480.21 Q1851.76 1478.1 1851.76 1474.49 Q1851.76 1470.88 1849.42 1468.77 Q1847.08 1466.67 1843.08 1466.67 Q1841.2 1466.67 1839.33 1467.08 Q1837.47 1467.5 1835.53 1468.38 L1835.53 1451.02 Z" fill="#000000" fill-rule="evenodd" fill-opacity="1" /><path clip-path="url(#clip280)" d="M1875.64 1454.1 Q1872.03 1454.1 1870.2 1457.66 Q1868.4 1461.2 1868.4 1468.33 Q1868.4 1475.44 1870.2 1479.01 Q1872.03 1482.55 1875.64 1482.55 Q1879.28 1482.55 1881.08 1479.01 Q1882.91 1475.44 1882.91 1468.33 Q1882.91 1461.2 1881.08 1457.66 Q1879.28 1454.1 1875.64 1454.1 M1875.64 1450.39 Q1881.45 1450.39 1884.51 1455 Q1887.59 1459.58 1887.59 1468.33 Q1887.59 1477.06 1884.51 1481.67 Q1881.45 1486.25 1875.64 1486.25 Q1869.83 1486.25 1866.76 1481.67 Q1863.7 1477.06 1863.7 1468.33 Q1863.7 1459.58 1866.76 1455 Q1869.83 1450.39 1875.64 1450.39 Z" fill="#000000" fill-rule="evenodd" fill-opacity="1" /><path clip-path="url(#clip280)" d="M2281.49 1481.64 L2289.13 1481.64 L2289.13 1455.28 L2280.82 1456.95 L2280.82 1452.69 L2289.08 1451.02 L2293.76 1451.02 L2293.76 1481.64 L2301.4 1481.64 L2301.4 1485.58 L2281.49 1485.58 L2281.49 1481.64 Z" fill="#000000" fill-rule="evenodd" fill-opacity="1" /><path clip-path="url(#clip280)" d="M2320.84 1454.1 Q2317.23 1454.1 2315.4 1457.66 Q2313.59 1461.2 2313.59 1468.33 Q2313.59 1475.44 2315.4 1479.01 Q2317.23 1482.55 2320.84 1482.55 Q2324.47 1482.55 2326.28 1479.01 Q2328.11 1475.44 2328.11 1468.33 Q2328.11 1461.2 2326.28 1457.66 Q2324.47 1454.1 2320.84 1454.1 M2320.84 1450.39 Q2326.65 1450.39 2329.71 1455 Q2332.78 1459.58 2332.78 1468.33 Q2332.78 1477.06 2329.71 1481.67 Q2326.65 1486.25 2320.84 1486.25 Q2315.03 1486.25 2311.95 1481.67 Q2308.9 1477.06 2308.9 1468.33 Q2308.9 1459.58 2311.95 1455 Q2315.03 1450.39 2320.84 1450.39 Z" fill="#000000" fill-rule="evenodd" fill-opacity="1" /><path clip-path="url(#clip280)" d="M2351 1454.1 Q2347.39 1454.1 2345.56 1457.66 Q2343.76 1461.2 2343.76 1468.33 Q2343.76 1475.44 2345.56 1479.01 Q2347.39 1482.55 2351 1482.55 Q2354.64 1482.55 2356.44 1479.01 Q2358.27 1475.44 2358.27 1468.33 Q2358.27 1461.2 2356.44 1457.66 Q2354.64 1454.1 2351 1454.1 M2351 1450.39 Q2356.81 1450.39 2359.87 1455 Q2362.95 1459.58 2362.95 1468.33 Q2362.95 1477.06 2359.87 1481.67 Q2356.81 1486.25 2351 1486.25 Q2345.19 1486.25 2342.11 1481.67 Q2339.06 1477.06 2339.06 1468.33 Q2339.06 1459.58 2342.11 1455 Q2345.19 1450.39 2351 1450.39 Z" fill="#000000" fill-rule="evenodd" fill-opacity="1" /><path clip-path="url(#clip280)" d="M2381.16 1454.1 Q2377.55 1454.1 2375.72 1457.66 Q2373.92 1461.2 2373.92 1468.33 Q2373.92 1475.44 2375.72 1479.01 Q2377.55 1482.55 2381.16 1482.55 Q2384.8 1482.55 2386.6 1479.01 Q2388.43 1475.44 2388.43 1468.33 Q2388.43 1461.2 2386.6 1457.66 Q2384.8 1454.1 2381.16 1454.1 M2381.16 1450.39 Q2386.97 1450.39 2390.03 1455 Q2393.11 1459.58 2393.11 1468.33 Q2393.11 1477.06 2390.03 1481.67 Q2386.97 1486.25 2381.16 1486.25 Q2375.35 1486.25 2372.27 1481.67 Q2369.22 1477.06 2369.22 1468.33 Q2369.22 1459.58 2372.27 1455 Q2375.35 1450.39 2381.16 1450.39 Z" fill="#000000" fill-rule="evenodd" fill-opacity="1" /><path clip-path="url(#clip280)" d="M1141.99 1520.52 L1148.48 1520.52 L1158.48 1560.69 L1168.44 1520.52 L1175.66 1520.52 L1185.66 1560.69 L1195.62 1520.52 L1202.15 1520.52 L1190.21 1568.04 L1182.13 1568.04 L1172.1 1526.79 L1161.98 1568.04 L1153.89 1568.04 L1141.99 1520.52 Z" fill="#000000" fill-rule="evenodd" fill-opacity="1" /><path clip-path="url(#clip280)" d="M1208.99 1532.4 L1214.85 1532.4 L1214.85 1568.04 L1208.99 1568.04 L1208.99 1532.4 M1208.99 1518.52 L1214.85 1518.52 L1214.85 1525.93 L1208.99 1525.93 L1208.99 1518.52 Z" fill="#000000" fill-rule="evenodd" fill-opacity="1" /><path clip-path="url(#clip280)" d="M1256.73 1546.53 L1256.73 1568.04 L1250.88 1568.04 L1250.88 1546.72 Q1250.88 1541.66 1248.9 1539.14 Q1246.93 1536.63 1242.98 1536.63 Q1238.24 1536.63 1235.5 1539.65 Q1232.77 1542.68 1232.77 1547.9 L1232.77 1568.04 L1226.88 1568.04 L1226.88 1532.4 L1232.77 1532.4 L1232.77 1537.93 Q1234.87 1534.72 1237.7 1533.13 Q1240.56 1531.54 1244.29 1531.54 Q1250.43 1531.54 1253.58 1535.36 Q1256.73 1539.14 1256.73 1546.53 Z" fill="#000000" fill-rule="evenodd" fill-opacity="1" /><path clip-path="url(#clip280)" d="M1291.87 1537.81 L1291.87 1518.52 L1297.73 1518.52 L1297.73 1568.04 L1291.87 1568.04 L1291.87 1562.7 Q1290.02 1565.88 1287.19 1567.44 Q1284.39 1568.97 1280.44 1568.97 Q1273.98 1568.97 1269.91 1563.81 Q1265.87 1558.65 1265.87 1550.25 Q1265.87 1541.85 1269.91 1536.69 Q1273.98 1531.54 1280.44 1531.54 Q1284.39 1531.54 1287.19 1533.1 Q1290.02 1534.62 1291.87 1537.81 M1271.91 1550.25 Q1271.91 1556.71 1274.56 1560.4 Q1277.23 1564.07 1281.88 1564.07 Q1286.52 1564.07 1289.2 1560.4 Q1291.87 1556.71 1291.87 1550.25 Q1291.87 1543.79 1289.2 1540.13 Q1286.52 1536.44 1281.88 1536.44 Q1277.23 1536.44 1274.56 1540.13 Q1271.91 1543.79 1271.91 1550.25 Z" fill="#000000" fill-rule="evenodd" fill-opacity="1" /><path clip-path="url(#clip280)" d="M1323.6 1536.5 Q1318.89 1536.5 1316.16 1540.19 Q1313.42 1543.85 1313.42 1550.25 Q1313.42 1556.65 1316.12 1560.34 Q1318.86 1564 1323.6 1564 Q1328.28 1564 1331.02 1560.31 Q1333.76 1556.62 1333.76 1550.25 Q1333.76 1543.92 1331.02 1540.23 Q1328.28 1536.5 1323.6 1536.5 M1323.6 1531.54 Q1331.24 1531.54 1335.6 1536.5 Q1339.96 1541.47 1339.96 1550.25 Q1339.96 1559 1335.6 1564 Q1331.24 1568.97 1323.6 1568.97 Q1315.93 1568.97 1311.57 1564 Q1307.24 1559 1307.24 1550.25 Q1307.24 1541.47 1311.57 1536.5 Q1315.93 1531.54 1323.6 1531.54 Z" fill="#000000" fill-rule="evenodd" fill-opacity="1" /><path clip-path="url(#clip280)" d="M1346.27 1532.4 L1352.12 1532.4 L1359.44 1560.21 L1366.73 1532.4 L1373.64 1532.4 L1380.96 1560.21 L1388.25 1532.4 L1394.1 1532.4 L1384.78 1568.04 L1377.87 1568.04 L1370.2 1538.83 L1362.5 1568.04 L1355.59 1568.04 L1346.27 1532.4 Z" fill="#000000" fill-rule="evenodd" fill-opacity="1" /><path clip-path="url(#clip280)" d="M1452.45 1522.08 L1452.45 1528.35 Q1448.79 1526.6 1445.54 1525.74 Q1442.29 1524.88 1439.27 1524.88 Q1434.02 1524.88 1431.15 1526.92 Q1428.32 1528.96 1428.32 1532.71 Q1428.32 1535.87 1430.2 1537.49 Q1432.11 1539.08 1437.39 1540.07 L1441.27 1540.86 Q1448.47 1542.23 1451.87 1545.7 Q1455.31 1549.14 1455.31 1554.93 Q1455.31 1561.84 1450.66 1565.4 Q1446.05 1568.97 1437.1 1568.97 Q1433.73 1568.97 1429.91 1568.2 Q1426.12 1567.44 1422.05 1565.94 L1422.05 1559.32 Q1425.96 1561.52 1429.72 1562.63 Q1433.48 1563.75 1437.1 1563.75 Q1442.61 1563.75 1445.6 1561.58 Q1448.59 1559.42 1448.59 1555.41 Q1448.59 1551.91 1446.43 1549.93 Q1444.3 1547.96 1439.4 1546.97 L1435.48 1546.21 Q1428.29 1544.78 1425.07 1541.72 Q1421.86 1538.67 1421.86 1533.22 Q1421.86 1526.92 1426.28 1523.29 Q1430.74 1519.66 1438.54 1519.66 Q1441.88 1519.66 1445.35 1520.27 Q1448.82 1520.87 1452.45 1522.08 Z" fill="#000000" fill-rule="evenodd" fill-opacity="1" /><path clip-path="url(#clip280)" d="M1465.08 1532.4 L1470.94 1532.4 L1470.94 1568.04 L1465.08 1568.04 L1465.08 1532.4 M1465.08 1518.52 L1470.94 1518.52 L1470.94 1525.93 L1465.08 1525.93 L1465.08 1518.52 Z" fill="#000000" fill-rule="evenodd" fill-opacity="1" /><path clip-path="url(#clip280)" d="M1480.65 1532.4 L1508.46 1532.4 L1508.46 1537.74 L1486.44 1563.37 L1508.46 1563.37 L1508.46 1568.04 L1479.85 1568.04 L1479.85 1562.7 L1501.88 1537.07 L1480.65 1537.07 L1480.65 1532.4 Z" fill="#000000" fill-rule="evenodd" fill-opacity="1" /><path clip-path="url(#clip280)" d="M1547.9 1548.76 L1547.9 1551.62 L1520.97 1551.62 Q1521.35 1557.67 1524.6 1560.85 Q1527.88 1564 1533.7 1564 Q1537.08 1564 1540.23 1563.17 Q1543.41 1562.35 1546.53 1560.69 L1546.53 1566.23 Q1543.38 1567.57 1540.07 1568.27 Q1536.76 1568.97 1533.35 1568.97 Q1524.82 1568.97 1519.83 1564 Q1514.86 1559.04 1514.86 1550.57 Q1514.86 1541.82 1519.57 1536.69 Q1524.31 1531.54 1532.34 1531.54 Q1539.53 1531.54 1543.7 1536.18 Q1547.9 1540.8 1547.9 1548.76 M1542.04 1547.04 Q1541.98 1542.23 1539.34 1539.37 Q1536.73 1536.5 1532.4 1536.5 Q1527.5 1536.5 1524.54 1539.27 Q1521.61 1542.04 1521.16 1547.07 L1542.04 1547.04 Z" fill="#000000" fill-rule="evenodd" fill-opacity="1" /><polyline clip-path="url(#clip282)" style="stroke:#000000; stroke-linecap:round; stroke-linejoin:round; stroke-width:2; stroke-opacity:0.1; fill:none" points="337.134,1384.24 2352.76,1384.24 "/>
<polyline clip-path="url(#clip282)" style="stroke:#000000; stroke-linecap:round; stroke-linejoin:round; stroke-width:2; stroke-opacity:0.1; fill:none" points="337.134,996.482 2352.76,996.482 "/>
<polyline clip-path="url(#clip282)" style="stroke:#000000; stroke-linecap:round; stroke-linejoin:round; stroke-width:2; stroke-opacity:0.1; fill:none" points="337.134,608.726 2352.76,608.726 "/>
<polyline clip-path="url(#clip282)" style="stroke:#000000; stroke-linecap:round; stroke-linejoin:round; stroke-width:2; stroke-opacity:0.1; fill:none" points="337.134,220.971 2352.76,220.971 "/>
<polyline clip-path="url(#clip280)" style="stroke:#000000; stroke-linecap:round; stroke-linejoin:round; stroke-width:4; stroke-opacity:1; fill:none" points="337.134,1423.18 337.134,47.2441 "/>
<polyline clip-path="url(#clip280)" style="stroke:#000000; stroke-linecap:round; stroke-linejoin:round; stroke-width:4; stroke-opacity:1; fill:none" points="337.134,1384.24 356.032,1384.24 "/>
<polyline clip-path="url(#clip280)" style="stroke:#000000; stroke-linecap:round; stroke-linejoin:round; stroke-width:4; stroke-opacity:1; fill:none" points="337.134,996.482 356.032,996.482 "/>
<polyline clip-path="url(#clip280)" style="stroke:#000000; stroke-linecap:round; stroke-linejoin:round; stroke-width:4; stroke-opacity:1; fill:none" points="337.134,608.726 356.032,608.726 "/>
<polyline clip-path="url(#clip280)" style="stroke:#000000; stroke-linecap:round; stroke-linejoin:round; stroke-width:4; stroke-opacity:1; fill:none" points="337.134,220.971 356.032,220.971 "/>
<path clip-path="url(#clip280)" d="M289.19 1370.04 Q285.579 1370.04 283.75 1373.6 Q281.944 1377.14 281.944 1384.27 Q281.944 1391.38 283.75 1394.94 Q285.579 1398.49 289.19 1398.49 Q292.824 1398.49 294.63 1394.94 Q296.458 1391.38 296.458 1384.27 Q296.458 1377.14 294.63 1373.6 Q292.824 1370.04 289.19 1370.04 M289.19 1366.33 Q295 1366.33 298.055 1370.94 Q301.134 1375.52 301.134 1384.27 Q301.134 1393 298.055 1397.61 Q295 1402.19 289.19 1402.19 Q283.38 1402.19 280.301 1397.61 Q277.245 1393 277.245 1384.27 Q277.245 1375.52 280.301 1370.94 Q283.38 1366.33 289.19 1366.33 Z" fill="#000000" fill-rule="evenodd" fill-opacity="1" /><path clip-path="url(#clip280)" d="M116.668 1016.27 L124.306 1016.27 L124.306 989.909 L115.996 991.576 L115.996 987.317 L124.26 985.65 L128.936 985.65 L128.936 1016.27 L136.575 1016.27 L136.575 1020.21 L116.668 1020.21 L116.668 1016.27 Z" fill="#000000" fill-rule="evenodd" fill-opacity="1" /><path clip-path="url(#clip280)" d="M146.019 1014.33 L150.903 1014.33 L150.903 1020.21 L146.019 1020.21 L146.019 1014.33 Z" fill="#000000" fill-rule="evenodd" fill-opacity="1" /><path clip-path="url(#clip280)" d="M171.089 988.729 Q167.477 988.729 165.649 992.293 Q163.843 995.835 163.843 1002.96 Q163.843 1010.07 165.649 1013.64 Q167.477 1017.18 171.089 1017.18 Q174.723 1017.18 176.528 1013.64 Q178.357 1010.07 178.357 1002.96 Q178.357 995.835 176.528 992.293 Q174.723 988.729 171.089 988.729 M171.089 985.025 Q176.899 985.025 179.954 989.631 Q183.033 994.215 183.033 1002.96 Q183.033 1011.69 179.954 1016.3 Q176.899 1020.88 171.089 1020.88 Q165.278 1020.88 162.2 1016.3 Q159.144 1011.69 159.144 1002.96 Q159.144 994.215 162.2 989.631 Q165.278 985.025 171.089 985.025 Z" fill="#000000" fill-rule="evenodd" fill-opacity="1" /><path clip-path="url(#clip280)" d="M219.422 994.747 L208.843 1005.37 L219.422 1015.95 L216.667 1018.75 L206.042 1008.13 L195.417 1018.75 L192.686 1015.95 L203.241 1005.37 L192.686 994.747 L195.417 991.946 L206.042 1002.57 L216.667 991.946 L219.422 994.747 Z" fill="#000000" fill-rule="evenodd" fill-opacity="1" /><path clip-path="url(#clip280)" d="M231.783 1016.27 L239.422 1016.27 L239.422 989.909 L231.111 991.576 L231.111 987.317 L239.375 985.65 L244.051 985.65 L244.051 1016.27 L251.69 1016.27 L251.69 1020.21 L231.783 1020.21 L231.783 1016.27 Z" fill="#000000" fill-rule="evenodd" fill-opacity="1" /><path clip-path="url(#clip280)" d="M271.134 988.729 Q267.523 988.729 265.695 992.293 Q263.889 995.835 263.889 1002.96 Q263.889 1010.07 265.695 1013.64 Q267.523 1017.18 271.134 1017.18 Q274.769 1017.18 276.574 1013.64 Q278.403 1010.07 278.403 1002.96 Q278.403 995.835 276.574 992.293 Q274.769 988.729 271.134 988.729 M271.134 985.025 Q276.944 985.025 280 989.631 Q283.079 994.215 283.079 1002.96 Q283.079 1011.69 280 1016.3 Q276.944 1020.88 271.134 1020.88 Q265.324 1020.88 262.245 1016.3 Q259.19 1011.69 259.19 1002.96 Q259.19 994.215 262.245 989.631 Q265.324 985.025 271.134 985.025 Z" fill="#000000" fill-rule="evenodd" fill-opacity="1" /><path clip-path="url(#clip280)" d="M283.079 964.72 L301.134 964.72 L301.134 966.337 L290.94 992.8 L286.972 992.8 L296.564 967.917 L283.079 967.917 L283.079 964.72 Z" fill="#000000" fill-rule="evenodd" fill-opacity="1" /><path clip-path="url(#clip280)" d="M119.885 628.519 L136.204 628.519 L136.204 632.454 L114.26 632.454 L114.26 628.519 Q116.922 625.764 121.505 621.135 Q126.112 616.482 127.292 615.139 Q129.538 612.616 130.417 610.88 Q131.32 609.121 131.32 607.431 Q131.32 604.676 129.376 602.94 Q127.455 601.204 124.353 601.204 Q122.154 601.204 119.7 601.968 Q117.269 602.732 114.492 604.283 L114.492 599.561 Q117.316 598.426 119.769 597.848 Q122.223 597.269 124.26 597.269 Q129.63 597.269 132.825 599.954 Q136.019 602.639 136.019 607.13 Q136.019 609.26 135.209 611.181 Q134.422 613.079 132.316 615.672 Q131.737 616.343 128.635 619.561 Q125.533 622.755 119.885 628.519 Z" fill="#000000" fill-rule="evenodd" fill-opacity="1" /><path clip-path="url(#clip280)" d="M146.019 626.574 L150.903 626.574 L150.903 632.454 L146.019 632.454 L146.019 626.574 Z" fill="#000000" fill-rule="evenodd" fill-opacity="1" /><path clip-path="url(#clip280)" d="M171.089 600.973 Q167.477 600.973 165.649 604.538 Q163.843 608.079 163.843 615.209 Q163.843 622.315 165.649 625.88 Q167.477 629.422 171.089 629.422 Q174.723 629.422 176.528 625.88 Q178.357 622.315 178.357 615.209 Q178.357 608.079 176.528 604.538 Q174.723 600.973 171.089 600.973 M171.089 597.269 Q176.899 597.269 179.954 601.875 Q183.033 606.459 183.033 615.209 Q183.033 623.936 179.954 628.542 Q176.899 633.125 171.089 633.125 Q165.278 633.125 162.2 628.542 Q159.144 623.936 159.144 615.209 Q159.144 606.459 162.2 601.875 Q165.278 597.269 171.089 597.269 Z" fill="#000000" fill-rule="evenodd" fill-opacity="1" /><path clip-path="url(#clip280)" d="M219.422 606.991 L208.843 617.616 L219.422 628.195 L216.667 630.996 L206.042 620.371 L195.417 630.996 L192.686 628.195 L203.241 617.616 L192.686 606.991 L195.417 604.19 L206.042 614.815 L216.667 604.19 L219.422 606.991 Z" fill="#000000" fill-rule="evenodd" fill-opacity="1" /><path clip-path="url(#clip280)" d="M231.783 628.519 L239.422 628.519 L239.422 602.153 L231.111 603.82 L231.111 599.561 L239.375 597.894 L244.051 597.894 L244.051 628.519 L251.69 628.519 L251.69 632.454 L231.783 632.454 L231.783 628.519 Z" fill="#000000" fill-rule="evenodd" fill-opacity="1" /><path clip-path="url(#clip280)" d="M271.134 600.973 Q267.523 600.973 265.695 604.538 Q263.889 608.079 263.889 615.209 Q263.889 622.315 265.695 625.88 Q267.523 629.422 271.134 629.422 Q274.769 629.422 276.574 625.88 Q278.403 622.315 278.403 615.209 Q278.403 608.079 276.574 604.538 Q274.769 600.973 271.134 600.973 M271.134 597.269 Q276.944 597.269 280 601.875 Q283.079 606.459 283.079 615.209 Q283.079 623.936 280 628.542 Q276.944 633.125 271.134 633.125 Q265.324 633.125 262.245 628.542 Q259.19 623.936 259.19 615.209 Q259.19 606.459 262.245 601.875 Q265.324 597.269 271.134 597.269 Z" fill="#000000" fill-rule="evenodd" fill-opacity="1" /><path clip-path="url(#clip280)" d="M283.079 576.964 L301.134 576.964 L301.134 578.581 L290.94 605.044 L286.972 605.044 L296.564 580.161 L283.079 580.161 L283.079 576.964 Z" fill="#000000" fill-rule="evenodd" fill-opacity="1" /><path clip-path="url(#clip280)" d="M130.024 226.064 Q133.38 226.782 135.255 229.05 Q137.154 231.319 137.154 234.652 Q137.154 239.768 133.635 242.568 Q130.117 245.369 123.635 245.369 Q121.459 245.369 119.144 244.93 Q116.853 244.513 114.399 243.656 L114.399 239.143 Q116.343 240.277 118.658 240.856 Q120.973 241.434 123.496 241.434 Q127.894 241.434 130.186 239.698 Q132.501 237.962 132.501 234.652 Q132.501 231.596 130.348 229.883 Q128.218 228.147 124.399 228.147 L120.371 228.147 L120.371 224.305 L124.584 224.305 Q128.033 224.305 129.862 222.939 Q131.691 221.55 131.691 218.958 Q131.691 216.295 129.792 214.883 Q127.917 213.448 124.399 213.448 Q122.478 213.448 120.279 213.865 Q118.08 214.282 115.441 215.161 L115.441 210.995 Q118.103 210.254 120.418 209.883 Q122.755 209.513 124.816 209.513 Q130.14 209.513 133.242 211.944 Q136.343 214.351 136.343 218.471 Q136.343 221.342 134.7 223.332 Q133.056 225.3 130.024 226.064 Z" fill="#000000" fill-rule="evenodd" fill-opacity="1" /><path clip-path="url(#clip280)" d="M146.019 238.819 L150.903 238.819 L150.903 244.698 L146.019 244.698 L146.019 238.819 Z" fill="#000000" fill-rule="evenodd" fill-opacity="1" /><path clip-path="url(#clip280)" d="M171.089 213.217 Q167.477 213.217 165.649 216.782 Q163.843 220.323 163.843 227.453 Q163.843 234.559 165.649 238.124 Q167.477 241.666 171.089 241.666 Q174.723 241.666 176.528 238.124 Q178.357 234.559 178.357 227.453 Q178.357 220.323 176.528 216.782 Q174.723 213.217 171.089 213.217 M171.089 209.513 Q176.899 209.513 179.954 214.12 Q183.033 218.703 183.033 227.453 Q183.033 236.18 179.954 240.786 Q176.899 245.369 171.089 245.369 Q165.278 245.369 162.2 240.786 Q159.144 236.18 159.144 227.453 Q159.144 218.703 162.2 214.12 Q165.278 209.513 171.089 209.513 Z" fill="#000000" fill-rule="evenodd" fill-opacity="1" /><path clip-path="url(#clip280)" d="M219.422 219.235 L208.843 229.86 L219.422 240.439 L216.667 243.24 L206.042 232.615 L195.417 243.24 L192.686 240.439 L203.241 229.86 L192.686 219.235 L195.417 216.434 L206.042 227.059 L216.667 216.434 L219.422 219.235 Z" fill="#000000" fill-rule="evenodd" fill-opacity="1" /><path clip-path="url(#clip280)" d="M231.783 240.763 L239.422 240.763 L239.422 214.397 L231.111 216.064 L231.111 211.805 L239.375 210.138 L244.051 210.138 L244.051 240.763 L251.69 240.763 L251.69 244.698 L231.783 244.698 L231.783 240.763 Z" fill="#000000" fill-rule="evenodd" fill-opacity="1" /><path clip-path="url(#clip280)" d="M271.134 213.217 Q267.523 213.217 265.695 216.782 Q263.889 220.323 263.889 227.453 Q263.889 234.559 265.695 238.124 Q267.523 241.666 271.134 241.666 Q274.769 241.666 276.574 238.124 Q278.403 234.559 278.403 227.453 Q278.403 220.323 276.574 216.782 Q274.769 213.217 271.134 213.217 M271.134 209.513 Q276.944 209.513 280 214.12 Q283.079 218.703 283.079 227.453 Q283.079 236.18 280 240.786 Q276.944 245.369 271.134 245.369 Q265.324 245.369 262.245 240.786 Q259.19 236.18 259.19 227.453 Q259.19 218.703 262.245 214.12 Q265.324 209.513 271.134 209.513 Z" fill="#000000" fill-rule="evenodd" fill-opacity="1" /><path clip-path="url(#clip280)" d="M283.079 189.208 L301.134 189.208 L301.134 190.825 L290.94 217.288 L286.972 217.288 L296.564 192.405 L283.079 192.405 L283.079 189.208 Z" fill="#000000" fill-rule="evenodd" fill-opacity="1" /><path clip-path="url(#clip280)" d="M18.0438 1014.24 L24.314 1014.24 Q22.5634 1017.9 21.704 1021.14 Q20.8447 1024.39 20.8447 1027.41 Q20.8447 1032.67 22.8817 1035.53 Q24.9187 1038.36 28.6745 1038.36 Q31.8255 1038.36 33.4488 1036.48 Q35.0402 1034.58 36.0269 1029.29 L36.8226 1025.41 Q38.1912 1018.22 41.6605 1014.81 Q45.098 1011.37 50.8908 1011.37 Q57.7976 1011.37 61.3624 1016.02 Q64.9272 1020.63 64.9272 1029.58 Q64.9272 1032.95 64.1633 1036.77 Q63.3994 1040.56 61.9035 1044.63 L55.2831 1044.63 Q57.4793 1040.72 58.5933 1036.96 Q59.7073 1033.21 59.7073 1029.58 Q59.7073 1024.07 57.543 1021.08 Q55.3786 1018.09 51.3682 1018.09 Q47.8671 1018.09 45.8937 1020.25 Q43.9204 1022.38 42.9337 1027.29 L42.1698 1031.2 Q40.7375 1038.39 37.682 1041.61 Q34.6264 1044.82 29.1837 1044.82 Q22.8817 1044.82 19.2532 1040.4 Q15.6248 1035.94 15.6248 1028.15 Q15.6248 1024.8 16.2295 1021.33 Q16.8343 1017.87 18.0438 1014.24 Z" fill="#000000" fill-rule="evenodd" fill-opacity="1" /><path clip-path="url(#clip280)" d="M18.2347 995.808 L28.3562 995.808 L28.3562 983.745 L32.9077 983.745 L32.9077 995.808 L52.2594 995.808 Q56.6199 995.808 57.8613 994.63 Q59.1026 993.421 59.1026 989.761 L59.1026 983.745 L64.0042 983.745 L64.0042 989.761 Q64.0042 996.54 61.4897 999.118 Q58.9434 1001.7 52.2594 1001.7 L32.9077 1001.7 L32.9077 1005.99 L28.3562 1005.99 L28.3562 1001.7 L18.2347 1001.7 L18.2347 995.808 Z" fill="#000000" fill-rule="evenodd" fill-opacity="1" /><path clip-path="url(#clip280)" d="M46.0847 959.842 Q46.0847 966.94 47.7079 969.677 Q49.3312 972.414 53.2461 972.414 Q56.3653 972.414 58.2114 970.377 Q60.0256 968.308 60.0256 964.775 Q60.0256 959.905 56.5881 956.977 Q53.1188 954.017 47.3897 954.017 L46.0847 954.017 L46.0847 959.842 M43.6657 948.161 L64.0042 948.161 L64.0042 954.017 L58.5933 954.017 Q61.8398 956.022 63.3994 959.014 Q64.9272 962.006 64.9272 966.335 Q64.9272 971.809 61.8716 975.056 Q58.7843 978.271 53.6281 978.271 Q47.6125 978.271 44.5569 974.26 Q41.5014 970.218 41.5014 962.229 L41.5014 954.017 L40.9285 954.017 Q36.8862 954.017 34.6901 956.691 Q32.4621 959.333 32.4621 964.139 Q32.4621 967.194 33.1941 970.091 Q33.9262 972.987 35.3903 975.661 L29.9795 975.661 Q28.7381 972.446 28.1334 969.422 Q27.4968 966.399 27.4968 963.534 Q27.4968 955.8 31.5072 951.98 Q35.5176 948.161 43.6657 948.161 Z" fill="#000000" fill-rule="evenodd" fill-opacity="1" /><path clip-path="url(#clip280)" d="M42.4881 906.465 L64.0042 906.465 L64.0042 912.322 L42.679 912.322 Q37.6183 912.322 35.1038 914.295 Q32.5894 916.269 32.5894 920.215 Q32.5894 924.958 35.6131 927.695 Q38.6368 930.432 43.8567 930.432 L64.0042 930.432 L64.0042 936.321 L28.3562 936.321 L28.3562 930.432 L33.8944 930.432 Q30.6797 928.332 29.0883 925.499 Q27.4968 922.634 27.4968 918.91 Q27.4968 912.767 31.3163 909.616 Q35.1038 906.465 42.4881 906.465 Z" fill="#000000" fill-rule="evenodd" fill-opacity="1" /><path clip-path="url(#clip280)" d="M33.7671 871.327 L14.479 871.327 L14.479 865.47 L64.0042 865.47 L64.0042 871.327 L58.657 871.327 Q61.8398 873.173 63.3994 876.005 Q64.9272 878.806 64.9272 882.753 Q64.9272 889.214 59.771 893.288 Q54.6147 897.331 46.212 897.331 Q37.8093 897.331 32.6531 893.288 Q27.4968 889.214 27.4968 882.753 Q27.4968 878.806 29.0564 876.005 Q30.5842 873.173 33.7671 871.327 M46.212 891.283 Q52.6732 891.283 56.3653 888.641 Q60.0256 885.968 60.0256 881.321 Q60.0256 876.674 56.3653 874 Q52.6732 871.327 46.212 871.327 Q39.7508 871.327 36.0905 874 Q32.3984 876.674 32.3984 881.321 Q32.3984 885.968 36.0905 888.641 Q39.7508 891.283 46.212 891.283 Z" fill="#000000" fill-rule="evenodd" fill-opacity="1" /><path clip-path="url(#clip280)" d="M46.0847 837.207 Q46.0847 844.304 47.7079 847.042 Q49.3312 849.779 53.2461 849.779 Q56.3653 849.779 58.2114 847.742 Q60.0256 845.673 60.0256 842.14 Q60.0256 837.27 56.5881 834.342 Q53.1188 831.382 47.3897 831.382 L46.0847 831.382 L46.0847 837.207 M43.6657 825.525 L64.0042 825.525 L64.0042 831.382 L58.5933 831.382 Q61.8398 833.387 63.3994 836.379 Q64.9272 839.371 64.9272 843.7 Q64.9272 849.174 61.8716 852.421 Q58.7843 855.635 53.6281 855.635 Q47.6125 855.635 44.5569 851.625 Q41.5014 847.583 41.5014 839.594 L41.5014 831.382 L40.9285 831.382 Q36.8862 831.382 34.6901 834.055 Q32.4621 836.697 32.4621 841.503 Q32.4621 844.559 33.1941 847.455 Q33.9262 850.352 35.3903 853.025 L29.9795 853.025 Q28.7381 849.811 28.1334 846.787 Q27.4968 843.763 27.4968 840.899 Q27.4968 833.164 31.5072 829.345 Q35.5176 825.525 43.6657 825.525 Z" fill="#000000" fill-rule="evenodd" fill-opacity="1" /><path clip-path="url(#clip280)" d="M33.8307 792.806 Q33.2578 793.792 33.0032 794.97 Q32.7167 796.116 32.7167 797.516 Q32.7167 802.482 35.9632 805.155 Q39.1779 807.797 45.2253 807.797 L64.0042 807.797 L64.0042 813.685 L28.3562 813.685 L28.3562 807.797 L33.8944 807.797 Q30.6479 805.951 29.0883 802.991 Q27.4968 800.031 27.4968 795.798 Q27.4968 795.193 27.5923 794.461 Q27.656 793.729 27.8151 792.838 L33.8307 792.806 Z" fill="#000000" fill-rule="evenodd" fill-opacity="1" /><path clip-path="url(#clip280)" d="M33.7671 764.351 L14.479 764.351 L14.479 758.495 L64.0042 758.495 L64.0042 764.351 L58.657 764.351 Q61.8398 766.197 63.3994 769.03 Q64.9272 771.831 64.9272 775.777 Q64.9272 782.239 59.771 786.313 Q54.6147 790.355 46.212 790.355 Q37.8093 790.355 32.6531 786.313 Q27.4968 782.239 27.4968 775.777 Q27.4968 771.831 29.0564 769.03 Q30.5842 766.197 33.7671 764.351 M46.212 784.307 Q52.6732 784.307 56.3653 781.666 Q60.0256 778.992 60.0256 774.345 Q60.0256 769.698 56.3653 767.025 Q52.6732 764.351 46.212 764.351 Q39.7508 764.351 36.0905 767.025 Q32.3984 769.698 32.3984 774.345 Q32.3984 778.992 36.0905 781.666 Q39.7508 784.307 46.212 784.307 Z" fill="#000000" fill-rule="evenodd" fill-opacity="1" /><path clip-path="url(#clip280)" d="M21.7677 719.027 L58.7206 719.027 L58.7206 711.261 Q58.7206 701.426 54.2646 696.875 Q49.8086 692.291 40.1964 692.291 Q30.6479 692.291 26.2237 696.875 Q21.7677 701.426 21.7677 711.261 L21.7677 719.027 M16.4842 725.457 L16.4842 712.248 Q16.4842 698.434 22.2451 691.973 Q27.9743 685.512 40.1964 685.512 Q52.4822 685.512 58.2432 692.005 Q64.0042 698.498 64.0042 712.248 L64.0042 725.457 L16.4842 725.457 Z" fill="#000000" fill-rule="evenodd" fill-opacity="1" /><path clip-path="url(#clip280)" d="M44.7161 645.026 L47.5806 645.026 L47.5806 671.953 Q53.6281 671.571 56.8109 668.324 Q59.9619 665.046 59.9619 659.221 Q59.9619 655.848 59.1344 652.696 Q58.3069 649.514 56.6518 646.394 L62.1899 646.394 Q63.5267 649.545 64.227 652.856 Q64.9272 656.166 64.9272 659.571 Q64.9272 668.102 59.9619 673.099 Q54.9967 678.064 46.5303 678.064 Q37.7774 678.064 32.6531 673.353 Q27.4968 668.611 27.4968 660.59 Q27.4968 653.397 32.1438 649.227 Q36.7589 645.026 44.7161 645.026 M42.9973 650.882 Q38.1912 650.946 35.3266 653.588 Q32.4621 656.198 32.4621 660.526 Q32.4621 665.428 35.2312 668.388 Q38.0002 671.316 43.0292 671.762 L42.9973 650.882 Z" fill="#000000" fill-rule="evenodd" fill-opacity="1" /><path clip-path="url(#clip280)" d="M28.3562 639.615 L28.3562 633.408 L58.275 622.268 L28.3562 611.128 L28.3562 604.922 L64.0042 618.29 L64.0042 626.247 L28.3562 639.615 Z" fill="#000000" fill-rule="evenodd" fill-opacity="1" /><path clip-path="url(#clip280)" d="M28.3562 596.837 L28.3562 590.981 L64.0042 590.981 L64.0042 596.837 L28.3562 596.837 M14.479 596.837 L14.479 590.981 L21.895 590.981 L21.895 596.837 L14.479 596.837 Z" fill="#000000" fill-rule="evenodd" fill-opacity="1" /><path clip-path="url(#clip280)" d="M46.0847 562.526 Q46.0847 569.624 47.7079 572.361 Q49.3312 575.099 53.2461 575.099 Q56.3653 575.099 58.2114 573.062 Q60.0256 570.993 60.0256 567.46 Q60.0256 562.59 56.5881 559.662 Q53.1188 556.702 47.3897 556.702 L46.0847 556.702 L46.0847 562.526 M43.6657 550.845 L64.0042 550.845 L64.0042 556.702 L58.5933 556.702 Q61.8398 558.707 63.3994 561.699 Q64.9272 564.691 64.9272 569.019 Q64.9272 574.494 61.8716 577.74 Q58.7843 580.955 53.6281 580.955 Q47.6125 580.955 44.5569 576.945 Q41.5014 572.902 41.5014 564.913 L41.5014 556.702 L40.9285 556.702 Q36.8862 556.702 34.6901 559.375 Q32.4621 562.017 32.4621 566.823 Q32.4621 569.879 33.1941 572.775 Q33.9262 575.671 35.3903 578.345 L29.9795 578.345 Q28.7381 575.13 28.1334 572.107 Q27.4968 569.083 27.4968 566.218 Q27.4968 558.484 31.5072 554.665 Q35.5176 550.845 43.6657 550.845 Z" fill="#000000" fill-rule="evenodd" fill-opacity="1" /><path clip-path="url(#clip280)" d="M18.2347 532.989 L28.3562 532.989 L28.3562 520.926 L32.9077 520.926 L32.9077 532.989 L52.2594 532.989 Q56.6199 532.989 57.8613 531.812 Q59.1026 530.602 59.1026 526.942 L59.1026 520.926 L64.0042 520.926 L64.0042 526.942 Q64.0042 533.721 61.4897 536.3 Q58.9434 538.878 52.2594 538.878 L32.9077 538.878 L32.9077 543.175 L28.3562 543.175 L28.3562 538.878 L18.2347 538.878 L18.2347 532.989 Z" fill="#000000" fill-rule="evenodd" fill-opacity="1" /><path clip-path="url(#clip280)" d="M28.3562 513.224 L28.3562 507.367 L64.0042 507.367 L64.0042 513.224 L28.3562 513.224 M14.479 513.224 L14.479 507.367 L21.895 507.367 L21.895 513.224 L14.479 513.224 Z" fill="#000000" fill-rule="evenodd" fill-opacity="1" /><path clip-path="url(#clip280)" d="M32.4621 481.3 Q32.4621 486.01 36.1542 488.748 Q39.8145 491.485 46.212 491.485 Q52.6095 491.485 56.3017 488.78 Q59.9619 486.042 59.9619 481.3 Q59.9619 476.621 56.2698 473.884 Q52.5777 471.147 46.212 471.147 Q39.8781 471.147 36.186 473.884 Q32.4621 476.621 32.4621 481.3 M27.4968 481.3 Q27.4968 473.661 32.4621 469.3 Q37.4273 464.94 46.212 464.94 Q54.9649 464.94 59.9619 469.3 Q64.9272 473.661 64.9272 481.3 Q64.9272 488.971 59.9619 493.331 Q54.9649 497.66 46.212 497.66 Q37.4273 497.66 32.4621 493.331 Q27.4968 488.971 27.4968 481.3 Z" fill="#000000" fill-rule="evenodd" fill-opacity="1" /><path clip-path="url(#clip280)" d="M42.4881 425.6 L64.0042 425.6 L64.0042 431.456 L42.679 431.456 Q37.6183 431.456 35.1038 433.43 Q32.5894 435.403 32.5894 439.35 Q32.5894 444.092 35.6131 446.83 Q38.6368 449.567 43.8567 449.567 L64.0042 449.567 L64.0042 455.455 L28.3562 455.455 L28.3562 449.567 L33.8944 449.567 Q30.6797 447.466 29.0883 444.633 Q27.4968 441.769 27.4968 438.045 Q27.4968 431.902 31.3163 428.751 Q35.1038 425.6 42.4881 425.6 Z" fill="#000000" fill-rule="evenodd" fill-opacity="1" /><polyline clip-path="url(#clip282)" style="stroke:#009af9; stroke-linecap:round; stroke-linejoin:round; stroke-width:4; stroke-opacity:1; fill:none" points="394.18,1384.24 437.397,1384.24 480.613,1384.24 523.83,1384.24 567.046,1384.24 610.263,1384.24 653.48,1384.24 696.696,1384.24 739.913,1384.24 783.129,1384.24 826.346,1384.24 869.563,1384.24 912.779,1384.24 955.996,1384.24 999.212,1384.24 1042.43,1384.24 1085.65,1384.24 1128.86,1384.24 1172.08,1384.24 1215.3,1384.24 1258.51,1384.24 1301.73,1384.24 1344.95,1384.24 1388.16,1384.24 1431.38,1384.24 1474.59,1384.24 1517.81,1384.24 1561.03,1384.24 1604.24,1384.24 1647.46,1384.24 1690.68,1384.24 1733.89,1384.24 1777.11,1384.24 1820.33,1384.24 1863.54,1384.24 1906.76,1384.24 1949.98,1384.24 1993.19,1384.24 2036.41,1384.24 2079.63,1384.24 2122.84,1384.24 2166.06,1384.24 2209.28,1384.24 2252.49,1384.24 2295.71,1384.24 "/>
<polyline clip-path="url(#clip282)" style="stroke:#e26f46; stroke-linecap:round; stroke-linejoin:round; stroke-width:4; stroke-opacity:1; fill:none" points="394.18,1384.13 437.397,1384.23 480.613,1384.24 523.83,1384.24 567.046,1384.24 610.263,1384.24 653.48,1384.24 696.696,1384.24 739.913,1384.24 783.129,1384.24 826.346,1384.24 869.563,1384.24 912.779,1384.24 955.996,1384.24 999.212,1384.24 1042.43,1384.24 1085.65,1384.24 1128.86,1384.24 1172.08,1384.24 1215.3,1384.24 1258.51,1384.24 1301.73,1384.24 1344.95,1384.24 1388.16,1384.24 1431.38,1384.24 1474.59,1384.24 1517.81,1384.24 1561.03,1384.24 1604.24,1384.24 1647.46,1384.24 1690.68,1384.24 1733.89,1384.24 1777.11,1384.24 1820.33,1384.24 1863.54,1384.24 1906.76,1384.24 1949.98,1384.24 1993.19,1384.24 2036.41,1384.24 2079.63,1384.24 2122.84,1384.24 2166.06,1384.24 2209.28,1384.24 2252.49,1384.24 2295.71,1384.24 "/>
<polyline clip-path="url(#clip282)" style="stroke:#3da44d; stroke-linecap:round; stroke-linejoin:round; stroke-width:4; stroke-opacity:1; fill:none" points="394.18,1377.87 437.397,1384.13 480.613,1384.22 523.83,1384.23 567.046,1384.24 610.263,1384.24 653.48,1384.24 696.696,1384.24 739.913,1384.24 783.129,1384.24 826.346,1384.24 869.563,1384.24 912.779,1384.24 955.996,1384.24 999.212,1384.24 1042.43,1384.24 1085.65,1384.24 1128.86,1384.24 1172.08,1384.24 1215.3,1384.24 1258.51,1384.24 1301.73,1384.24 1344.95,1384.24 1388.16,1384.24 1431.38,1384.24 1474.59,1384.24 1517.81,1384.24 1561.03,1384.24 1604.24,1384.24 1647.46,1384.24 1690.68,1384.24 1733.89,1384.24 1777.11,1384.24 1820.33,1384.24 1863.54,1384.24 1906.76,1384.24 1949.98,1384.24 1993.19,1384.24 2036.41,1384.24 2079.63,1384.24 2122.84,1384.24 2166.06,1384.24 2209.28,1384.24 2252.49,1384.24 2295.71,1384.24 "/>
<polyline clip-path="url(#clip282)" style="stroke:#c271d2; stroke-linecap:round; stroke-linejoin:round; stroke-width:4; stroke-opacity:1; fill:none" points="394.18,86.1857 437.397,1377.51 480.613,1383.55 523.83,1384.1 567.046,1384.19 610.263,1384.22 653.48,1384.23 696.696,1384.23 739.913,1384.24 783.129,1384.24 826.346,1384.24 869.563,1384.24 912.779,1384.24 955.996,1384.24 999.212,1384.24 1042.43,1384.24 1085.65,1384.24 1128.86,1384.24 1172.08,1384.24 1215.3,1384.24 1258.51,1384.24 1301.73,1384.24 1344.95,1384.24 1388.16,1384.24 1431.38,1384.24 1474.59,1384.24 1517.81,1384.24 1561.03,1384.24 1604.24,1384.24 1647.46,1384.24 1690.68,1384.24 1733.89,1384.24 1777.11,1384.24 1820.33,1384.24 1863.54,1384.24 1906.76,1384.24 1949.98,1384.24 1993.19,1384.24 2036.41,1384.24 2079.63,1384.24 2122.84,1384.24 2166.06,1384.24 2209.28,1384.24 2252.49,1384.24 2295.71,1384.24 "/>
<path clip-path="url(#clip280)" d="M1666.95 352.309 L2285.57 352.309 L2285.57 93.1086 L1666.95 93.1086  Z" fill="#ffffff" fill-rule="evenodd" fill-opacity="1"/>
<polyline clip-path="url(#clip280)" style="stroke:#000000; stroke-linecap:round; stroke-linejoin:round; stroke-width:4; stroke-opacity:1; fill:none" points="1666.95,352.309 2285.57,352.309 2285.57,93.1086 1666.95,93.1086 1666.95,352.309 "/>
<polyline clip-path="url(#clip280)" style="stroke:#009af9; stroke-linecap:round; stroke-linejoin:round; stroke-width:4; stroke-opacity:1; fill:none" points="1689.34,144.949 1823.72,144.949 "/>
<path clip-path="url(#clip280)" d="M1862.62 126.21 L1862.62 129.752 L1858.55 129.752 Q1856.25 129.752 1855.35 130.678 Q1854.47 131.604 1854.47 134.011 L1854.47 136.303 L1861.49 136.303 L1861.49 139.613 L1854.47 139.613 L1854.47 162.229 L1850.19 162.229 L1850.19 139.613 L1846.11 139.613 L1846.11 136.303 L1850.19 136.303 L1850.19 134.497 Q1850.19 130.169 1852.2 128.201 Q1854.22 126.21 1858.59 126.21 L1862.62 126.21 Z" fill="#000000" fill-rule="evenodd" fill-opacity="1" /><path clip-path="url(#clip280)" d="M1866.18 136.303 L1870.44 136.303 L1870.44 162.229 L1866.18 162.229 L1866.18 136.303 M1866.18 126.21 L1870.44 126.21 L1870.44 131.604 L1866.18 131.604 L1866.18 126.21 Z" fill="#000000" fill-rule="evenodd" fill-opacity="1" /><path clip-path="url(#clip280)" d="M1894.38 140.284 Q1893.66 139.868 1892.8 139.682 Q1891.97 139.474 1890.95 139.474 Q1887.34 139.474 1885.4 141.835 Q1883.48 144.173 1883.48 148.571 L1883.48 162.229 L1879.19 162.229 L1879.19 136.303 L1883.48 136.303 L1883.48 140.331 Q1884.82 137.969 1886.97 136.835 Q1889.12 135.678 1892.2 135.678 Q1892.64 135.678 1893.17 135.747 Q1893.71 135.794 1894.36 135.909 L1894.38 140.284 Z" fill="#000000" fill-rule="evenodd" fill-opacity="1" /><path clip-path="url(#clip280)" d="M1915.37 137.067 L1915.37 141.094 Q1913.57 140.169 1911.62 139.706 Q1909.68 139.243 1907.6 139.243 Q1904.42 139.243 1902.83 140.215 Q1901.25 141.187 1901.25 143.131 Q1901.25 144.613 1902.39 145.469 Q1903.52 146.303 1906.95 147.067 L1908.41 147.391 Q1912.94 148.363 1914.84 150.145 Q1916.76 151.905 1916.76 155.076 Q1916.76 158.687 1913.89 160.793 Q1911.04 162.9 1906.05 162.9 Q1903.96 162.9 1901.69 162.483 Q1899.45 162.09 1896.95 161.28 L1896.95 156.881 Q1899.31 158.108 1901.6 158.733 Q1903.89 159.335 1906.14 159.335 Q1909.15 159.335 1910.77 158.317 Q1912.39 157.275 1912.39 155.4 Q1912.39 153.664 1911.21 152.738 Q1910.05 151.812 1906.09 150.956 L1904.61 150.608 Q1900.65 149.775 1898.89 148.062 Q1897.13 146.326 1897.13 143.317 Q1897.13 139.659 1899.73 137.669 Q1902.32 135.678 1907.09 135.678 Q1909.45 135.678 1911.53 136.025 Q1913.61 136.372 1915.37 137.067 Z" fill="#000000" fill-rule="evenodd" fill-opacity="1" /><path clip-path="url(#clip280)" d="M1927.76 128.942 L1927.76 136.303 L1936.53 136.303 L1936.53 139.613 L1927.76 139.613 L1927.76 153.687 Q1927.76 156.858 1928.61 157.761 Q1929.49 158.664 1932.16 158.664 L1936.53 158.664 L1936.53 162.229 L1932.16 162.229 Q1927.23 162.229 1925.35 160.4 Q1923.48 158.548 1923.48 153.687 L1923.48 139.613 L1920.35 139.613 L1920.35 136.303 L1923.48 136.303 L1923.48 128.942 L1927.76 128.942 Z" fill="#000000" fill-rule="evenodd" fill-opacity="1" /><path clip-path="url(#clip280)" d="M1974.26 140.238 L1974.26 126.21 L1978.52 126.21 L1978.52 162.229 L1974.26 162.229 L1974.26 158.34 Q1972.92 160.655 1970.86 161.789 Q1968.82 162.9 1965.95 162.9 Q1961.25 162.9 1958.29 159.15 Q1955.35 155.4 1955.35 149.289 Q1955.35 143.178 1958.29 139.428 Q1961.25 135.678 1965.95 135.678 Q1968.82 135.678 1970.86 136.812 Q1972.92 137.923 1974.26 140.238 M1959.75 149.289 Q1959.75 153.988 1961.67 156.673 Q1963.61 159.335 1966.99 159.335 Q1970.37 159.335 1972.32 156.673 Q1974.26 153.988 1974.26 149.289 Q1974.26 144.59 1972.32 141.928 Q1970.37 139.243 1966.99 139.243 Q1963.61 139.243 1961.67 141.928 Q1959.75 144.59 1959.75 149.289 Z" fill="#000000" fill-rule="evenodd" fill-opacity="1" /><path clip-path="url(#clip280)" d="M2009.47 148.201 L2009.47 150.284 L1989.89 150.284 Q1990.16 154.682 1992.53 156.997 Q1994.91 159.289 1999.15 159.289 Q2001.6 159.289 2003.89 158.687 Q2006.21 158.085 2008.48 156.881 L2008.48 160.909 Q2006.18 161.881 2003.78 162.391 Q2001.37 162.9 1998.89 162.9 Q1992.69 162.9 1989.05 159.289 Q1985.44 155.678 1985.44 149.52 Q1985.44 143.155 1988.87 139.428 Q1992.32 135.678 1998.15 135.678 Q2003.38 135.678 2006.41 139.057 Q2009.47 142.414 2009.47 148.201 M2005.21 146.951 Q2005.16 143.456 2003.24 141.372 Q2001.35 139.289 1998.2 139.289 Q1994.63 139.289 1992.48 141.303 Q1990.35 143.317 1990.03 146.974 L2005.21 146.951 Z" fill="#000000" fill-rule="evenodd" fill-opacity="1" /><path clip-path="url(#clip280)" d="M2031.48 140.284 Q2030.77 139.868 2029.91 139.682 Q2029.08 139.474 2028.06 139.474 Q2024.45 139.474 2022.5 141.835 Q2020.58 144.173 2020.58 148.571 L2020.58 162.229 L2016.3 162.229 L2016.3 136.303 L2020.58 136.303 L2020.58 140.331 Q2021.92 137.969 2024.08 136.835 Q2026.23 135.678 2029.31 135.678 Q2029.75 135.678 2030.28 135.747 Q2030.81 135.794 2031.46 135.909 L2031.48 140.284 Z" fill="#000000" fill-rule="evenodd" fill-opacity="1" /><path clip-path="url(#clip280)" d="M2035.95 136.303 L2040.21 136.303 L2040.21 162.229 L2035.95 162.229 L2035.95 136.303 M2035.95 126.21 L2040.21 126.21 L2040.21 131.604 L2035.95 131.604 L2035.95 126.21 Z" fill="#000000" fill-rule="evenodd" fill-opacity="1" /><path clip-path="url(#clip280)" d="M2046.07 136.303 L2050.58 136.303 L2058.68 158.062 L2066.78 136.303 L2071.3 136.303 L2061.58 162.229 L2055.79 162.229 L2046.07 136.303 Z" fill="#000000" fill-rule="evenodd" fill-opacity="1" /><path clip-path="url(#clip280)" d="M2088.96 149.196 Q2083.8 149.196 2081.81 150.377 Q2079.82 151.557 2079.82 154.405 Q2079.82 156.673 2081.3 158.016 Q2082.8 159.335 2085.37 159.335 Q2088.91 159.335 2091.04 156.835 Q2093.2 154.312 2093.2 150.145 L2093.2 149.196 L2088.96 149.196 M2097.46 147.437 L2097.46 162.229 L2093.2 162.229 L2093.2 158.293 Q2091.74 160.655 2089.56 161.789 Q2087.39 162.9 2084.24 162.9 Q2080.26 162.9 2077.9 160.678 Q2075.56 158.432 2075.56 154.682 Q2075.56 150.307 2078.47 148.085 Q2081.41 145.863 2087.22 145.863 L2093.2 145.863 L2093.2 145.446 Q2093.2 142.507 2091.25 140.909 Q2089.33 139.289 2085.84 139.289 Q2083.61 139.289 2081.51 139.821 Q2079.4 140.354 2077.46 141.419 L2077.46 137.483 Q2079.79 136.581 2081.99 136.141 Q2084.19 135.678 2086.28 135.678 Q2091.9 135.678 2094.68 138.594 Q2097.46 141.511 2097.46 147.437 Z" fill="#000000" fill-rule="evenodd" fill-opacity="1" /><path clip-path="url(#clip280)" d="M2110.44 128.942 L2110.44 136.303 L2119.22 136.303 L2119.22 139.613 L2110.44 139.613 L2110.44 153.687 Q2110.44 156.858 2111.3 157.761 Q2112.18 158.664 2114.84 158.664 L2119.22 158.664 L2119.22 162.229 L2114.84 162.229 Q2109.91 162.229 2108.03 160.4 Q2106.16 158.548 2106.16 153.687 L2106.16 139.613 L2103.03 139.613 L2103.03 136.303 L2106.16 136.303 L2106.16 128.942 L2110.44 128.942 Z" fill="#000000" fill-rule="evenodd" fill-opacity="1" /><path clip-path="url(#clip280)" d="M2124.82 136.303 L2129.08 136.303 L2129.08 162.229 L2124.82 162.229 L2124.82 136.303 M2124.82 126.21 L2129.08 126.21 L2129.08 131.604 L2124.82 131.604 L2124.82 126.21 Z" fill="#000000" fill-rule="evenodd" fill-opacity="1" /><path clip-path="url(#clip280)" d="M2134.93 136.303 L2139.45 136.303 L2147.55 158.062 L2155.65 136.303 L2160.16 136.303 L2150.44 162.229 L2144.65 162.229 L2134.93 136.303 Z" fill="#000000" fill-rule="evenodd" fill-opacity="1" /><path clip-path="url(#clip280)" d="M2188.22 148.201 L2188.22 150.284 L2168.64 150.284 Q2168.91 154.682 2171.28 156.997 Q2173.66 159.289 2177.9 159.289 Q2180.35 159.289 2182.64 158.687 Q2184.96 158.085 2187.22 156.881 L2187.22 160.909 Q2184.93 161.881 2182.53 162.391 Q2180.12 162.9 2177.64 162.9 Q2171.44 162.9 2167.8 159.289 Q2164.19 155.678 2164.19 149.52 Q2164.19 143.155 2167.62 139.428 Q2171.07 135.678 2176.9 135.678 Q2182.13 135.678 2185.16 139.057 Q2188.22 142.414 2188.22 148.201 M2183.96 146.951 Q2183.91 143.456 2181.99 141.372 Q2180.09 139.289 2176.95 139.289 Q2173.38 139.289 2171.23 141.303 Q2169.1 143.317 2168.78 146.974 L2183.96 146.951 Z" fill="#000000" fill-rule="evenodd" fill-opacity="1" /><polyline clip-path="url(#clip280)" style="stroke:#e26f46; stroke-linecap:round; stroke-linejoin:round; stroke-width:4; stroke-opacity:1; fill:none" points="1689.34,196.789 1823.72,196.789 "/>
<path clip-path="url(#clip280)" d="M1864.54 188.907 L1864.54 192.934 Q1862.74 192.009 1860.79 191.546 Q1858.85 191.083 1856.76 191.083 Q1853.59 191.083 1851.99 192.055 Q1850.42 193.027 1850.42 194.971 Q1850.42 196.453 1851.55 197.309 Q1852.69 198.143 1856.11 198.907 L1857.57 199.231 Q1862.11 200.203 1864.01 201.985 Q1865.93 203.745 1865.93 206.916 Q1865.93 210.527 1863.06 212.633 Q1860.21 214.74 1855.21 214.74 Q1853.13 214.74 1850.86 214.323 Q1848.61 213.93 1846.11 213.12 L1846.11 208.721 Q1848.48 209.948 1850.77 210.573 Q1853.06 211.175 1855.3 211.175 Q1858.31 211.175 1859.93 210.157 Q1861.55 209.115 1861.55 207.24 Q1861.55 205.504 1860.37 204.578 Q1859.22 203.652 1855.26 202.796 L1853.78 202.448 Q1849.82 201.615 1848.06 199.902 Q1846.3 198.166 1846.3 195.157 Q1846.3 191.499 1848.89 189.509 Q1851.49 187.518 1856.25 187.518 Q1858.61 187.518 1860.7 187.865 Q1862.78 188.212 1864.54 188.907 Z" fill="#000000" fill-rule="evenodd" fill-opacity="1" /><path clip-path="url(#clip280)" d="M1894.89 200.041 L1894.89 202.124 L1875.3 202.124 Q1875.58 206.522 1877.94 208.837 Q1880.33 211.129 1884.56 211.129 Q1887.02 211.129 1889.31 210.527 Q1891.62 209.925 1893.89 208.721 L1893.89 212.749 Q1891.6 213.721 1889.19 214.231 Q1886.79 214.74 1884.31 214.74 Q1878.11 214.74 1874.47 211.129 Q1870.86 207.518 1870.86 201.36 Q1870.86 194.995 1874.29 191.268 Q1877.73 187.518 1883.57 187.518 Q1888.8 187.518 1891.83 190.897 Q1894.89 194.254 1894.89 200.041 M1890.63 198.791 Q1890.58 195.296 1888.66 193.212 Q1886.76 191.129 1883.61 191.129 Q1880.05 191.129 1877.9 193.143 Q1875.77 195.157 1875.44 198.814 L1890.63 198.791 Z" fill="#000000" fill-rule="evenodd" fill-opacity="1" /><path clip-path="url(#clip280)" d="M1920.54 189.138 L1920.54 193.12 Q1918.73 192.124 1916.9 191.638 Q1915.1 191.129 1913.24 191.129 Q1909.1 191.129 1906.81 193.768 Q1904.52 196.384 1904.52 201.129 Q1904.52 205.874 1906.81 208.513 Q1909.1 211.129 1913.24 211.129 Q1915.1 211.129 1916.9 210.643 Q1918.73 210.133 1920.54 209.138 L1920.54 213.073 Q1918.75 213.907 1916.83 214.323 Q1914.93 214.74 1912.78 214.74 Q1906.92 214.74 1903.48 211.059 Q1900.03 207.379 1900.03 201.129 Q1900.03 194.786 1903.5 191.152 Q1906.99 187.518 1913.06 187.518 Q1915.03 187.518 1916.9 187.935 Q1918.78 188.328 1920.54 189.138 Z" fill="#000000" fill-rule="evenodd" fill-opacity="1" /><path clip-path="url(#clip280)" d="M1937.99 191.129 Q1934.56 191.129 1932.57 193.814 Q1930.58 196.476 1930.58 201.129 Q1930.58 205.782 1932.55 208.467 Q1934.54 211.129 1937.99 211.129 Q1941.39 211.129 1943.38 208.444 Q1945.37 205.758 1945.37 201.129 Q1945.37 196.522 1943.38 193.837 Q1941.39 191.129 1937.99 191.129 M1937.99 187.518 Q1943.54 187.518 1946.72 191.129 Q1949.89 194.74 1949.89 201.129 Q1949.89 207.495 1946.72 211.129 Q1943.54 214.74 1937.99 214.74 Q1932.41 214.74 1929.24 211.129 Q1926.09 207.495 1926.09 201.129 Q1926.09 194.74 1929.24 191.129 Q1932.41 187.518 1937.99 187.518 Z" fill="#000000" fill-rule="evenodd" fill-opacity="1" /><path clip-path="url(#clip280)" d="M1978.5 198.421 L1978.5 214.069 L1974.24 214.069 L1974.24 198.559 Q1974.24 194.879 1972.8 193.05 Q1971.37 191.222 1968.5 191.222 Q1965.05 191.222 1963.06 193.421 Q1961.07 195.62 1961.07 199.416 L1961.07 214.069 L1956.79 214.069 L1956.79 188.143 L1961.07 188.143 L1961.07 192.171 Q1962.6 189.833 1964.66 188.675 Q1966.74 187.518 1969.45 187.518 Q1973.92 187.518 1976.21 190.296 Q1978.5 193.05 1978.5 198.421 Z" fill="#000000" fill-rule="evenodd" fill-opacity="1" /><path clip-path="url(#clip280)" d="M2004.05 192.078 L2004.05 178.05 L2008.31 178.05 L2008.31 214.069 L2004.05 214.069 L2004.05 210.18 Q2002.71 212.495 2000.65 213.629 Q1998.61 214.74 1995.74 214.74 Q1991.04 214.74 1988.08 210.99 Q1985.14 207.24 1985.14 201.129 Q1985.14 195.018 1988.08 191.268 Q1991.04 187.518 1995.74 187.518 Q1998.61 187.518 2000.65 188.652 Q2002.71 189.763 2004.05 192.078 M1989.54 201.129 Q1989.54 205.828 1991.46 208.513 Q1993.41 211.175 1996.79 211.175 Q2000.16 211.175 2002.11 208.513 Q2004.05 205.828 2004.05 201.129 Q2004.05 196.43 2002.11 193.768 Q2000.16 191.083 1996.79 191.083 Q1993.41 191.083 1991.46 193.768 Q1989.54 196.43 1989.54 201.129 Z" fill="#000000" fill-rule="evenodd" fill-opacity="1" /><path clip-path="url(#clip280)" d="M2049.22 192.078 L2049.22 178.05 L2053.47 178.05 L2053.47 214.069 L2049.22 214.069 L2049.22 210.18 Q2047.87 212.495 2045.81 213.629 Q2043.78 214.74 2040.91 214.74 Q2036.21 214.74 2033.24 210.99 Q2030.3 207.24 2030.3 201.129 Q2030.3 195.018 2033.24 191.268 Q2036.21 187.518 2040.91 187.518 Q2043.78 187.518 2045.81 188.652 Q2047.87 189.763 2049.22 192.078 M2034.7 201.129 Q2034.7 205.828 2036.62 208.513 Q2038.57 211.175 2041.95 211.175 Q2045.33 211.175 2047.27 208.513 Q2049.22 205.828 2049.22 201.129 Q2049.22 196.43 2047.27 193.768 Q2045.33 191.083 2041.95 191.083 Q2038.57 191.083 2036.62 193.768 Q2034.7 196.43 2034.7 201.129 Z" fill="#000000" fill-rule="evenodd" fill-opacity="1" /><path clip-path="url(#clip280)" d="M2084.42 200.041 L2084.42 202.124 L2064.84 202.124 Q2065.12 206.522 2067.48 208.837 Q2069.86 211.129 2074.1 211.129 Q2076.55 211.129 2078.85 210.527 Q2081.16 209.925 2083.43 208.721 L2083.43 212.749 Q2081.14 213.721 2078.73 214.231 Q2076.32 214.74 2073.85 214.74 Q2067.64 214.74 2064.01 211.129 Q2060.4 207.518 2060.4 201.36 Q2060.4 194.995 2063.82 191.268 Q2067.27 187.518 2073.1 187.518 Q2078.34 187.518 2081.37 190.897 Q2084.42 194.254 2084.42 200.041 M2080.16 198.791 Q2080.12 195.296 2078.2 193.212 Q2076.3 191.129 2073.15 191.129 Q2069.59 191.129 2067.43 193.143 Q2065.3 195.157 2064.98 198.814 L2080.16 198.791 Z" fill="#000000" fill-rule="evenodd" fill-opacity="1" /><path clip-path="url(#clip280)" d="M2106.44 192.124 Q2105.72 191.708 2104.86 191.522 Q2104.03 191.314 2103.01 191.314 Q2099.4 191.314 2097.46 193.675 Q2095.53 196.013 2095.53 200.411 L2095.53 214.069 L2091.25 214.069 L2091.25 188.143 L2095.53 188.143 L2095.53 192.171 Q2096.88 189.809 2099.03 188.675 Q2101.18 187.518 2104.26 187.518 Q2104.7 187.518 2105.23 187.587 Q2105.77 187.634 2106.41 187.749 L2106.44 192.124 Z" fill="#000000" fill-rule="evenodd" fill-opacity="1" /><path clip-path="url(#clip280)" d="M2110.91 188.143 L2115.16 188.143 L2115.16 214.069 L2110.91 214.069 L2110.91 188.143 M2110.91 178.05 L2115.16 178.05 L2115.16 183.444 L2110.91 183.444 L2110.91 178.05 Z" fill="#000000" fill-rule="evenodd" fill-opacity="1" /><path clip-path="url(#clip280)" d="M2121.02 188.143 L2125.53 188.143 L2133.64 209.902 L2141.74 188.143 L2146.25 188.143 L2136.53 214.069 L2130.74 214.069 L2121.02 188.143 Z" fill="#000000" fill-rule="evenodd" fill-opacity="1" /><path clip-path="url(#clip280)" d="M2163.91 201.036 Q2158.75 201.036 2156.76 202.217 Q2154.77 203.397 2154.77 206.245 Q2154.77 208.513 2156.25 209.856 Q2157.76 211.175 2160.33 211.175 Q2163.87 211.175 2166 208.675 Q2168.15 206.152 2168.15 201.985 L2168.15 201.036 L2163.91 201.036 M2172.41 199.277 L2172.41 214.069 L2168.15 214.069 L2168.15 210.133 Q2166.69 212.495 2164.52 213.629 Q2162.34 214.74 2159.19 214.74 Q2155.21 214.74 2152.85 212.518 Q2150.51 210.272 2150.51 206.522 Q2150.51 202.147 2153.43 199.925 Q2156.37 197.703 2162.18 197.703 L2168.15 197.703 L2168.15 197.286 Q2168.15 194.347 2166.21 192.749 Q2164.28 191.129 2160.79 191.129 Q2158.57 191.129 2156.46 191.661 Q2154.35 192.194 2152.41 193.259 L2152.41 189.323 Q2154.75 188.421 2156.95 187.981 Q2159.15 187.518 2161.23 187.518 Q2166.85 187.518 2169.63 190.434 Q2172.41 193.351 2172.41 199.277 Z" fill="#000000" fill-rule="evenodd" fill-opacity="1" /><path clip-path="url(#clip280)" d="M2185.4 180.782 L2185.4 188.143 L2194.17 188.143 L2194.17 191.453 L2185.4 191.453 L2185.4 205.527 Q2185.4 208.698 2186.25 209.601 Q2187.13 210.504 2189.79 210.504 L2194.17 210.504 L2194.17 214.069 L2189.79 214.069 Q2184.86 214.069 2182.99 212.24 Q2181.11 210.388 2181.11 205.527 L2181.11 191.453 L2177.99 191.453 L2177.99 188.143 L2181.11 188.143 L2181.11 180.782 L2185.4 180.782 Z" fill="#000000" fill-rule="evenodd" fill-opacity="1" /><path clip-path="url(#clip280)" d="M2199.77 188.143 L2204.03 188.143 L2204.03 214.069 L2199.77 214.069 L2199.77 188.143 M2199.77 178.05 L2204.03 178.05 L2204.03 183.444 L2199.77 183.444 L2199.77 178.05 Z" fill="#000000" fill-rule="evenodd" fill-opacity="1" /><path clip-path="url(#clip280)" d="M2209.89 188.143 L2214.4 188.143 L2222.5 209.902 L2230.6 188.143 L2235.12 188.143 L2225.4 214.069 L2219.61 214.069 L2209.89 188.143 Z" fill="#000000" fill-rule="evenodd" fill-opacity="1" /><path clip-path="url(#clip280)" d="M2263.17 200.041 L2263.17 202.124 L2243.59 202.124 Q2243.87 206.522 2246.23 208.837 Q2248.61 211.129 2252.85 211.129 Q2255.3 211.129 2257.59 210.527 Q2259.91 209.925 2262.18 208.721 L2262.18 212.749 Q2259.89 213.721 2257.48 214.231 Q2255.07 214.74 2252.59 214.74 Q2246.39 214.74 2242.76 211.129 Q2239.15 207.518 2239.15 201.36 Q2239.15 194.995 2242.57 191.268 Q2246.02 187.518 2251.85 187.518 Q2257.08 187.518 2260.12 190.897 Q2263.17 194.254 2263.17 200.041 M2258.91 198.791 Q2258.87 195.296 2256.95 193.212 Q2255.05 191.129 2251.9 191.129 Q2248.33 191.129 2246.18 193.143 Q2244.05 195.157 2243.73 198.814 L2258.91 198.791 Z" fill="#000000" fill-rule="evenodd" fill-opacity="1" /><polyline clip-path="url(#clip280)" style="stroke:#3da44d; stroke-linecap:round; stroke-linejoin:round; stroke-width:4; stroke-opacity:1; fill:none" points="1689.34,248.629 1823.72,248.629 "/>
<path clip-path="url(#clip280)" d="M1853.52 232.622 L1853.52 239.983 L1862.3 239.983 L1862.3 243.293 L1853.52 243.293 L1853.52 257.367 Q1853.52 260.538 1854.38 261.441 Q1855.26 262.344 1857.92 262.344 L1862.3 262.344 L1862.3 265.909 L1857.92 265.909 Q1852.99 265.909 1851.11 264.08 Q1849.24 262.228 1849.24 257.367 L1849.24 243.293 L1846.11 243.293 L1846.11 239.983 L1849.24 239.983 L1849.24 232.622 L1853.52 232.622 Z" fill="#000000" fill-rule="evenodd" fill-opacity="1" /><path clip-path="url(#clip280)" d="M1889.45 250.261 L1889.45 265.909 L1885.19 265.909 L1885.19 250.399 Q1885.19 246.719 1883.75 244.89 Q1882.32 243.062 1879.45 243.062 Q1876 243.062 1874.01 245.261 Q1872.02 247.46 1872.02 251.256 L1872.02 265.909 L1867.74 265.909 L1867.74 229.89 L1872.02 229.89 L1872.02 244.011 Q1873.55 241.673 1875.61 240.515 Q1877.69 239.358 1880.4 239.358 Q1884.86 239.358 1887.16 242.136 Q1889.45 244.89 1889.45 250.261 Z" fill="#000000" fill-rule="evenodd" fill-opacity="1" /><path clip-path="url(#clip280)" d="M1897.94 239.983 L1902.2 239.983 L1902.2 265.909 L1897.94 265.909 L1897.94 239.983 M1897.94 229.89 L1902.2 229.89 L1902.2 235.284 L1897.94 235.284 L1897.94 229.89 Z" fill="#000000" fill-rule="evenodd" fill-opacity="1" /><path clip-path="url(#clip280)" d="M1926.14 243.964 Q1925.42 243.548 1924.56 243.362 Q1923.73 243.154 1922.71 243.154 Q1919.1 243.154 1917.16 245.515 Q1915.23 247.853 1915.23 252.251 L1915.23 265.909 L1910.95 265.909 L1910.95 239.983 L1915.23 239.983 L1915.23 244.011 Q1916.58 241.649 1918.73 240.515 Q1920.88 239.358 1923.96 239.358 Q1924.4 239.358 1924.93 239.427 Q1925.47 239.474 1926.11 239.589 L1926.14 243.964 Z" fill="#000000" fill-rule="evenodd" fill-opacity="1" /><path clip-path="url(#clip280)" d="M1946.83 243.918 L1946.83 229.89 L1951.09 229.89 L1951.09 265.909 L1946.83 265.909 L1946.83 262.02 Q1945.49 264.335 1943.43 265.469 Q1941.39 266.58 1938.52 266.58 Q1933.82 266.58 1930.86 262.83 Q1927.92 259.08 1927.92 252.969 Q1927.92 246.858 1930.86 243.108 Q1933.82 239.358 1938.52 239.358 Q1941.39 239.358 1943.43 240.492 Q1945.49 241.603 1946.83 243.918 M1932.32 252.969 Q1932.32 257.668 1934.24 260.353 Q1936.18 263.015 1939.56 263.015 Q1942.94 263.015 1944.89 260.353 Q1946.83 257.668 1946.83 252.969 Q1946.83 248.27 1944.89 245.608 Q1942.94 242.923 1939.56 242.923 Q1936.18 242.923 1934.24 245.608 Q1932.32 248.27 1932.32 252.969 Z" fill="#000000" fill-rule="evenodd" fill-opacity="1" /><path clip-path="url(#clip280)" d="M1991.99 243.918 L1991.99 229.89 L1996.25 229.89 L1996.25 265.909 L1991.99 265.909 L1991.99 262.02 Q1990.65 264.335 1988.59 265.469 Q1986.55 266.58 1983.68 266.58 Q1978.98 266.58 1976.02 262.83 Q1973.08 259.08 1973.08 252.969 Q1973.08 246.858 1976.02 243.108 Q1978.98 239.358 1983.68 239.358 Q1986.55 239.358 1988.59 240.492 Q1990.65 241.603 1991.99 243.918 M1977.48 252.969 Q1977.48 257.668 1979.4 260.353 Q1981.35 263.015 1984.73 263.015 Q1988.1 263.015 1990.05 260.353 Q1991.99 257.668 1991.99 252.969 Q1991.99 248.27 1990.05 245.608 Q1988.1 242.923 1984.73 242.923 Q1981.35 242.923 1979.4 245.608 Q1977.48 248.27 1977.48 252.969 Z" fill="#000000" fill-rule="evenodd" fill-opacity="1" /><path clip-path="url(#clip280)" d="M2027.2 251.881 L2027.2 253.964 L2007.62 253.964 Q2007.9 258.362 2010.26 260.677 Q2012.64 262.969 2016.88 262.969 Q2019.33 262.969 2021.62 262.367 Q2023.94 261.765 2026.21 260.561 L2026.21 264.589 Q2023.91 265.561 2021.51 266.071 Q2019.1 266.58 2016.62 266.58 Q2010.42 266.58 2006.79 262.969 Q2003.17 259.358 2003.17 253.2 Q2003.17 246.835 2006.6 243.108 Q2010.05 239.358 2015.88 239.358 Q2021.11 239.358 2024.15 242.737 Q2027.2 246.094 2027.2 251.881 M2022.94 250.631 Q2022.9 247.136 2020.97 245.052 Q2019.08 242.969 2015.93 242.969 Q2012.36 242.969 2010.21 244.983 Q2008.08 246.997 2007.76 250.654 L2022.94 250.631 Z" fill="#000000" fill-rule="evenodd" fill-opacity="1" /><path clip-path="url(#clip280)" d="M2049.22 243.964 Q2048.5 243.548 2047.64 243.362 Q2046.81 243.154 2045.79 243.154 Q2042.18 243.154 2040.23 245.515 Q2038.31 247.853 2038.31 252.251 L2038.31 265.909 L2034.03 265.909 L2034.03 239.983 L2038.31 239.983 L2038.31 244.011 Q2039.66 241.649 2041.81 240.515 Q2043.96 239.358 2047.04 239.358 Q2047.48 239.358 2048.01 239.427 Q2048.54 239.474 2049.19 239.589 L2049.22 243.964 Z" fill="#000000" fill-rule="evenodd" fill-opacity="1" /><path clip-path="url(#clip280)" d="M2053.68 239.983 L2057.94 239.983 L2057.94 265.909 L2053.68 265.909 L2053.68 239.983 M2053.68 229.89 L2057.94 229.89 L2057.94 235.284 L2053.68 235.284 L2053.68 229.89 Z" fill="#000000" fill-rule="evenodd" fill-opacity="1" /><path clip-path="url(#clip280)" d="M2063.8 239.983 L2068.31 239.983 L2076.41 261.742 L2084.52 239.983 L2089.03 239.983 L2079.31 265.909 L2073.52 265.909 L2063.8 239.983 Z" fill="#000000" fill-rule="evenodd" fill-opacity="1" /><path clip-path="url(#clip280)" d="M2106.69 252.876 Q2101.53 252.876 2099.54 254.057 Q2097.55 255.237 2097.55 258.085 Q2097.55 260.353 2099.03 261.696 Q2100.53 263.015 2103.1 263.015 Q2106.65 263.015 2108.78 260.515 Q2110.93 257.992 2110.93 253.825 L2110.93 252.876 L2106.69 252.876 M2115.19 251.117 L2115.19 265.909 L2110.93 265.909 L2110.93 261.973 Q2109.47 264.335 2107.29 265.469 Q2105.12 266.58 2101.97 266.58 Q2097.99 266.58 2095.63 264.358 Q2093.29 262.112 2093.29 258.362 Q2093.29 253.987 2096.21 251.765 Q2099.15 249.543 2104.96 249.543 L2110.93 249.543 L2110.93 249.126 Q2110.93 246.187 2108.98 244.589 Q2107.06 242.969 2103.57 242.969 Q2101.34 242.969 2099.24 243.501 Q2097.13 244.034 2095.19 245.099 L2095.19 241.163 Q2097.53 240.261 2099.72 239.821 Q2101.92 239.358 2104.01 239.358 Q2109.63 239.358 2112.41 242.274 Q2115.19 245.191 2115.19 251.117 Z" fill="#000000" fill-rule="evenodd" fill-opacity="1" /><path clip-path="url(#clip280)" d="M2128.17 232.622 L2128.17 239.983 L2136.95 239.983 L2136.95 243.293 L2128.17 243.293 L2128.17 257.367 Q2128.17 260.538 2129.03 261.441 Q2129.91 262.344 2132.57 262.344 L2136.95 262.344 L2136.95 265.909 L2132.57 265.909 Q2127.64 265.909 2125.77 264.08 Q2123.89 262.228 2123.89 257.367 L2123.89 243.293 L2120.77 243.293 L2120.77 239.983 L2123.89 239.983 L2123.89 232.622 L2128.17 232.622 Z" fill="#000000" fill-rule="evenodd" fill-opacity="1" /><path clip-path="url(#clip280)" d="M2142.55 239.983 L2146.81 239.983 L2146.81 265.909 L2142.55 265.909 L2142.55 239.983 M2142.55 229.89 L2146.81 229.89 L2146.81 235.284 L2142.55 235.284 L2142.55 229.89 Z" fill="#000000" fill-rule="evenodd" fill-opacity="1" /><path clip-path="url(#clip280)" d="M2152.66 239.983 L2157.18 239.983 L2165.28 261.742 L2173.38 239.983 L2177.9 239.983 L2168.17 265.909 L2162.39 265.909 L2152.66 239.983 Z" fill="#000000" fill-rule="evenodd" fill-opacity="1" /><path clip-path="url(#clip280)" d="M2205.95 251.881 L2205.95 253.964 L2186.37 253.964 Q2186.65 258.362 2189.01 260.677 Q2191.39 262.969 2195.63 262.969 Q2198.08 262.969 2200.37 262.367 Q2202.69 261.765 2204.96 260.561 L2204.96 264.589 Q2202.66 265.561 2200.26 266.071 Q2197.85 266.58 2195.37 266.58 Q2189.17 266.58 2185.53 262.969 Q2181.92 259.358 2181.92 253.2 Q2181.92 246.835 2185.35 243.108 Q2188.8 239.358 2194.63 239.358 Q2199.86 239.358 2202.9 242.737 Q2205.95 246.094 2205.95 251.881 M2201.69 250.631 Q2201.65 247.136 2199.72 245.052 Q2197.83 242.969 2194.68 242.969 Q2191.11 242.969 2188.96 244.983 Q2186.83 246.997 2186.51 250.654 L2201.69 250.631 Z" fill="#000000" fill-rule="evenodd" fill-opacity="1" /><polyline clip-path="url(#clip280)" style="stroke:#c271d2; stroke-linecap:round; stroke-linejoin:round; stroke-width:4; stroke-opacity:1; fill:none" points="1689.34,300.469 1823.72,300.469 "/>
<path clip-path="url(#clip280)" d="M1862.62 281.73 L1862.62 285.272 L1858.55 285.272 Q1856.25 285.272 1855.35 286.198 Q1854.47 287.124 1854.47 289.531 L1854.47 291.823 L1861.49 291.823 L1861.49 295.133 L1854.47 295.133 L1854.47 317.749 L1850.19 317.749 L1850.19 295.133 L1846.11 295.133 L1846.11 291.823 L1850.19 291.823 L1850.19 290.017 Q1850.19 285.689 1852.2 283.721 Q1854.22 281.73 1858.59 281.73 L1862.62 281.73 Z" fill="#000000" fill-rule="evenodd" fill-opacity="1" /><path clip-path="url(#clip280)" d="M1876.23 294.809 Q1872.8 294.809 1870.81 297.494 Q1868.82 300.156 1868.82 304.809 Q1868.82 309.462 1870.79 312.147 Q1872.78 314.809 1876.23 314.809 Q1879.63 314.809 1881.62 312.124 Q1883.61 309.438 1883.61 304.809 Q1883.61 300.202 1881.62 297.517 Q1879.63 294.809 1876.23 294.809 M1876.23 291.198 Q1881.79 291.198 1884.96 294.809 Q1888.13 298.42 1888.13 304.809 Q1888.13 311.175 1884.96 314.809 Q1881.79 318.42 1876.23 318.42 Q1870.65 318.42 1867.48 314.809 Q1864.33 311.175 1864.33 304.809 Q1864.33 298.42 1867.48 294.809 Q1870.65 291.198 1876.23 291.198 Z" fill="#000000" fill-rule="evenodd" fill-opacity="1" /><path clip-path="url(#clip280)" d="M1894.75 307.517 L1894.75 291.823 L1899.01 291.823 L1899.01 307.355 Q1899.01 311.036 1900.44 312.888 Q1901.88 314.716 1904.75 314.716 Q1908.2 314.716 1910.19 312.517 Q1912.2 310.318 1912.2 306.522 L1912.2 291.823 L1916.46 291.823 L1916.46 317.749 L1912.2 317.749 L1912.2 313.767 Q1910.65 316.128 1908.59 317.286 Q1906.55 318.42 1903.85 318.42 Q1899.38 318.42 1897.06 315.642 Q1894.75 312.864 1894.75 307.517 M1905.47 291.198 L1905.47 291.198 Z" fill="#000000" fill-rule="evenodd" fill-opacity="1" /><path clip-path="url(#clip280)" d="M1940.26 295.804 Q1939.54 295.388 1938.68 295.202 Q1937.85 294.994 1936.83 294.994 Q1933.22 294.994 1931.28 297.355 Q1929.36 299.693 1929.36 304.091 L1929.36 317.749 L1925.07 317.749 L1925.07 291.823 L1929.36 291.823 L1929.36 295.851 Q1930.7 293.489 1932.85 292.355 Q1935 291.198 1938.08 291.198 Q1938.52 291.198 1939.05 291.267 Q1939.59 291.314 1940.23 291.429 L1940.26 295.804 Z" fill="#000000" fill-rule="evenodd" fill-opacity="1" /><path clip-path="url(#clip280)" d="M1948.94 284.462 L1948.94 291.823 L1957.71 291.823 L1957.71 295.133 L1948.94 295.133 L1948.94 309.207 Q1948.94 312.378 1949.79 313.281 Q1950.67 314.184 1953.34 314.184 L1957.71 314.184 L1957.71 317.749 L1953.34 317.749 Q1948.41 317.749 1946.53 315.92 Q1944.66 314.068 1944.66 309.207 L1944.66 295.133 L1941.53 295.133 L1941.53 291.823 L1944.66 291.823 L1944.66 284.462 L1948.94 284.462 Z" fill="#000000" fill-rule="evenodd" fill-opacity="1" /><path clip-path="url(#clip280)" d="M1984.86 302.101 L1984.86 317.749 L1980.6 317.749 L1980.6 302.239 Q1980.6 298.559 1979.17 296.73 Q1977.73 294.902 1974.86 294.902 Q1971.42 294.902 1969.42 297.101 Q1967.43 299.3 1967.43 303.096 L1967.43 317.749 L1963.15 317.749 L1963.15 281.73 L1967.43 281.73 L1967.43 295.851 Q1968.96 293.513 1971.02 292.355 Q1973.1 291.198 1975.81 291.198 Q1980.28 291.198 1982.57 293.976 Q1984.86 296.73 1984.86 302.101 Z" fill="#000000" fill-rule="evenodd" fill-opacity="1" /><path clip-path="url(#clip280)" d="M2025.49 295.758 L2025.49 281.73 L2029.75 281.73 L2029.75 317.749 L2025.49 317.749 L2025.49 313.86 Q2024.15 316.175 2022.09 317.309 Q2020.05 318.42 2017.18 318.42 Q2012.48 318.42 2009.52 314.67 Q2006.58 310.92 2006.58 304.809 Q2006.58 298.698 2009.52 294.948 Q2012.48 291.198 2017.18 291.198 Q2020.05 291.198 2022.09 292.332 Q2024.15 293.443 2025.49 295.758 M2010.97 304.809 Q2010.97 309.508 2012.9 312.193 Q2014.84 314.855 2018.22 314.855 Q2021.6 314.855 2023.54 312.193 Q2025.49 309.508 2025.49 304.809 Q2025.49 300.11 2023.54 297.448 Q2021.6 294.763 2018.22 294.763 Q2014.84 294.763 2012.9 297.448 Q2010.97 300.11 2010.97 304.809 Z" fill="#000000" fill-rule="evenodd" fill-opacity="1" /><path clip-path="url(#clip280)" d="M2060.7 303.721 L2060.7 305.804 L2041.11 305.804 Q2041.39 310.202 2043.75 312.517 Q2046.14 314.809 2050.37 314.809 Q2052.83 314.809 2055.12 314.207 Q2057.43 313.605 2059.7 312.401 L2059.7 316.429 Q2057.41 317.401 2055 317.911 Q2052.6 318.42 2050.12 318.42 Q2043.91 318.42 2040.28 314.809 Q2036.67 311.198 2036.67 305.04 Q2036.67 298.675 2040.1 294.948 Q2043.54 291.198 2049.38 291.198 Q2054.61 291.198 2057.64 294.577 Q2060.7 297.934 2060.7 303.721 M2056.44 302.471 Q2056.39 298.976 2054.47 296.892 Q2052.57 294.809 2049.42 294.809 Q2045.86 294.809 2043.71 296.823 Q2041.58 298.837 2041.25 302.494 L2056.44 302.471 Z" fill="#000000" fill-rule="evenodd" fill-opacity="1" /><path clip-path="url(#clip280)" d="M2082.71 295.804 Q2081.99 295.388 2081.14 295.202 Q2080.3 294.994 2079.28 294.994 Q2075.67 294.994 2073.73 297.355 Q2071.81 299.693 2071.81 304.091 L2071.81 317.749 L2067.53 317.749 L2067.53 291.823 L2071.81 291.823 L2071.81 295.851 Q2073.15 293.489 2075.3 292.355 Q2077.46 291.198 2080.53 291.198 Q2080.97 291.198 2081.51 291.267 Q2082.04 291.314 2082.69 291.429 L2082.71 295.804 Z" fill="#000000" fill-rule="evenodd" fill-opacity="1" /><path clip-path="url(#clip280)" d="M2087.18 291.823 L2091.44 291.823 L2091.44 317.749 L2087.18 317.749 L2087.18 291.823 M2087.18 281.73 L2091.44 281.73 L2091.44 287.124 L2087.18 287.124 L2087.18 281.73 Z" fill="#000000" fill-rule="evenodd" fill-opacity="1" /><path clip-path="url(#clip280)" d="M2097.29 291.823 L2101.81 291.823 L2109.91 313.582 L2118.01 291.823 L2122.53 291.823 L2112.8 317.749 L2107.02 317.749 L2097.29 291.823 Z" fill="#000000" fill-rule="evenodd" fill-opacity="1" /><path clip-path="url(#clip280)" d="M2140.19 304.716 Q2135.03 304.716 2133.03 305.897 Q2131.04 307.077 2131.04 309.925 Q2131.04 312.193 2132.53 313.536 Q2134.03 314.855 2136.6 314.855 Q2140.14 314.855 2142.27 312.355 Q2144.42 309.832 2144.42 305.665 L2144.42 304.716 L2140.19 304.716 M2148.68 302.957 L2148.68 317.749 L2144.42 317.749 L2144.42 313.813 Q2142.97 316.175 2140.79 317.309 Q2138.61 318.42 2135.47 318.42 Q2131.48 318.42 2129.12 316.198 Q2126.78 313.952 2126.78 310.202 Q2126.78 305.827 2129.7 303.605 Q2132.64 301.383 2138.45 301.383 L2144.42 301.383 L2144.42 300.966 Q2144.42 298.027 2142.48 296.429 Q2140.56 294.809 2137.06 294.809 Q2134.84 294.809 2132.73 295.341 Q2130.63 295.874 2128.68 296.939 L2128.68 293.003 Q2131.02 292.101 2133.22 291.661 Q2135.42 291.198 2137.5 291.198 Q2143.13 291.198 2145.9 294.114 Q2148.68 297.031 2148.68 302.957 Z" fill="#000000" fill-rule="evenodd" fill-opacity="1" /><path clip-path="url(#clip280)" d="M2161.67 284.462 L2161.67 291.823 L2170.44 291.823 L2170.44 295.133 L2161.67 295.133 L2161.67 309.207 Q2161.67 312.378 2162.53 313.281 Q2163.4 314.184 2166.07 314.184 L2170.44 314.184 L2170.44 317.749 L2166.07 317.749 Q2161.14 317.749 2159.26 315.92 Q2157.39 314.068 2157.39 309.207 L2157.39 295.133 L2154.26 295.133 L2154.26 291.823 L2157.39 291.823 L2157.39 284.462 L2161.67 284.462 Z" fill="#000000" fill-rule="evenodd" fill-opacity="1" /><path clip-path="url(#clip280)" d="M2176.04 291.823 L2180.3 291.823 L2180.3 317.749 L2176.04 317.749 L2176.04 291.823 M2176.04 281.73 L2180.3 281.73 L2180.3 287.124 L2176.04 287.124 L2176.04 281.73 Z" fill="#000000" fill-rule="evenodd" fill-opacity="1" /><path clip-path="url(#clip280)" d="M2186.16 291.823 L2190.67 291.823 L2198.77 313.582 L2206.88 291.823 L2211.39 291.823 L2201.67 317.749 L2195.88 317.749 L2186.16 291.823 Z" fill="#000000" fill-rule="evenodd" fill-opacity="1" /><path clip-path="url(#clip280)" d="M2239.45 303.721 L2239.45 305.804 L2219.86 305.804 Q2220.14 310.202 2222.5 312.517 Q2224.89 314.809 2229.12 314.809 Q2231.58 314.809 2233.87 314.207 Q2236.18 313.605 2238.45 312.401 L2238.45 316.429 Q2236.16 317.401 2233.75 317.911 Q2231.34 318.42 2228.87 318.42 Q2222.66 318.42 2219.03 314.809 Q2215.42 311.198 2215.42 305.04 Q2215.42 298.675 2218.84 294.948 Q2222.29 291.198 2228.13 291.198 Q2233.36 291.198 2236.39 294.577 Q2239.45 297.934 2239.45 303.721 M2235.19 302.471 Q2235.14 298.976 2233.22 296.892 Q2231.32 294.809 2228.17 294.809 Q2224.61 294.809 2222.46 296.823 Q2220.33 298.837 2220 302.494 L2235.19 302.471 Z" fill="#000000" fill-rule="evenodd" fill-opacity="1" /></svg>
